<svg xmlns="http://www.w3.org/2000/svg" xmlns:xlink="http://www.w3.org/1999/xlink" viewBox="0 0 272.25 86.07"><defs><style>.cls-1{fill:url(#Degradado_sin_nombre_265);}.cls-2{font-size:13px;font-family:Poppins-Bold, Poppins;font-weight:700;letter-spacing:0.18em;}.cls-2,.cls-4,.cls-6{fill:#fff;}.cls-3{letter-spacing:0.18em;}.cls-4{font-size:8.43px;letter-spacing:0.2em;}.cls-4,.cls-5{font-family:Poppins-SemiBold, Poppins;font-weight:600;}.cls-5{font-size:9px;fill:#f5d400;letter-spacing:0.2em;}</style><linearGradient id="Degradado_sin_nombre_265" x1="109.63" y1="86.07" x2="109.63" gradientUnits="userSpaceOnUse"><stop offset="0" stop-color="#dd00d1"/><stop offset="1" stop-color="#5931c8"/></linearGradient></defs><title>Ativo 2</title><g id="Camada_2" data-name="Camada 2"><g id="Layer_1" data-name="Layer 1"><rect class="cls-1" x="108.52" width="2.23" height="86.07"/><text class="cls-2" transform="translate(17.61 29.66)">PEDRO<tspan class="cls-3"><tspan x="-6.59" y="13">FRANÇA</tspan></tspan></text><text class="cls-4" transform="translate(32.76 13.97)">com</text><text class="cls-5" transform="translate(0 56.81)">COO E DIRETOR<tspan x="3.37" y="9">DE PARCERIAS</tspan><tspan x="2.69" y="18">DA SIMPLEADS</tspan></text><path class="cls-6" d="M154.33,42.56c0,3.25-.06,6.49,0,9.73a2.83,2.83,0,0,1-1.87,2.9c-2.18,1-4.39,1.89-6.58,2.83l-12.6,5.39-.51.18c0-3.56,0-7.08,0-10.61,0-.38.17-.53.49-.66l13.23-5.58c2-.83,4-1.6,5.89-2.49a3.57,3.57,0,0,0,1.93-1.69"/><path class="cls-6" d="M132.79,31.76c.76,1.66,2.15,2.11,3.44,2.66,4.11,1.77,8.22,3.51,12.33,5.27A17.48,17.48,0,0,1,151,40.75c1,.62,1.07,1.33,0,1.85-1.59.78-3.24,1.42-4.87,2.12s-3.35,1.41-5,2.15a1.81,1.81,0,0,1-1.68,0c-1.75-.93-3.69-1.46-5.39-2.5a2.42,2.42,0,0,1-1.28-2.29c0-3.36,0-6.71,0-10.32"/><path class="cls-6" d="M154.32,22.48c0,3.57,0,7.05,0,10.52a.68.68,0,0,1-.47.75c-2.18.9-4.36,1.81-6.52,2.75a1.3,1.3,0,0,1-1.11-.06l-9.58-4c-.59-.24-1.24-.54-1.23-1.23s.67-.93,1.21-1.16q5.81-2.5,11.63-5l6.06-2.57"/><path class="cls-6" d="M164.13,48.25,165.29,47a5.75,5.75,0,0,0,5.49,3.12c2.32,0,4.3-1,4.3-3.33s-2.3-3.37-4.67-4.24-5.1-1.88-5.1-4.81c0-3.17,2.59-4.67,5.44-4.67a7.39,7.39,0,0,1,5.69,2.37l-1.12,1.14a5.41,5.41,0,0,0-4.57-2.08c-2,0-3.77.94-3.77,3.12s2,2.85,4.21,3.68c2.63,1,5.56,2.08,5.56,5.41s-2.66,5-6,5A7.52,7.52,0,0,1,164.13,48.25Z"/><path class="cls-6" d="M178.78,35.92A1.21,1.21,0,0,1,180,34.73a1.19,1.19,0,0,1,0,2.37A1.2,1.2,0,0,1,178.78,35.92Zm.39,3.48h1.6V51.49h-1.6Z"/><path class="cls-6" d="M201.81,43.68v7.81h-1.6V43.83A3.19,3.19,0,0,0,197,40.59a3.31,3.31,0,0,0-3.34,3.33v7.57H192V43.83a3.2,3.2,0,0,0-3.25-3.24,3.3,3.3,0,0,0-3.33,3.33v7.57h-1.6V39.4h1.48l.07,1.67a4.55,4.55,0,0,1,3.75-1.91,4.34,4.34,0,0,1,4,2.42,4.77,4.77,0,0,1,4.18-2.42A4.38,4.38,0,0,1,201.81,43.68Z"/><path class="cls-6" d="M215.93,45.45c0,3.48-2.2,6.28-5.59,6.28A5.09,5.09,0,0,1,206,49.39v8.15h-1.57V39.4H206v2.11a5.1,5.1,0,0,1,4.35-2.35C213.73,39.16,215.93,41.94,215.93,45.45Zm-1.55,0c0-2.71-1.64-4.86-4.26-4.86A4.27,4.27,0,0,0,206,44.31v2.27a4.27,4.27,0,0,0,4.13,3.73C212.74,50.31,214.38,48.13,214.38,45.45Z"/><path class="cls-6" d="M217.74,48.59V33.35h1.57l0,15.24A1.52,1.52,0,0,0,221,50.33a1.61,1.61,0,0,0,1.28-.51l.9,1.09a3,3,0,0,1-2.2.82A3,3,0,0,1,217.74,48.59Z"/><path class="cls-6" d="M234.07,46h-9.7c.19,2.56,1.72,4.35,4.23,4.35a3.9,3.9,0,0,0,3.58-2l1.11.79a5.18,5.18,0,0,1-4.74,2.66c-3.5,0-5.73-2.73-5.73-6.28s2.23-6.29,5.73-6.29,5.54,2.59,5.54,6.19C234.09,45.54,234.09,45.76,234.07,46Zm-9.68-1.26h8.25c-.22-2.47-1.69-4.18-4.06-4.18S224.66,42.28,224.39,44.72Z"/><path class="cls-6" d="M239.8,33.51l1-.12c.32,0,.67,0,1,0s.66,0,1,0l1,.12,5.63,18a13.77,13.77,0,0,1-2,.15,11.18,11.18,0,0,1-1.85-.15l-1-3.6h-6l-1,3.6a10.56,10.56,0,0,1-1.73.15,11.11,11.11,0,0,1-1.83-.15Zm4,11.35-2.08-7.55-2.18,7.55Z"/><path class="cls-6" d="M257.67,33.2c.3-.05.59-.08.88-.1l.87,0,.87,0c.3,0,.6,0,.9.1V51.07a19.23,19.23,0,0,1-2.39.54,20.36,20.36,0,0,1-2.94.18,8.79,8.79,0,0,1-2.53-.36,5.68,5.68,0,0,1-2.14-1.15,5.52,5.52,0,0,1-1.47-2,8.41,8.41,0,0,1-.07-5.74A6.54,6.54,0,0,1,251,40.31a6.24,6.24,0,0,1,2.09-1.46,6.72,6.72,0,0,1,2.73-.54c.3,0,.61,0,.94,0a4.86,4.86,0,0,1,.94.16Zm0,8a7.12,7.12,0,0,0-.82-.17c-.21,0-.47,0-.79,0a2.93,2.93,0,0,0-1.43.33,3.16,3.16,0,0,0-1,.9A4.14,4.14,0,0,0,253,43.6a6.92,6.92,0,0,0-.18,1.59,5.24,5.24,0,0,0,.25,1.74,2.81,2.81,0,0,0,.69,1.14,2.61,2.61,0,0,0,1,.61,4.54,4.54,0,0,0,1.3.19c.29,0,.55,0,.78,0a5.71,5.71,0,0,0,.78-.16Z"/><path class="cls-6" d="M265.87,45.86a5,5,0,0,1-2.19-1.18,3.26,3.26,0,0,1-.79-2.37,3.59,3.59,0,0,1,1.37-3A5.89,5.89,0,0,1,268,38.26a11.26,11.26,0,0,1,1.93.17,13.26,13.26,0,0,1,1.93.53,7.75,7.75,0,0,1-.25,1.35,7.18,7.18,0,0,1-.48,1.23,8.64,8.64,0,0,0-1.33-.44,5.81,5.81,0,0,0-1.52-.19,2.85,2.85,0,0,0-1.33.26.91.91,0,0,0-.47.84.88.88,0,0,0,.33.78,3.93,3.93,0,0,0,1,.42l1.42.43a6.33,6.33,0,0,1,1.27.49,3.42,3.42,0,0,1,1,.71,2.89,2.89,0,0,1,.63,1,4.54,4.54,0,0,1,.22,1.53,3.87,3.87,0,0,1-.39,1.72,3.94,3.94,0,0,1-1.12,1.39,5.71,5.71,0,0,1-1.79.93,7.91,7.91,0,0,1-2.38.33c-.4,0-.77,0-1.1,0a9.66,9.66,0,0,1-1-.13c-.31-.06-.61-.13-.91-.21a10.29,10.29,0,0,1-1-.33,6.59,6.59,0,0,1,.24-1.36,7.92,7.92,0,0,1,.48-1.34,10.71,10.71,0,0,0,1.57.49,7,7,0,0,0,1.54.16,5.27,5.27,0,0,0,.76-.06,2.59,2.59,0,0,0,.76-.23,1.71,1.71,0,0,0,.59-.42,1,1,0,0,0,.24-.69,1,1,0,0,0-.36-.86,3.61,3.61,0,0,0-1-.47Z"/></g></g></svg>