<?xml version="1.0" encoding="utf-8"?>
<!-- Generator: Adobe Illustrator 24.0.1, SVG Export Plug-In . SVG Version: 6.00 Build 0)  -->
<svg version="1.1" id="Camada_1" xmlns="http://www.w3.org/2000/svg" xmlns:xlink="http://www.w3.org/1999/xlink" x="0px" y="0px"
	 viewBox="0 0 272.3 86.1" style="enable-background:new 0 0 272.3 86.1;" xml:space="preserve">
<style type="text/css">
	.st0{fill:url(#SVGID_1_);}
	.st1{enable-background:new    ;}
	.st2{fill:#FFFFFF;}
	.st3{fill:#F5D400;}
</style>
<title>Ativo 2</title>
<g id="Camada_2_1_">
	<g id="Layer_1">
		
			<linearGradient id="SVGID_1_" gradientUnits="userSpaceOnUse" x1="109.635" y1="1.93" x2="109.635" y2="88" gradientTransform="matrix(1 0 0 -1 0 88)">
			<stop  offset="0" style="stop-color:#DD00D1"/>
			<stop  offset="1" style="stop-color:#5931C8"/>
		</linearGradient>
		<rect x="108.5" class="st0" width="2.2" height="86.1"/>
		<g class="st1">
			<path class="st2" d="M20.6,26.4v3.2h-2.2v-9.2H22c1.1,0,1.9,0.3,2.5,0.8c0.6,0.5,0.9,1.3,0.9,2.2c0,0.6-0.1,1.1-0.4,1.5
				c-0.3,0.4-0.6,0.8-1.1,1.1c-0.5,0.3-1.1,0.4-1.8,0.4H20.6z M23.1,23.5c0-0.8-0.4-1.2-1.3-1.2h-1.1v2.4h1.1
				C22.6,24.7,23.1,24.3,23.1,23.5z"/>
			<path class="st2" d="M31,22.2v1.9h3.1v1.7H31v2h3.5v1.8h-5.7v-9.2h5.7v1.8H31z"/>
			<path class="st2" d="M45.8,27.4c-0.4,0.7-0.9,1.2-1.7,1.6s-1.6,0.6-2.6,0.6h-3.5v-9.2h3.5c1,0,1.8,0.2,2.6,0.6
				c0.7,0.4,1.3,0.9,1.7,1.6c0.4,0.7,0.6,1.5,0.6,2.4S46.2,26.7,45.8,27.4z M43.4,27c0.5-0.5,0.7-1.1,0.7-1.9s-0.2-1.5-0.7-1.9
				c-0.5-0.5-1.2-0.7-2-0.7h-1.1v5.3h1.1C42.2,27.7,42.9,27.4,43.4,27z"/>
			<path class="st2" d="M54.7,29.7l-2-3.5h-0.5v3.5H50v-9.2h3.8c0.7,0,1.3,0.1,1.8,0.4c0.5,0.3,0.9,0.6,1.1,1s0.4,0.9,0.4,1.5
				c0,0.7-0.2,1.2-0.6,1.7c-0.4,0.5-0.9,0.8-1.6,1l2.2,3.6H54.7z M52.2,24.7h1.4c0.4,0,0.8-0.1,1-0.3c0.2-0.2,0.3-0.5,0.3-0.9
				c0-0.4-0.1-0.6-0.3-0.9s-0.5-0.3-1-0.3h-1.4V24.7z"/>
			<path class="st2" d="M67.3,20.9c0.7,0.4,1.3,1,1.7,1.7c0.4,0.7,0.6,1.5,0.6,2.4s-0.2,1.7-0.6,2.4c-0.4,0.7-1,1.3-1.7,1.7
				c-0.7,0.4-1.5,0.6-2.3,0.6c-0.9,0-1.6-0.2-2.3-0.6c-0.7-0.4-1.3-1-1.7-1.7c-0.4-0.7-0.6-1.5-0.6-2.4s0.2-1.7,0.6-2.4
				s1-1.3,1.7-1.7c0.7-0.4,1.5-0.6,2.3-0.6C65.8,20.3,66.6,20.5,67.3,20.9z M63.2,23.1c-0.4,0.5-0.6,1.1-0.6,1.9
				c0,0.8,0.2,1.4,0.6,1.9c0.4,0.5,1,0.7,1.7,0.7c0.7,0,1.3-0.2,1.7-0.7c0.4-0.5,0.7-1.1,0.7-1.9s-0.2-1.4-0.6-1.9
				c-0.4-0.5-1-0.7-1.7-0.7C64.2,22.4,63.6,22.6,63.2,23.1z"/>
		</g>
		<g class="st1">
			<path class="st2" d="M17.8,33.5v1.8H14v2h2.9v1.7H14v3.7h-2.2v-9.2H17.8z"/>
			<path class="st2" d="M26,42.7l-2-3.5h-0.5v3.5h-2.2v-9.2h3.8c0.7,0,1.3,0.1,1.8,0.4c0.5,0.3,0.9,0.6,1.1,1s0.4,0.9,0.4,1.5
				c0,0.7-0.2,1.2-0.6,1.7c-0.4,0.5-0.9,0.8-1.6,1l2.2,3.6H26z M23.5,37.7h1.4c0.4,0,0.8-0.1,1-0.3c0.2-0.2,0.3-0.5,0.3-0.9
				c0-0.4-0.1-0.6-0.3-0.9s-0.5-0.3-1-0.3h-1.4V37.7z"/>
			<path class="st2" d="M37.6,41h-3.4l-0.6,1.7h-2.3l3.4-9.1h2.6l3.4,9.1h-2.4L37.6,41z M37,39.3l-1.1-3.4l-1.2,3.4H37z"/>
			<path class="st2" d="M51.9,42.7h-2.2L45.9,37v5.6h-2.2v-9.2h2.2l3.7,5.7v-5.7h2.2V42.7z"/>
			<path class="st2" d="M62.8,34.3c0.8,0.6,1.3,1.4,1.5,2.5H62c-0.2-0.4-0.4-0.8-0.8-1c-0.4-0.2-0.8-0.4-1.3-0.4
				c-0.6,0-1.2,0.2-1.6,0.7c-0.4,0.5-0.6,1.1-0.6,1.9c0,0.8,0.2,1.4,0.6,1.9c0.4,0.5,0.9,0.7,1.6,0.7c0.5,0,0.9-0.1,1.3-0.4
				c0.4-0.2,0.6-0.6,0.8-1h2.4c-0.2,1-0.7,1.9-1.5,2.5c-0.8,0.6-1.7,0.9-2.9,0.9c-0.9,0-1.7-0.2-2.4-0.6c-0.7-0.4-1.2-0.9-1.6-1.7
				s-0.6-1.5-0.6-2.4c0-0.9,0.2-1.7,0.6-2.4c0.4-0.7,0.9-1.3,1.6-1.7c0.7-0.4,1.5-0.6,2.4-0.6C61.1,33.4,62.1,33.7,62.8,34.3z
				 M61.8,43.6c0.3,0.2,0.5,0.6,0.5,1.1s-0.2,0.9-0.5,1.1s-0.8,0.4-1.3,0.4h-1.9V45h1.7c0.4,0,0.5-0.1,0.5-0.4c0-0.1,0-0.2-0.1-0.3
				s-0.2-0.1-0.4-0.1h-0.9v-1.7h1.3v0.6C61,43.2,61.4,43.3,61.8,43.6z"/>
			<path class="st2" d="M73.6,41h-3.4l-0.6,1.7h-2.3l3.4-9.1h2.6l3.4,9.1h-2.4L73.6,41z M73,39.3l-1.1-3.4l-1.2,3.4H73z"/>
		</g>
		<g class="st1">
			<path class="st2" d="M36.9,9.7c0.4,0.3,0.7,0.8,0.8,1.3h-1.3c0-0.2-0.2-0.4-0.3-0.6c-0.2-0.1-0.4-0.2-0.7-0.2
				c-0.3,0-0.6,0.1-0.8,0.3s-0.3,0.6-0.3,1s0.1,0.8,0.3,1s0.5,0.3,0.8,0.3c0.3,0,0.5-0.1,0.7-0.2c0.2-0.1,0.3-0.3,0.3-0.6h1.3
				c-0.1,0.6-0.4,1-0.8,1.3S36,14,35.4,14c-0.5,0-0.9-0.1-1.2-0.3c-0.4-0.2-0.6-0.5-0.8-0.8c-0.2-0.4-0.3-0.8-0.3-1.3
				s0.1-0.9,0.3-1.3c0.2-0.4,0.5-0.6,0.8-0.8c0.4-0.2,0.8-0.3,1.2-0.3C36,9.2,36.5,9.4,36.9,9.7z"/>
			<path class="st2" d="M43.6,9.5c0.4,0.2,0.6,0.5,0.9,0.8s0.3,0.8,0.3,1.3s-0.1,0.9-0.3,1.3c-0.2,0.4-0.5,0.6-0.9,0.8
				c-0.4,0.2-0.8,0.3-1.2,0.3s-0.9-0.1-1.2-0.3c-0.4-0.2-0.6-0.5-0.9-0.8c-0.2-0.4-0.3-0.8-0.3-1.3s0.1-0.9,0.3-1.3s0.5-0.6,0.9-0.8
				c0.4-0.2,0.8-0.3,1.2-0.3S43.2,9.3,43.6,9.5z M41.5,10.6c-0.2,0.2-0.3,0.6-0.3,1s0.1,0.8,0.3,1S42,13,42.3,13s0.6-0.1,0.8-0.3
				s0.3-0.6,0.3-1s-0.1-0.8-0.3-1s-0.5-0.4-0.8-0.4S41.7,10.4,41.5,10.6z"/>
			<path class="st2" d="M54.6,9.8c0.3,0.4,0.5,0.9,0.5,1.5V14h-1.2v-2.6c0-0.4-0.1-0.6-0.3-0.8c-0.2-0.2-0.4-0.3-0.8-0.3
				c-0.3,0-0.6,0.1-0.8,0.3c-0.2,0.2-0.3,0.5-0.3,0.9V14h-1.2v-2.6c0-0.4-0.1-0.6-0.3-0.8c-0.2-0.2-0.4-0.3-0.8-0.3
				c-0.3,0-0.6,0.1-0.8,0.3c-0.2,0.2-0.3,0.5-0.3,0.9V14h-1.2V9.3h1.2v0.9c0.1-0.3,0.3-0.5,0.6-0.7c0.3-0.2,0.6-0.2,0.9-0.2
				c0.4,0,0.7,0.1,1,0.3s0.5,0.4,0.6,0.8c0.1-0.3,0.4-0.6,0.7-0.8s0.6-0.3,1-0.3C53.8,9.2,54.2,9.4,54.6,9.8z"/>
		</g>
		<g class="st1">
			<path class="st3" d="M5.4,51c0.5,0.4,0.9,1,1,1.7H5.1c-0.1-0.3-0.4-0.6-0.6-0.8s-0.6-0.3-1-0.3c-0.3,0-0.6,0.1-0.9,0.3
				S2,52.2,1.9,52.5c-0.2,0.3-0.2,0.7-0.2,1.1c0,0.4,0.1,0.8,0.2,1.1C2,55,2.3,55.3,2.5,55.4s0.6,0.3,0.9,0.3c0.4,0,0.8-0.1,1-0.3
				s0.5-0.5,0.6-0.8h1.3c-0.2,0.7-0.5,1.3-1,1.7c-0.5,0.4-1.2,0.6-2,0.6c-0.6,0-1.1-0.1-1.6-0.4S1,55.8,0.8,55.3
				c-0.3-0.5-0.4-1-0.4-1.7c0-0.6,0.1-1.2,0.4-1.7c0.3-0.5,0.6-0.9,1.1-1.1c0.5-0.3,1-0.4,1.6-0.4C4.2,50.4,4.9,50.6,5.4,51z"/>
			<path class="st3" d="M13.8,50.8c0.5,0.3,0.9,0.7,1.1,1.2c0.3,0.5,0.4,1.1,0.4,1.7s-0.1,1.2-0.4,1.7s-0.7,0.9-1.1,1.2
				c-0.5,0.3-1,0.4-1.6,0.4c-0.6,0-1.1-0.1-1.6-0.4c-0.5-0.3-0.9-0.7-1.1-1.2C9.1,54.8,9,54.2,9,53.6s0.1-1.2,0.4-1.7
				c0.3-0.5,0.7-0.9,1.1-1.2c0.5-0.3,1-0.4,1.6-0.4C12.8,50.4,13.3,50.5,13.8,50.8z M11.2,51.8c-0.3,0.2-0.5,0.4-0.7,0.7
				c-0.2,0.3-0.2,0.7-0.2,1.1s0.1,0.8,0.2,1.1c0.2,0.3,0.4,0.6,0.7,0.7c0.3,0.2,0.6,0.3,1,0.3c0.4,0,0.7-0.1,1-0.3
				c0.3-0.2,0.5-0.4,0.7-0.7c0.2-0.3,0.2-0.7,0.2-1.1s-0.1-0.8-0.2-1.1c-0.2-0.3-0.4-0.6-0.7-0.7c-0.3-0.2-0.6-0.3-1-0.3
				C11.8,51.5,11.5,51.6,11.2,51.8z"/>
			<path class="st3" d="M22.7,50.8c0.5,0.3,0.9,0.7,1.1,1.2c0.3,0.5,0.4,1.1,0.4,1.7s-0.1,1.2-0.4,1.7s-0.7,0.9-1.1,1.2
				c-0.5,0.3-1,0.4-1.6,0.4c-0.6,0-1.1-0.1-1.6-0.4c-0.5-0.3-0.9-0.7-1.1-1.2c-0.3-0.5-0.4-1.1-0.4-1.7s0.1-1.2,0.4-1.7
				c0.3-0.5,0.7-0.9,1.1-1.2c0.5-0.3,1-0.4,1.6-0.4C21.7,50.4,22.2,50.5,22.7,50.8z M20.1,51.8c-0.3,0.2-0.5,0.4-0.7,0.7
				c-0.2,0.3-0.2,0.7-0.2,1.1s0.1,0.8,0.2,1.1c0.2,0.3,0.4,0.6,0.7,0.7c0.3,0.2,0.6,0.3,1,0.3c0.4,0,0.7-0.1,1-0.3
				c0.3-0.2,0.5-0.4,0.7-0.7c0.2-0.3,0.2-0.7,0.2-1.1s-0.1-0.8-0.2-1.1c-0.2-0.3-0.4-0.6-0.7-0.7c-0.3-0.2-0.6-0.3-1-0.3
				C20.7,51.5,20.4,51.6,20.1,51.8z"/>
			<path class="st3" d="M32.1,51.5v1.6h2.3v1h-2.3v1.7h2.5v1h-3.8v-6.4h3.8v1H32.1z"/>
			<path class="st3" d="M46.3,55.3c-0.3,0.5-0.6,0.9-1.1,1.1s-1.1,0.4-1.8,0.4h-2.3v-6.4h2.3c0.7,0,1.3,0.1,1.8,0.4
				c0.5,0.3,0.9,0.6,1.1,1.1c0.3,0.5,0.4,1,0.4,1.7C46.7,54.3,46.5,54.8,46.3,55.3z M44.8,55.1c0.4-0.4,0.6-0.9,0.6-1.5
				c0-0.7-0.2-1.2-0.6-1.5s-0.9-0.5-1.6-0.5h-0.9v4.1h0.9C43.9,55.7,44.4,55.5,44.8,55.1z"/>
			<path class="st3" d="M50.7,50.5v6.4h-1.3v-6.4H50.7z"/>
			<path class="st3" d="M57,56.8l-1.5-2.5h-0.6v2.5h-1.3v-6.4h2.4c0.7,0,1.3,0.2,1.7,0.5c0.4,0.4,0.6,0.8,0.6,1.4
				c0,0.5-0.1,0.9-0.4,1.2c-0.3,0.3-0.7,0.5-1.2,0.6l1.6,2.5H57z M54.9,53.5h1c0.7,0,1.1-0.3,1.1-1c0-0.3-0.1-0.5-0.3-0.7
				c-0.2-0.2-0.5-0.3-0.8-0.3h-1V53.5z"/>
			<path class="st3" d="M62.3,51.5v1.6h2.3v1h-2.3v1.7h2.5v1H61v-6.4h3.8v1H62.3z"/>
			<path class="st3" d="M71.8,50.5v1h-1.8v5.3h-1.3v-5.3h-1.7v-1H71.8z"/>
			<path class="st3" d="M78.9,50.8c0.5,0.3,0.9,0.7,1.1,1.2c0.3,0.5,0.4,1.1,0.4,1.7s-0.1,1.2-0.4,1.7s-0.7,0.9-1.1,1.2
				c-0.5,0.3-1,0.4-1.6,0.4c-0.6,0-1.1-0.1-1.6-0.4c-0.5-0.3-0.9-0.7-1.1-1.2c-0.3-0.5-0.4-1.1-0.4-1.7s0.1-1.2,0.4-1.7
				c0.3-0.5,0.7-0.9,1.1-1.2c0.5-0.3,1-0.4,1.6-0.4C77.9,50.4,78.4,50.5,78.9,50.8z M76.3,51.8c-0.3,0.2-0.5,0.4-0.7,0.7
				c-0.2,0.3-0.2,0.7-0.2,1.1s0.1,0.8,0.2,1.1c0.2,0.3,0.4,0.6,0.7,0.7c0.3,0.2,0.6,0.3,1,0.3c0.4,0,0.7-0.1,1-0.3
				c0.3-0.2,0.5-0.4,0.7-0.7c0.2-0.3,0.2-0.7,0.2-1.1s-0.1-0.8-0.2-1.1c-0.2-0.3-0.4-0.6-0.7-0.7c-0.3-0.2-0.6-0.3-1-0.3
				C76.9,51.5,76.6,51.6,76.3,51.8z"/>
			<path class="st3" d="M86.6,56.8l-1.5-2.5h-0.6v2.5h-1.3v-6.4h2.4c0.7,0,1.3,0.2,1.7,0.5c0.4,0.4,0.6,0.8,0.6,1.4
				c0,0.5-0.1,0.9-0.4,1.2c-0.3,0.3-0.7,0.5-1.2,0.6l1.6,2.5H86.6z M84.5,53.5h1c0.7,0,1.1-0.3,1.1-1c0-0.3-0.1-0.5-0.3-0.7
				c-0.2-0.2-0.5-0.3-0.8-0.3h-1V53.5z"/>
		</g>
		<g class="st1">
			<path class="st3" d="M9.1,64.3c-0.3,0.5-0.6,0.9-1.1,1.1s-1.1,0.4-1.8,0.4H3.9v-6.4h2.3c0.7,0,1.3,0.1,1.8,0.4
				c0.5,0.3,0.9,0.6,1.1,1.1c0.3,0.5,0.4,1,0.4,1.7C9.5,63.3,9.4,63.8,9.1,64.3z M7.7,64.1c0.4-0.4,0.6-0.9,0.6-1.5
				c0-0.7-0.2-1.2-0.6-1.5s-0.9-0.5-1.6-0.5H5.2v4.1h0.9C6.8,64.7,7.3,64.5,7.7,64.1z"/>
			<path class="st3" d="M13.6,60.5v1.6h2.3v1h-2.3v1.7h2.5v1h-3.8v-6.4h3.8v1H13.6z"/>
			<path class="st3" d="M23.8,63.5v2.4h-1.3v-6.4h2.3c0.8,0,1.3,0.2,1.7,0.5c0.4,0.4,0.6,0.8,0.6,1.5c0,0.6-0.2,1.1-0.6,1.4
				c-0.4,0.4-1,0.5-1.7,0.5H23.8z M25.9,61.5c0-0.3-0.1-0.6-0.3-0.7s-0.5-0.3-0.9-0.3h-0.9v2h0.9C25.5,62.4,25.9,62.1,25.9,61.5z"/>
			<path class="st3" d="M33.7,64.5h-2.5l-0.4,1.3h-1.3l2.3-6.3h1.4l2.3,6.3h-1.3L33.7,64.5z M33.3,63.6l-0.9-2.7l-0.9,2.7H33.3z"/>
			<path class="st3" d="M41.2,65.8l-1.5-2.5h-0.6v2.5h-1.3v-6.4h2.4c0.7,0,1.3,0.2,1.7,0.5c0.4,0.4,0.6,0.8,0.6,1.4
				c0,0.5-0.1,0.9-0.4,1.2c-0.3,0.3-0.7,0.5-1.2,0.6l1.6,2.5H41.2z M39.2,62.5h1c0.7,0,1.1-0.3,1.1-1c0-0.3-0.1-0.5-0.3-0.7
				c-0.2-0.2-0.5-0.3-0.8-0.3h-1V62.5z"/>
			<path class="st3" d="M50.1,60c0.5,0.4,0.9,1,1,1.7h-1.3c-0.1-0.3-0.4-0.6-0.6-0.8s-0.6-0.3-1-0.3c-0.3,0-0.6,0.1-0.9,0.3
				s-0.5,0.4-0.6,0.7c-0.2,0.3-0.2,0.7-0.2,1.1c0,0.4,0.1,0.8,0.2,1.1c0.1,0.3,0.4,0.6,0.6,0.7s0.6,0.3,0.9,0.3c0.4,0,0.8-0.1,1-0.3
				s0.5-0.5,0.6-0.8h1.3c-0.2,0.7-0.5,1.3-1,1.7c-0.5,0.4-1.2,0.6-2,0.6c-0.6,0-1.1-0.1-1.6-0.4s-0.8-0.7-1.1-1.1
				c-0.3-0.5-0.4-1-0.4-1.7c0-0.6,0.1-1.2,0.4-1.7c0.3-0.5,0.6-0.9,1.1-1.1c0.5-0.3,1-0.4,1.6-0.4C48.9,59.4,49.6,59.6,50.1,60z"/>
			<path class="st3" d="M55.2,60.5v1.6h2.3v1h-2.3v1.7h2.5v1h-3.8v-6.4h3.8v1H55.2z"/>
			<path class="st3" d="M63.7,65.8l-1.5-2.5h-0.6v2.5h-1.3v-6.4h2.4c0.7,0,1.3,0.2,1.7,0.5c0.4,0.4,0.6,0.8,0.6,1.4
				c0,0.5-0.1,0.9-0.4,1.2c-0.3,0.3-0.7,0.5-1.2,0.6l1.6,2.5H63.7z M61.7,62.5h1c0.7,0,1.1-0.3,1.1-1c0-0.3-0.1-0.5-0.3-0.7
				c-0.2-0.2-0.5-0.3-0.8-0.3h-1V62.5z"/>
			<path class="st3" d="M69,59.5v6.4h-1.3v-6.4H69z"/>
			<path class="st3" d="M75.9,64.5h-2.5l-0.4,1.3h-1.3l2.3-6.3h1.4l2.3,6.3h-1.3L75.9,64.5z M75.5,63.6l-0.9-2.7l-0.9,2.7H75.5z"/>
			<path class="st3" d="M84.2,65c-0.2,0.3-0.4,0.5-0.7,0.7c-0.3,0.2-0.7,0.2-1.2,0.2c-0.4,0-0.9-0.1-1.2-0.2
				c-0.4-0.2-0.6-0.4-0.9-0.7c-0.2-0.3-0.3-0.6-0.4-1h1.4c0,0.3,0.1,0.5,0.3,0.6c0.2,0.2,0.4,0.3,0.7,0.3c0.3,0,0.5-0.1,0.6-0.2
				c0.1-0.1,0.2-0.3,0.2-0.5c0-0.2-0.1-0.4-0.2-0.5c-0.1-0.1-0.3-0.2-0.4-0.3c-0.2-0.1-0.4-0.2-0.7-0.3c-0.4-0.1-0.7-0.3-1-0.4
				s-0.5-0.3-0.6-0.6c-0.2-0.2-0.3-0.6-0.3-1c0-0.5,0.2-1,0.6-1.3c0.4-0.3,0.9-0.5,1.6-0.5c0.7,0,1.2,0.2,1.6,0.5
				c0.4,0.3,0.6,0.8,0.7,1.3H83c0-0.2-0.1-0.4-0.3-0.6c-0.2-0.1-0.4-0.2-0.6-0.2c-0.2,0-0.4,0.1-0.6,0.2s-0.2,0.3-0.2,0.5
				c0,0.2,0.1,0.3,0.2,0.5c0.1,0.1,0.3,0.2,0.4,0.3c0.2,0.1,0.4,0.2,0.7,0.3c0.4,0.1,0.7,0.3,1,0.4c0.3,0.1,0.5,0.3,0.7,0.6
				c0.2,0.3,0.3,0.6,0.3,1C84.5,64.4,84.4,64.7,84.2,65z"/>
		</g>
		<g class="st1">
			<path class="st3" d="M8.5,73.3c-0.3,0.5-0.6,0.9-1.1,1.1s-1.1,0.4-1.8,0.4H3.3v-6.4h2.3c0.7,0,1.3,0.1,1.8,0.4
				c0.5,0.3,0.9,0.6,1.1,1.1c0.3,0.5,0.4,1,0.4,1.7C8.9,72.3,8.7,72.8,8.5,73.3z M7,73.1c0.4-0.4,0.6-0.9,0.6-1.5
				c0-0.7-0.2-1.2-0.6-1.5s-0.9-0.5-1.6-0.5H4.5v4.1h0.9C6.1,73.7,6.6,73.5,7,73.1z"/>
			<path class="st3" d="M15.5,73.5h-2.5l-0.4,1.3h-1.3l2.3-6.3h1.4l2.3,6.3h-1.3L15.5,73.5z M15.1,72.6l-0.9-2.7l-0.9,2.7H15.1z"/>
			<path class="st3" d="M27.6,74c-0.2,0.3-0.4,0.5-0.7,0.7c-0.3,0.2-0.7,0.2-1.2,0.2c-0.4,0-0.9-0.1-1.2-0.2
				c-0.4-0.2-0.6-0.4-0.9-0.7c-0.2-0.3-0.3-0.6-0.4-1h1.4c0,0.3,0.1,0.5,0.3,0.6c0.2,0.2,0.4,0.3,0.7,0.3c0.3,0,0.5-0.1,0.6-0.2
				c0.1-0.1,0.2-0.3,0.2-0.5c0-0.2-0.1-0.4-0.2-0.5c-0.1-0.1-0.3-0.2-0.4-0.3c-0.2-0.1-0.4-0.2-0.7-0.3c-0.4-0.1-0.7-0.3-1-0.4
				s-0.5-0.3-0.6-0.6c-0.2-0.2-0.3-0.6-0.3-1c0-0.5,0.2-1,0.6-1.3c0.4-0.3,0.9-0.5,1.6-0.5c0.7,0,1.2,0.2,1.6,0.5
				c0.4,0.3,0.6,0.8,0.7,1.3h-1.4c0-0.2-0.1-0.4-0.3-0.6c-0.2-0.1-0.4-0.2-0.6-0.2c-0.2,0-0.4,0.1-0.6,0.2s-0.2,0.3-0.2,0.5
				c0,0.2,0.1,0.3,0.2,0.5c0.1,0.1,0.3,0.2,0.4,0.3c0.2,0.1,0.4,0.2,0.7,0.3c0.4,0.1,0.7,0.3,1,0.4c0.3,0.1,0.5,0.3,0.7,0.6
				c0.2,0.3,0.3,0.6,0.3,1C27.9,73.4,27.8,73.7,27.6,74z"/>
			<path class="st3" d="M31.9,68.5v6.4h-1.3v-6.4H31.9z"/>
			<path class="st3" d="M41.7,68.5v6.3h-1.3v-4.4l-1.6,4.4h-1.1l-1.6-4.4v4.4h-1.3v-6.3h1.5l1.9,4.7l1.9-4.7H41.7z"/>
			<path class="st3" d="M45.9,72.5v2.4h-1.3v-6.4h2.3c0.8,0,1.3,0.2,1.7,0.5c0.4,0.4,0.6,0.8,0.6,1.5c0,0.6-0.2,1.1-0.6,1.4
				c-0.4,0.4-1,0.5-1.7,0.5H45.9z M47.9,70.5c0-0.3-0.1-0.6-0.3-0.7s-0.5-0.3-0.9-0.3h-0.9v2h0.9C47.6,71.4,47.9,71.1,47.9,70.5z"/>
			<path class="st3" d="M53.1,73.8h2.1v1h-3.4v-6.4h1.3V73.8z"/>
			<path class="st3" d="M59.1,69.5v1.6h2.3v1h-2.3v1.7h2.5v1h-3.8v-6.4h3.8v1H59.1z"/>
			<path class="st3" d="M68.2,73.5h-2.5l-0.4,1.3h-1.3l2.3-6.3h1.4l2.3,6.3h-1.3L68.2,73.5z M67.8,72.6l-0.9-2.7L66,72.6H67.8z"/>
			<path class="st3" d="M77.7,73.3c-0.3,0.5-0.6,0.9-1.1,1.1s-1.1,0.4-1.8,0.4h-2.3v-6.4h2.3c0.7,0,1.3,0.1,1.8,0.4
				c0.5,0.3,0.9,0.6,1.1,1.1c0.3,0.5,0.4,1,0.4,1.7C78,72.3,77.9,72.8,77.7,73.3z M76.2,73.1c0.4-0.4,0.6-0.9,0.6-1.5
				c0-0.7-0.2-1.2-0.6-1.5s-0.9-0.5-1.6-0.5h-0.9v4.1h0.9C75.3,73.7,75.8,73.5,76.2,73.1z"/>
			<path class="st3" d="M84.9,74c-0.2,0.3-0.4,0.5-0.7,0.7c-0.3,0.2-0.7,0.2-1.2,0.2c-0.4,0-0.9-0.1-1.2-0.2
				c-0.4-0.2-0.6-0.4-0.9-0.7c-0.2-0.3-0.3-0.6-0.4-1H82c0,0.3,0.1,0.5,0.3,0.6c0.2,0.2,0.4,0.3,0.7,0.3c0.3,0,0.5-0.1,0.6-0.2
				c0.1-0.1,0.2-0.3,0.2-0.5c0-0.2-0.1-0.4-0.2-0.5c-0.1-0.1-0.3-0.2-0.4-0.3c-0.2-0.1-0.4-0.2-0.7-0.3c-0.4-0.1-0.7-0.3-1-0.4
				s-0.5-0.3-0.6-0.6c-0.2-0.2-0.3-0.6-0.3-1c0-0.5,0.2-1,0.6-1.3c0.4-0.3,0.9-0.5,1.6-0.5c0.7,0,1.2,0.2,1.6,0.5
				c0.4,0.3,0.6,0.8,0.7,1.3h-1.4c0-0.2-0.1-0.4-0.3-0.6c-0.2-0.1-0.4-0.2-0.6-0.2c-0.2,0-0.4,0.1-0.6,0.2S82,69.9,82,70.1
				c0,0.2,0.1,0.3,0.2,0.5c0.1,0.1,0.3,0.2,0.4,0.3c0.2,0.1,0.4,0.2,0.7,0.3c0.4,0.1,0.7,0.3,1,0.4c0.3,0.1,0.5,0.3,0.7,0.6
				c0.2,0.3,0.3,0.6,0.3,1C85.2,73.4,85.1,73.7,84.9,74z"/>
		</g>
		<path class="st2" d="M154.3,42.6c0,3.3-0.1,6.5,0,9.7c0.1,1.3-0.7,2.5-1.9,2.9c-2.2,1-4.4,1.9-6.6,2.8l-12.6,5.4l-0.5,0.2
			c0-3.6,0-7.1,0-10.6c0-0.4,0.2-0.5,0.5-0.7l13.2-5.6c2-0.8,4-1.6,5.9-2.5C153.2,43.9,153.9,43.3,154.3,42.6"/>
		<path class="st2" d="M132.8,31.8c0.8,1.7,2.1,2.1,3.4,2.7c4.1,1.8,8.2,3.5,12.3,5.3c0.8,0.3,1.7,0.6,2.4,1.1c1,0.6,1.1,1.3,0,1.8
			c-1.6,0.8-3.2,1.4-4.9,2.1s-3.4,1.4-5,2.2c-0.5,0.3-1.2,0.3-1.7,0c-1.8-0.9-3.7-1.5-5.4-2.5c-0.8-0.4-1.3-1.3-1.3-2.3
			C132.8,38.7,132.8,35.4,132.8,31.8"/>
		<path class="st2" d="M154.3,22.5c0,3.6,0,7,0,10.5c0,0.3-0.1,0.7-0.5,0.8c-2.2,0.9-4.4,1.8-6.5,2.8c-0.4,0.1-0.8,0.1-1.1-0.1
			l-9.6-4c-0.6-0.2-1.2-0.5-1.2-1.2s0.7-0.9,1.2-1.2c3.9-1.7,7.8-3.3,11.6-5L154.3,22.5"/>
		<path class="st2" d="M164.1,48.3l1.2-1.3c1,2,3.2,3.3,5.5,3.1c2.3,0,4.3-1,4.3-3.3s-2.3-3.4-4.7-4.2s-5.1-1.9-5.1-4.8
			c0-3.2,2.6-4.7,5.4-4.7c2.2-0.1,4.2,0.8,5.7,2.4l-1.1,1.1c-1.1-1.4-2.8-2.2-4.6-2.1c-2,0-3.8,0.9-3.8,3.1s2,2.8,4.2,3.7
			c2.6,1,5.6,2.1,5.6,5.4s-2.7,5-6,5C168.1,51.8,165.6,50.5,164.1,48.3z"/>
		<path class="st2" d="M178.8,35.9c0-0.7,0.6-1.2,1.2-1.2c0.7,0.1,1.1,0.6,1.1,1.3c-0.1,0.6-0.5,1-1.1,1.1
			C179.3,37.1,178.8,36.6,178.8,35.9C178.8,35.9,178.8,35.9,178.8,35.9z M179.2,39.4h1.6v12.1h-1.6V39.4z"/>
		<path class="st2" d="M201.8,43.7v7.8h-1.6v-7.7c0-1.8-1.4-3.2-3.1-3.2c0,0,0,0-0.1,0c-1.8,0-3.3,1.5-3.3,3.3c0,0,0,0,0,0.1v7.6
			H192v-7.7c0-1.8-1.4-3.2-3.2-3.2c0,0-0.1,0-0.1,0c-1.8,0-3.3,1.4-3.3,3.3c0,0,0,0,0,0.1v7.6h-1.6V39.4h1.5l0.1,1.7
			c0.9-1.2,2.3-1.9,3.8-1.9c1.7,0,3.3,0.9,4,2.4c0.9-1.5,2.5-2.4,4.2-2.4c2.4-0.1,4.4,1.8,4.5,4.2C201.8,43.5,201.8,43.6,201.8,43.7
			z"/>
		<path class="st2" d="M215.9,45.5c0,3.5-2.2,6.3-5.6,6.3c-1.8,0-3.4-0.9-4.3-2.3v8.2h-1.6V39.4h1.6v2.1c0.9-1.5,2.6-2.4,4.4-2.3
			C213.7,39.2,215.9,41.9,215.9,45.5z M214.4,45.5c0-2.7-1.6-4.9-4.3-4.9c-2.1,0.1-3.8,1.6-4.1,3.7v2.3c0.3,2.1,2,3.7,4.1,3.7
			C212.7,50.3,214.4,48.1,214.4,45.5L214.4,45.5z"/>
		<path class="st2" d="M217.7,48.6V33.3h1.6v15.2c-0.1,0.8,0.4,1.6,1.3,1.7c0.1,0,0.3,0,0.4,0c0.5,0,1-0.2,1.3-0.5l0.9,1.1
			c-0.6,0.6-1.4,0.9-2.2,0.8c-1.7,0.1-3.1-1.1-3.2-2.7C217.7,48.9,217.7,48.7,217.7,48.6z"/>
		<path class="st2" d="M234.1,46h-9.7c0.2,2.6,1.7,4.3,4.2,4.3c1.5,0.1,2.9-0.7,3.6-2l1.1,0.8c-1,1.7-2.8,2.7-4.7,2.7
			c-3.5,0-5.7-2.7-5.7-6.3s2.2-6.3,5.7-6.3s5.5,2.6,5.5,6.2C234.1,45.5,234.1,45.8,234.1,46z M224.4,44.7h8.3
			c-0.2-2.5-1.7-4.2-4.1-4.2S224.7,42.3,224.4,44.7L224.4,44.7z"/>
		<path class="st2" d="M239.8,33.5l1-0.1c0.3,0,0.7,0,1,0s0.7,0,1,0l1,0.1l5.6,18c-0.7,0.1-1.3,0.1-2,0.2c-0.6,0-1.2,0-1.9-0.2
			l-1-3.6h-6l-1,3.6c-0.6,0.1-1.2,0.1-1.7,0.2c-0.6,0-1.2,0-1.8-0.2L239.8,33.5z M243.8,44.9l-2.1-7.5l-2.2,7.5H243.8z"/>
		<path class="st2" d="M257.7,33.2c0.3,0,0.6-0.1,0.9-0.1h0.9h0.9c0.3,0,0.6,0,0.9,0.1v17.9c-0.8,0.2-1.6,0.4-2.4,0.5
			c-1,0.1-2,0.2-2.9,0.2c-0.9,0-1.7-0.1-2.5-0.4c-0.8-0.2-1.5-0.6-2.1-1.2c-0.6-0.5-1.1-1.2-1.5-2c-0.7-1.8-0.7-3.9-0.1-5.7
			c0.3-0.8,0.8-1.6,1.4-2.2c0.6-0.6,1.3-1.1,2.1-1.5c0.9-0.4,1.8-0.6,2.7-0.5c0.3,0,0.6,0,0.9,0c0.3,0,0.6,0.1,0.9,0.2L257.7,33.2z
			 M257.7,41.2c-0.3-0.1-0.5-0.1-0.8-0.2c-0.2,0-0.5,0-0.8,0c-0.5,0-1,0.1-1.4,0.3c-0.4,0.2-0.7,0.5-1,0.9c-0.3,0.4-0.5,0.9-0.6,1.3
			c-0.1,0.5-0.2,1.1-0.2,1.6c0,0.6,0.1,1.2,0.3,1.7c0.1,0.4,0.4,0.8,0.7,1.1c0.3,0.3,0.6,0.5,1,0.6c0.4,0.1,0.9,0.2,1.3,0.2
			c0.3,0,0.5,0,0.8,0c0.3,0,0.5-0.1,0.8-0.2L257.7,41.2z"/>
		<path class="st2" d="M265.9,45.9c-0.8-0.2-1.6-0.6-2.2-1.2c-0.6-0.7-0.9-1.5-0.8-2.4c-0.1-1.2,0.5-2.3,1.4-3
			c1.1-0.8,2.4-1.1,3.7-1.1c0.6,0,1.3,0.1,1.9,0.2c0.7,0.1,1.3,0.3,1.9,0.5c0,0.5-0.1,0.9-0.3,1.3c-0.1,0.4-0.3,0.8-0.5,1.2
			c-0.4-0.2-0.9-0.3-1.3-0.4c-0.5-0.1-1-0.2-1.5-0.2c-0.5,0-0.9,0.1-1.3,0.3c-0.3,0.2-0.5,0.5-0.5,0.8c0,0.3,0.1,0.6,0.3,0.8
			c0.3,0.2,0.6,0.3,1,0.4l1.4,0.4c0.4,0.1,0.9,0.3,1.3,0.5c0.4,0.2,0.7,0.4,1,0.7c0.3,0.3,0.5,0.6,0.6,1c0.2,0.5,0.2,1,0.2,1.5
			c0,0.6-0.1,1.2-0.4,1.7c-0.3,0.5-0.6,1-1.1,1.4c-0.5,0.4-1.1,0.7-1.8,0.9c-0.8,0.2-1.6,0.3-2.4,0.3c-0.4,0-0.8,0-1.1,0
			c-0.3,0-0.7-0.1-1-0.1c-0.3-0.1-0.6-0.1-0.9-0.2c-0.3-0.1-0.7-0.2-1-0.3c0-0.5,0.1-0.9,0.2-1.4c0.1-0.5,0.3-0.9,0.5-1.3
			c0.5,0.2,1,0.4,1.6,0.5c0.5,0.1,1,0.2,1.5,0.2c0.3,0,0.5,0,0.8-0.1c0.3,0,0.5-0.1,0.8-0.2c0.2-0.1,0.4-0.2,0.6-0.4
			c0.2-0.2,0.2-0.4,0.2-0.7c0-0.3-0.1-0.7-0.4-0.9c-0.3-0.2-0.6-0.4-1-0.5L265.9,45.9z"/>
	</g>
</g>
</svg>
