<svg xmlns="http://www.w3.org/2000/svg" viewBox="0 0 211.18 211.18"><defs><style>.cls-1{fill:#6aabda;}</style></defs><title>Ativo 3</title><g id="Camada_2" data-name="Camada 2"><g id="Layer_1" data-name="Layer 1"><path class="cls-1" d="M198.49,155.84c.51-.94,1-1.89,1.47-2.83L58.18,11.22c-1,.47-1.9,1-2.84,1.47Z"/><path class="cls-1" d="M193.7,163.85c.58-.87,1.12-1.76,1.67-2.64L50,15.82c-.88.54-1.77,1.08-2.64,1.66Z"/><path class="cls-1" d="M202.66,147.2c.43-1,.86-2,1.26-3L67,7.26c-1,.4-2,.83-3,1.26Z"/><path class="cls-1" d="M182.35,178.09c.69-.74,1.4-1.47,2.07-2.23L35.32,26.76c-.76.67-1.49,1.38-2.23,2.08Z"/><path class="cls-1" d="M188.3,171.25c.64-.81,1.27-1.61,1.88-2.43L42.36,21c-.82.61-1.62,1.24-2.42,1.88Z"/><path class="cls-1" d="M175.87,184.42c.75-.68,1.49-1.38,2.23-2.08L28.84,33.08c-.7.74-1.4,1.48-2.07,2.23Z"/><path class="cls-1" d="M210.15,90.69q-.36-2.59-.86-5.16L125.65,1.89c-1.71-.33-3.43-.61-5.16-.86Z"/><path class="cls-1" d="M211.18,104.52c0-1.48-.05-3-.13-4.43l-100-100c-1.48-.08-3-.12-4.43-.13Z"/><path class="cls-1" d="M208.83,127.77c.26-1.19.5-2.39.71-3.59L87,1.64c-1.2.21-2.4.45-3.59.71Z"/><path class="cls-1" d="M210.6,116.74c.14-1.32.24-2.64.33-4L98.41.25c-1.33.09-2.65.19-4,.33Z"/><path class="cls-1" d="M206.14,137.88c.35-1.09.69-2.19,1-3.29L76.59,4c-1.1.32-2.2.66-3.29,1Z"/><path class="cls-1" d="M137,4.76l69.39,69.39q-1-3.33-2.3-6.6L143.63,7.06C141.45,6.22,139.25,5.46,137,4.76Z"/><path class="cls-1" d="M85.54,209.29q2.56.5,5.16.86L1,120.48q.36,2.59.86,5.16Z"/><path class="cls-1" d="M100.1,211.06c1.48.07,3,.11,4.43.12L0,106.65c0,1.48.05,2.95.13,4.43Z"/><path class="cls-1" d="M67.57,204.12q3.27,1.26,6.6,2.3L4.76,137q1,3.33,2.3,6.6Z"/><path class="cls-1" d="M31.08,180.44a105.86,105.86,0,0,0,19.8,15.49L15.25,160.3a106,106,0,0,0,15.49,19.8Z"/><path class="cls-1" d="M195.92,50.86a105.72,105.72,0,0,0-35.6-35.6Z"/><path class="cls-1" d="M112.78,210.93c1.33-.09,2.65-.19,4-.33L.58,94.43c-.14,1.32-.24,2.65-.33,4Z"/><path class="cls-1" d="M168.83,190.17c.81-.61,1.62-1.24,2.42-1.87L22.88,39.93c-.63.8-1.26,1.61-1.87,2.42Z"/><path class="cls-1" d="M153,200c1-.48,1.9-1,2.83-1.47L12.69,55.34c-.51.94-1,1.88-1.47,2.83Z"/><path class="cls-1" d="M124.19,209.54c1.2-.22,2.4-.45,3.59-.71L2.35,83.4c-.26,1.19-.49,2.39-.71,3.59Z"/><path class="cls-1" d="M161.21,195.36c.89-.55,1.77-1.08,2.64-1.66L17.48,47.33c-.58.87-1.11,1.75-1.66,2.64Z"/><path class="cls-1" d="M134.59,207.14c1.11-.31,2.2-.65,3.3-1L5,73.29c-.35,1.1-.69,2.19-1,3.3Z"/><path class="cls-1" d="M144.16,203.91c1-.4,2-.82,3.05-1.25L8.52,64c-.43,1-.85,2-1.25,3Z"/></g></g></svg>