<?xml version="1.0" encoding="utf-8"?>
<!-- Generator: Adobe Illustrator 24.0.1, SVG Export Plug-In . SVG Version: 6.00 Build 0)  -->
<svg version="1.1" id="Camada_1" xmlns="http://www.w3.org/2000/svg" xmlns:xlink="http://www.w3.org/1999/xlink" x="0px" y="0px"
	 viewBox="0 0 104 103.4" style="enable-background:new 0 0 104 103.4;" xml:space="preserve">
<style type="text/css">
	.st0{fill:#FFFFFF;}
</style>
<circle class="st0" cx="85.4" cy="101.5" r="1.8"/>
<circle class="st0" cx="68.7" cy="101.5" r="1.8"/>
<path class="st0" d="M53.9,101.5c0-1-0.8-1.9-1.8-1.9s-2,0.8-2,1.8s0.8,1.9,1.8,1.9l0,0C53,103.3,53.9,102.5,53.9,101.5L53.9,101.5z
	"/>
<path class="st0" d="M37.1,101.5c0-1-0.8-1.8-1.8-1.8s-1.9,0.8-1.9,1.8s0.8,1.8,1.8,1.8l0,0C36.3,103.3,37.1,102.5,37.1,101.5z"/>
<path class="st0" d="M20.4,101.5c0-1-0.8-1.8-1.8-1.8s-1.9,0.8-1.9,1.8s0.8,1.8,1.8,1.8l0,0C19.6,103.3,20.4,102.5,20.4,101.5z"/>
<path class="st0" d="M104,87.2c0-1-0.8-1.9-1.8-1.9s-1.8,0.8-1.8,1.8s0.8,1.9,1.8,1.9l0,0C103.2,89.1,104,88.3,104,87.2z"/>
<path class="st0" d="M87.3,87.2c0-1-0.8-1.9-1.8-1.9s-1.8,0.8-1.8,1.8s0.8,1.9,1.8,1.9l0,0C86.5,89.1,87.3,88.3,87.3,87.2z"/>
<path class="st0" d="M70.6,87.2c0-1-0.8-1.9-1.8-1.9S67,86.1,67,87.1s0.8,1.9,1.8,1.9l0,0C69.7,89.1,70.6,88.3,70.6,87.2z"/>
<path class="st0" d="M53.9,87.2c0-1-0.8-1.9-1.8-1.9s-1.9,0.8-1.9,1.8S51,89,52,89l0,0C53,89.1,53.9,88.3,53.9,87.2L53.9,87.2z"/>
<path class="st0" d="M37.1,87.2c0-1-0.8-1.9-1.8-1.9s-1.9,0.8-1.9,1.8s0.8,1.9,1.8,1.9l0,0C36.3,89.1,37.1,88.3,37.1,87.2z"/>
<path class="st0" d="M20.4,87.2c0-1-0.8-1.9-1.8-1.9s-1.9,0.8-1.9,1.8s0.8,1.9,1.8,1.9l0,0C19.6,89.1,20.4,88.3,20.4,87.2z"/>
<path class="st0" d="M3.7,87.2c0-1-0.8-1.9-1.8-1.9S0,86.2,0,87.2s0.8,1.9,1.8,1.9l0,0C2.9,89.1,3.7,88.3,3.7,87.2z"/>
<path class="st0" d="M104,73c0-1-0.8-1.8-1.9-1.8c-1,0-1.8,0.8-1.8,1.9c0,1,0.8,1.8,1.8,1.8C103.2,74.8,104,74,104,73L104,73z"/>
<path class="st0" d="M87.3,73c0-1-0.8-1.8-1.9-1.8c-1,0-1.8,0.8-1.8,1.9c0,1,0.8,1.8,1.8,1.8C86.5,74.8,87.3,74,87.3,73L87.3,73z"/>
<path class="st0" d="M70.6,73c0-1-0.8-1.8-1.9-1.8c-1,0-1.8,0.8-1.8,1.9c0,1,0.8,1.8,1.8,1.8C69.7,74.8,70.6,74,70.6,73L70.6,73z"/>
<path class="st0" d="M53.9,73c0-1-0.8-1.9-1.9-1.9c-1,0-1.9,0.8-1.9,1.9c0,1,0.8,1.9,1.9,1.9l0,0C53,74.8,53.9,74,53.9,73L53.9,73z"
	/>
<path class="st0" d="M37.1,73c0-1-0.8-1.8-1.9-1.8s-1.8,0.8-1.8,1.9c0,1,0.8,1.8,1.8,1.8C36.3,74.8,37.1,74,37.1,73L37.1,73z"/>
<path class="st0" d="M20.4,73c0-1-0.8-1.8-1.9-1.8s-1.8,0.8-1.8,1.9c0,1,0.8,1.8,1.8,1.8C19.6,74.8,20.4,74,20.4,73L20.4,73z"/>
<path class="st0" d="M3.7,73c0-1-0.8-1.8-1.9-1.8S0,72,0,73s0.8,1.8,1.8,1.8C2.9,74.8,3.7,74,3.7,73L3.7,73z"/>
<title>Ativo 2</title>
<path class="st0" d="M104,58.8c0-1-0.8-1.9-1.8-1.9s-1.8,0.8-1.8,1.8s0.8,1.9,1.8,1.9l0,0C103.2,60.7,104,59.9,104,58.8z"/>
<path class="st0" d="M87.3,58.8c0-1-0.8-1.9-1.8-1.9s-1.8,0.8-1.8,1.8s0.8,1.9,1.8,1.9l0,0C86.5,60.7,87.3,59.9,87.3,58.8z"/>
<path class="st0" d="M70.6,58.8c0-1-0.8-1.9-1.8-1.9S67,57.7,67,58.7s0.8,1.9,1.8,1.9l0,0C69.7,60.7,70.6,59.9,70.6,58.8z"/>
<path class="st0" d="M53.9,58.8c0-1-0.8-1.9-1.8-1.9s-1.9,0.8-1.9,1.8s0.8,1.9,1.8,1.9l0,0C53,60.7,53.9,59.9,53.9,58.8L53.9,58.8z"
	/>
<path class="st0" d="M37.1,58.8c0-1-0.8-1.9-1.8-1.9s-1.9,0.8-1.9,1.8s0.8,1.9,1.8,1.9l0,0C36.3,60.7,37.1,59.9,37.1,58.8z"/>
<path class="st0" d="M20.4,58.8c0-1-0.8-1.9-1.8-1.9s-1.9,0.8-1.9,1.8s0.8,1.9,1.8,1.9l0,0C19.6,60.7,20.4,59.9,20.4,58.8z"/>
<path class="st0" d="M3.7,58.8c0-1-0.8-1.9-1.8-1.9S0,57.8,0,58.8s0.8,1.9,1.8,1.9l0,0C2.9,60.7,3.7,59.9,3.7,58.8z"/>
<path class="st0" d="M104,44.6c0-1-0.8-1.8-1.9-1.8c-1,0-1.8,0.8-1.8,1.9c0,1,0.8,1.8,1.8,1.8C103.2,46.4,104,45.6,104,44.6
	L104,44.6z"/>
<path class="st0" d="M87.3,44.6c0-1-0.8-1.8-1.9-1.8c-1,0-1.8,0.8-1.8,1.9c0,1,0.8,1.8,1.8,1.8C86.5,46.4,87.3,45.6,87.3,44.6
	L87.3,44.6z"/>
<path class="st0" d="M70.6,44.6c0-1-0.8-1.8-1.9-1.8c-1,0-1.8,0.8-1.8,1.9c0,1,0.8,1.8,1.8,1.8C69.7,46.4,70.6,45.6,70.6,44.6
	L70.6,44.6z"/>
<path class="st0" d="M53.9,44.6c0-1-0.8-1.9-1.9-1.9c-1,0-1.9,0.8-1.9,1.9c0,1,0.8,1.9,1.9,1.9l0,0C53,46.4,53.9,45.6,53.9,44.6
	L53.9,44.6z"/>
<path class="st0" d="M37.1,44.6c0-1-0.8-1.8-1.9-1.8s-1.8,0.8-1.8,1.9c0,1,0.8,1.8,1.8,1.8C36.3,46.4,37.1,45.6,37.1,44.6L37.1,44.6
	z"/>
<path class="st0" d="M20.4,44.6c0-1-0.8-1.8-1.9-1.8s-1.8,0.8-1.8,1.9c0,1,0.8,1.8,1.8,1.8C19.6,46.4,20.4,45.6,20.4,44.6L20.4,44.6
	z"/>
<path class="st0" d="M3.7,44.6c0-1-0.8-1.8-1.9-1.8S0,43.6,0,44.6s0.8,1.8,1.8,1.8C2.9,46.4,3.7,45.6,3.7,44.6L3.7,44.6z"/>
<path class="st0" d="M104,30.3c0-1-0.8-1.9-1.8-1.9s-1.8,0.8-1.8,1.8s0.8,1.9,1.8,1.9l0,0C103.2,32.2,104,31.4,104,30.3z"/>
<path class="st0" d="M87.3,30.3c0-1-0.8-1.9-1.8-1.9s-1.8,0.8-1.8,1.8s0.8,1.9,1.8,1.9l0,0C86.5,32.2,87.3,31.4,87.3,30.3z"/>
<path class="st0" d="M70.6,30.3c0-1-0.8-1.9-1.8-1.9S67,29.2,67,30.2s0.8,1.9,1.8,1.9l0,0C69.7,32.2,70.6,31.4,70.6,30.3z"/>
<path class="st0" d="M53.9,30.3c0-1-0.8-1.9-1.8-1.9s-1.9,0.8-1.9,1.8s0.8,1.9,1.8,1.9l0,0C53,32.2,53.9,31.4,53.9,30.3L53.9,30.3z"
	/>
<path class="st0" d="M37.1,30.3c0-1-0.8-1.9-1.8-1.9s-1.9,0.8-1.9,1.8s0.8,1.9,1.8,1.9l0,0C36.3,32.2,37.1,31.4,37.1,30.3z"/>
<path class="st0" d="M20.4,30.3c0-1-0.8-1.9-1.8-1.9s-1.9,0.8-1.9,1.8s0.8,1.9,1.8,1.9l0,0C19.6,32.2,20.4,31.4,20.4,30.3z"/>
<path class="st0" d="M3.7,30.3c0-1-0.8-1.9-1.8-1.9S0,29.2,0,30.2s0.8,1.9,1.8,1.9l0,0C2.9,32.2,3.7,31.4,3.7,30.3z"/>
<path class="st0" d="M104,16.1c0-1-0.9-1.8-1.9-1.8s-1.8,0.9-1.8,1.9s0.9,1.8,1.9,1.8S104,17.2,104,16.1L104,16.1z"/>
<path class="st0" d="M87.3,16.1c0-1-0.9-1.8-1.9-1.8s-1.8,0.9-1.8,1.9s0.8,1.8,1.8,1.8C86.5,18,87.3,17.2,87.3,16.1L87.3,16.1z"/>
<path class="st0" d="M70.6,16.1c0-1-0.9-1.8-1.9-1.8s-1.8,0.9-1.8,1.9s0.8,1.8,1.8,1.8S70.6,17.2,70.6,16.1L70.6,16.1z"/>
<path class="st0" d="M53.9,16.1c0-1-0.9-1.8-1.9-1.8s-1.8,0.9-1.8,1.9S51,18,52.1,18C53,18,53.9,17.2,53.9,16.1L53.9,16.1z"/>
<path class="st0" d="M37.1,16.1c0-1-0.9-1.8-1.9-1.8s-1.8,0.9-1.8,1.9s0.8,1.8,1.8,1.8C36.3,18,37.1,17.2,37.1,16.1L37.1,16.1z"/>
<path class="st0" d="M20.4,16.1c0-1-0.9-1.8-1.9-1.8s-1.8,0.9-1.8,1.9s0.8,1.8,1.8,1.8C19.6,18,20.4,17.2,20.4,16.1L20.4,16.1z"/>
<path class="st0" d="M3.7,16.1c0-1-0.9-1.8-1.9-1.8S0,15.2,0,16.2S0.8,18,1.8,18C2.9,18,3.7,17.2,3.7,16.1L3.7,16.1z"/>
<path class="st0" d="M3.7,1.8c0-1-0.9-1.8-1.9-1.8S0,0.9,0,1.9s0.8,1.8,1.8,1.8C2.9,3.7,3.7,2.9,3.7,1.8L3.7,1.8z"/>
<path class="st0" d="M104,1.8c0-1-0.9-1.8-1.9-1.8s-1.8,0.9-1.8,1.9s0.8,1.8,1.8,1.8C103.2,3.7,104,2.9,104,1.8L104,1.8z"/>
<path class="st0" d="M3.7,101.5c0-1-0.9-1.8-1.9-1.8S0,100.6,0,101.6s0.8,1.8,1.8,1.8C2.9,103.4,3.7,102.6,3.7,101.5L3.7,101.5z"/>
<path class="st0" d="M104,101.5c0-1-0.9-1.8-1.9-1.8s-1.8,0.9-1.8,1.9s0.8,1.8,1.8,1.8C103.2,103.4,104,102.6,104,101.5L104,101.5z"
	/>
<circle class="st0" cx="85.4" cy="1.9" r="1.8"/>
<circle class="st0" cx="68.7" cy="1.9" r="1.8"/>
<path class="st0" d="M53.9,1.9C53.9,0.8,53,0,52,0s-1.9,0.8-1.9,1.8s0.8,1.9,1.8,1.9l0,0C53,3.7,53.9,2.9,53.9,1.9L53.9,1.9z"/>
<path class="st0" d="M37.1,1.9c0-1-0.8-1.9-1.8-1.9s-1.9,0.8-1.9,1.9s0.8,1.9,1.9,1.9l0,0C36.3,3.7,37.1,2.9,37.1,1.9z"/>
<path class="st0" d="M20.4,1.9c0-1-0.8-1.9-1.9-1.9c-1,0-1.9,0.8-1.9,1.9s0.8,1.8,1.9,1.9S20.4,2.9,20.4,1.9L20.4,1.9z"/>
</svg>
