<svg xmlns="http://www.w3.org/2000/svg" viewBox="0 0 104.01 74.92"><defs><style>.cls-1{fill:#fff;}</style></defs><title>Ativo 2</title><g id="Camada_2" data-name="Camada 2"><g id="Layer_1" data-name="Layer 1"><path class="cls-1" d="M104,73.07a1.85,1.85,0,1,0-1.85,1.85A1.85,1.85,0,0,0,104,73.07Z"/><circle class="cls-1" cx="85.44" cy="73.07" r="1.85"/><circle class="cls-1" cx="68.72" cy="73.07" r="1.85"/><path class="cls-1" d="M53.86,73.07A1.86,1.86,0,1,0,52,74.92,1.85,1.85,0,0,0,53.86,73.07Z"/><path class="cls-1" d="M37.14,73.07a1.85,1.85,0,1,0-1.85,1.85A1.85,1.85,0,0,0,37.14,73.07Z"/><path class="cls-1" d="M20.42,73.07a1.85,1.85,0,1,0-1.85,1.85A1.85,1.85,0,0,0,20.42,73.07Z"/><circle class="cls-1" cx="1.85" cy="73.07" r="1.85"/><path class="cls-1" d="M104,58.83a1.85,1.85,0,1,0-1.85,1.85A1.85,1.85,0,0,0,104,58.83Z"/><path class="cls-1" d="M87.29,58.83a1.85,1.85,0,1,0-1.85,1.85A1.85,1.85,0,0,0,87.29,58.83Z"/><path class="cls-1" d="M70.57,58.83a1.85,1.85,0,1,0-1.85,1.85A1.85,1.85,0,0,0,70.57,58.83Z"/><path class="cls-1" d="M53.86,58.83A1.86,1.86,0,1,0,52,60.68,1.85,1.85,0,0,0,53.86,58.83Z"/><path class="cls-1" d="M37.14,58.83a1.85,1.85,0,1,0-1.85,1.85A1.85,1.85,0,0,0,37.14,58.83Z"/><path class="cls-1" d="M20.42,58.83a1.85,1.85,0,1,0-1.85,1.85A1.85,1.85,0,0,0,20.42,58.83Z"/><path class="cls-1" d="M3.7,58.83a1.85,1.85,0,1,0-1.85,1.85A1.85,1.85,0,0,0,3.7,58.83Z"/><path class="cls-1" d="M104,44.58a1.85,1.85,0,1,0-1.85,1.86A1.85,1.85,0,0,0,104,44.58Z"/><path class="cls-1" d="M87.29,44.58a1.85,1.85,0,1,0-1.85,1.86A1.85,1.85,0,0,0,87.29,44.58Z"/><path class="cls-1" d="M70.57,44.58a1.85,1.85,0,1,0-1.85,1.86A1.85,1.85,0,0,0,70.57,44.58Z"/><path class="cls-1" d="M53.86,44.58A1.86,1.86,0,1,0,52,46.44,1.85,1.85,0,0,0,53.86,44.58Z"/><path class="cls-1" d="M37.14,44.58a1.85,1.85,0,1,0-1.85,1.86A1.85,1.85,0,0,0,37.14,44.58Z"/><path class="cls-1" d="M20.42,44.58a1.85,1.85,0,1,0-1.85,1.86A1.85,1.85,0,0,0,20.42,44.58Z"/><path class="cls-1" d="M3.7,44.58a1.85,1.85,0,1,0-1.85,1.86A1.85,1.85,0,0,0,3.7,44.58Z"/><path class="cls-1" d="M104,30.34a1.85,1.85,0,1,0-1.85,1.85A1.85,1.85,0,0,0,104,30.34Z"/><path class="cls-1" d="M87.29,30.34a1.85,1.85,0,1,0-1.85,1.85A1.85,1.85,0,0,0,87.29,30.34Z"/><path class="cls-1" d="M70.57,30.34a1.85,1.85,0,1,0-1.85,1.85A1.85,1.85,0,0,0,70.57,30.34Z"/><path class="cls-1" d="M53.86,30.34A1.86,1.86,0,1,0,52,32.19,1.85,1.85,0,0,0,53.86,30.34Z"/><path class="cls-1" d="M37.14,30.34a1.85,1.85,0,1,0-1.85,1.85A1.85,1.85,0,0,0,37.14,30.34Z"/><path class="cls-1" d="M20.42,30.34a1.85,1.85,0,1,0-1.85,1.85A1.85,1.85,0,0,0,20.42,30.34Z"/><path class="cls-1" d="M3.7,30.34a1.85,1.85,0,1,0-1.85,1.85A1.85,1.85,0,0,0,3.7,30.34Z"/><path class="cls-1" d="M104,16.1A1.85,1.85,0,1,0,102.16,18,1.85,1.85,0,0,0,104,16.1Z"/><path class="cls-1" d="M87.29,16.1A1.85,1.85,0,1,0,85.44,18,1.85,1.85,0,0,0,87.29,16.1Z"/><path class="cls-1" d="M70.57,16.1A1.85,1.85,0,1,0,68.72,18,1.85,1.85,0,0,0,70.57,16.1Z"/><path class="cls-1" d="M53.86,16.1A1.86,1.86,0,1,0,52,18,1.85,1.85,0,0,0,53.86,16.1Z"/><path class="cls-1" d="M37.14,16.1A1.85,1.85,0,1,0,35.29,18,1.85,1.85,0,0,0,37.14,16.1Z"/><path class="cls-1" d="M20.42,16.1A1.85,1.85,0,1,0,18.57,18,1.85,1.85,0,0,0,20.42,16.1Z"/><path class="cls-1" d="M3.7,16.1A1.85,1.85,0,1,0,1.85,18,1.85,1.85,0,0,0,3.7,16.1Z"/><path class="cls-1" d="M104,1.85a1.85,1.85,0,1,0-1.85,1.85A1.85,1.85,0,0,0,104,1.85Z"/><circle class="cls-1" cx="85.44" cy="1.85" r="1.85"/><circle class="cls-1" cx="68.72" cy="1.85" r="1.85"/><path class="cls-1" d="M53.86,1.85A1.86,1.86,0,1,0,52,3.7,1.85,1.85,0,0,0,53.86,1.85Z"/><path class="cls-1" d="M37.14,1.85A1.85,1.85,0,1,0,35.29,3.7,1.85,1.85,0,0,0,37.14,1.85Z"/><path class="cls-1" d="M20.42,1.85A1.85,1.85,0,1,0,18.57,3.7,1.85,1.85,0,0,0,20.42,1.85Z"/><circle class="cls-1" cx="1.85" cy="1.85" r="1.85"/></g></g></svg>