<svg xmlns="http://www.w3.org/2000/svg" viewBox="0 0 355.72 305.16"><defs><style>.cls-1{fill:#2126b8;}</style></defs><title>Ativo 1</title><g id="Camada_2" data-name="Camada 2"><g id="Layer_1" data-name="Layer 1"><polygon class="cls-1" points="6.8 151.88 4.15 151.88 4.15 149.38 2.65 149.38 2.65 151.88 0 151.88 0 153.29 2.65 153.29 2.65 155.78 4.15 155.78 4.15 153.29 6.8 153.29 6.8 151.88"/><polygon class="cls-1" points="38.52 151.88 35.87 151.88 35.87 149.38 34.37 149.38 34.37 151.88 31.72 151.88 31.72 153.29 34.37 153.29 34.37 155.78 35.87 155.78 35.87 153.29 38.52 153.29 38.52 151.88"/><polygon class="cls-1" points="70.24 151.88 67.59 151.88 67.59 149.38 66.09 149.38 66.09 151.88 63.44 151.88 63.44 153.29 66.09 153.29 66.09 155.78 67.59 155.78 67.59 153.29 70.24 153.29 70.24 151.88"/><polygon class="cls-1" points="101.96 151.88 99.31 151.88 99.31 149.38 97.81 149.38 97.81 151.88 95.16 151.88 95.16 153.29 97.81 153.29 97.81 155.78 99.31 155.78 99.31 153.29 101.96 153.29 101.96 151.88"/><polygon class="cls-1" points="133.68 151.88 131.03 151.88 131.03 149.38 129.53 149.38 129.53 151.88 126.88 151.88 126.88 153.29 129.53 153.29 129.53 155.78 131.03 155.78 131.03 153.29 133.68 153.29 133.68 151.88"/><polygon class="cls-1" points="165.4 151.88 162.75 151.88 162.75 149.38 161.25 149.38 161.25 151.88 158.6 151.88 158.6 153.29 161.25 153.29 161.25 155.78 162.75 155.78 162.75 153.29 165.4 153.29 165.4 151.88"/><polygon class="cls-1" points="197.12 151.88 194.47 151.88 194.47 149.38 192.97 149.38 192.97 151.88 190.32 151.88 190.32 153.29 192.97 153.29 192.97 155.78 194.47 155.78 194.47 153.29 197.12 153.29 197.12 151.88"/><polygon class="cls-1" points="228.84 151.88 226.19 151.88 226.19 149.38 224.69 149.38 224.69 151.88 222.04 151.88 222.04 153.29 224.69 153.29 224.69 155.78 226.19 155.78 226.19 153.29 228.84 153.29 228.84 151.88"/><polygon class="cls-1" points="260.56 151.88 257.91 151.88 257.91 149.38 256.42 149.38 256.42 151.88 253.76 151.88 253.76 153.29 256.42 153.29 256.42 155.78 257.91 155.78 257.91 153.29 260.56 153.29 260.56 151.88"/><polygon class="cls-1" points="6.8 181.75 4.15 181.75 4.15 179.26 2.65 179.26 2.65 181.75 0 181.75 0 183.16 2.65 183.16 2.65 185.66 4.15 185.66 4.15 183.16 6.8 183.16 6.8 181.75"/><polygon class="cls-1" points="38.52 181.75 35.87 181.75 35.87 179.26 34.37 179.26 34.37 181.75 31.72 181.75 31.72 183.16 34.37 183.16 34.37 185.66 35.87 185.66 35.87 183.16 38.52 183.16 38.52 181.75"/><polygon class="cls-1" points="70.24 181.75 67.59 181.75 67.59 179.26 66.09 179.26 66.09 181.75 63.44 181.75 63.44 183.16 66.09 183.16 66.09 185.66 67.59 185.66 67.59 183.16 70.24 183.16 70.24 181.75"/><polygon class="cls-1" points="101.96 181.75 99.31 181.75 99.31 179.26 97.81 179.26 97.81 181.75 95.16 181.75 95.16 183.16 97.81 183.16 97.81 185.66 99.31 185.66 99.31 183.16 101.96 183.16 101.96 181.75"/><polygon class="cls-1" points="133.68 181.75 131.03 181.75 131.03 179.26 129.53 179.26 129.53 181.75 126.88 181.75 126.88 183.16 129.53 183.16 129.53 185.66 131.03 185.66 131.03 183.16 133.68 183.16 133.68 181.75"/><polygon class="cls-1" points="165.4 181.75 162.75 181.75 162.75 179.26 161.25 179.26 161.25 181.75 158.6 181.75 158.6 183.16 161.25 183.16 161.25 185.66 162.75 185.66 162.75 183.16 165.4 183.16 165.4 181.75"/><polygon class="cls-1" points="197.12 181.75 194.47 181.75 194.47 179.26 192.97 179.26 192.97 181.75 190.32 181.75 190.32 183.16 192.97 183.16 192.97 185.66 194.47 185.66 194.47 183.16 197.12 183.16 197.12 181.75"/><polygon class="cls-1" points="228.84 181.75 226.19 181.75 226.19 179.26 224.69 179.26 224.69 181.75 222.04 181.75 222.04 183.16 224.69 183.16 224.69 185.66 226.19 185.66 226.19 183.16 228.84 183.16 228.84 181.75"/><polygon class="cls-1" points="260.56 181.75 257.91 181.75 257.91 179.26 256.42 179.26 256.42 181.75 253.76 181.75 253.76 183.16 256.42 183.16 256.42 185.66 257.91 185.66 257.91 183.16 260.56 183.16 260.56 181.75"/><polygon class="cls-1" points="6.8 211.63 4.15 211.63 4.15 209.13 2.65 209.13 2.65 211.63 0 211.63 0 213.04 2.65 213.04 2.65 215.53 4.15 215.53 4.15 213.04 6.8 213.04 6.8 211.63"/><polygon class="cls-1" points="38.52 211.63 35.87 211.63 35.87 209.13 34.37 209.13 34.37 211.63 31.72 211.63 31.72 213.04 34.37 213.04 34.37 215.53 35.87 215.53 35.87 213.04 38.52 213.04 38.52 211.63"/><polygon class="cls-1" points="70.24 211.63 67.59 211.63 67.59 209.13 66.09 209.13 66.09 211.63 63.44 211.63 63.44 213.04 66.09 213.04 66.09 215.53 67.59 215.53 67.59 213.04 70.24 213.04 70.24 211.63"/><polygon class="cls-1" points="101.96 211.63 99.31 211.63 99.31 209.13 97.81 209.13 97.81 211.63 95.16 211.63 95.16 213.04 97.81 213.04 97.81 215.53 99.31 215.53 99.31 213.04 101.96 213.04 101.96 211.63"/><polygon class="cls-1" points="133.68 211.63 131.03 211.63 131.03 209.13 129.53 209.13 129.53 211.63 126.88 211.63 126.88 213.04 129.53 213.04 129.53 215.53 131.03 215.53 131.03 213.04 133.68 213.04 133.68 211.63"/><polygon class="cls-1" points="165.4 211.63 162.75 211.63 162.75 209.13 161.25 209.13 161.25 211.63 158.6 211.63 158.6 213.04 161.25 213.04 161.25 215.53 162.75 215.53 162.75 213.04 165.4 213.04 165.4 211.63"/><polygon class="cls-1" points="197.12 211.63 194.47 211.63 194.47 209.13 192.97 209.13 192.97 211.63 190.32 211.63 190.32 213.04 192.97 213.04 192.97 215.53 194.47 215.53 194.47 213.04 197.12 213.04 197.12 211.63"/><polygon class="cls-1" points="228.84 211.63 226.19 211.63 226.19 209.13 224.69 209.13 224.69 211.63 222.04 211.63 222.04 213.04 224.69 213.04 224.69 215.53 226.19 215.53 226.19 213.04 228.84 213.04 228.84 211.63"/><polygon class="cls-1" points="260.56 211.63 257.91 211.63 257.91 209.13 256.42 209.13 256.42 211.63 253.76 211.63 253.76 213.04 256.42 213.04 256.42 215.53 257.91 215.53 257.91 213.04 260.56 213.04 260.56 211.63"/><polygon class="cls-1" points="6.8 241.5 4.15 241.5 4.15 239.01 2.65 239.01 2.65 241.5 0 241.5 0 242.91 2.65 242.91 2.65 245.41 4.15 245.41 4.15 242.91 6.8 242.91 6.8 241.5"/><polygon class="cls-1" points="38.52 241.5 35.87 241.5 35.87 239.01 34.37 239.01 34.37 241.5 31.72 241.5 31.72 242.91 34.37 242.91 34.37 245.41 35.87 245.41 35.87 242.91 38.52 242.91 38.52 241.5"/><polygon class="cls-1" points="70.24 241.5 67.59 241.5 67.59 239.01 66.09 239.01 66.09 241.5 63.44 241.5 63.44 242.91 66.09 242.91 66.09 245.41 67.59 245.41 67.59 242.91 70.24 242.91 70.24 241.5"/><polygon class="cls-1" points="101.96 241.5 99.31 241.5 99.31 239.01 97.81 239.01 97.81 241.5 95.16 241.5 95.16 242.91 97.81 242.91 97.81 245.41 99.31 245.41 99.31 242.91 101.96 242.91 101.96 241.5"/><polygon class="cls-1" points="133.68 241.5 131.03 241.5 131.03 239.01 129.53 239.01 129.53 241.5 126.88 241.5 126.88 242.91 129.53 242.91 129.53 245.41 131.03 245.41 131.03 242.91 133.68 242.91 133.68 241.5"/><polygon class="cls-1" points="165.4 241.5 162.75 241.5 162.75 239.01 161.25 239.01 161.25 241.5 158.6 241.5 158.6 242.91 161.25 242.91 161.25 245.41 162.75 245.41 162.75 242.91 165.4 242.91 165.4 241.5"/><polygon class="cls-1" points="197.12 241.5 194.47 241.5 194.47 239.01 192.97 239.01 192.97 241.5 190.32 241.5 190.32 242.91 192.97 242.91 192.97 245.41 194.47 245.41 194.47 242.91 197.12 242.91 197.12 241.5"/><polygon class="cls-1" points="228.84 241.5 226.19 241.5 226.19 239.01 224.69 239.01 224.69 241.5 222.04 241.5 222.04 242.91 224.69 242.91 224.69 245.41 226.19 245.41 226.19 242.91 228.84 242.91 228.84 241.5"/><polygon class="cls-1" points="260.56 241.5 257.91 241.5 257.91 239.01 256.42 239.01 256.42 241.5 253.76 241.5 253.76 242.91 256.42 242.91 256.42 245.41 257.91 245.41 257.91 242.91 260.56 242.91 260.56 241.5"/><polygon class="cls-1" points="6.8 271.38 4.15 271.38 4.15 268.88 2.65 268.88 2.65 271.38 0 271.38 0 272.79 2.65 272.79 2.65 275.29 4.15 275.29 4.15 272.79 6.8 272.79 6.8 271.38"/><polygon class="cls-1" points="38.52 271.38 35.87 271.38 35.87 268.88 34.37 268.88 34.37 271.38 31.72 271.38 31.72 272.79 34.37 272.79 34.37 275.29 35.87 275.29 35.87 272.79 38.52 272.79 38.52 271.38"/><polygon class="cls-1" points="70.24 271.38 67.59 271.38 67.59 268.88 66.09 268.88 66.09 271.38 63.44 271.38 63.44 272.79 66.09 272.79 66.09 275.29 67.59 275.29 67.59 272.79 70.24 272.79 70.24 271.38"/><polygon class="cls-1" points="101.96 271.38 99.31 271.38 99.31 268.88 97.81 268.88 97.81 271.38 95.16 271.38 95.16 272.79 97.81 272.79 97.81 275.29 99.31 275.29 99.31 272.79 101.96 272.79 101.96 271.38"/><polygon class="cls-1" points="133.68 271.38 131.03 271.38 131.03 268.88 129.53 268.88 129.53 271.38 126.88 271.38 126.88 272.79 129.53 272.79 129.53 275.29 131.03 275.29 131.03 272.79 133.68 272.79 133.68 271.38"/><polygon class="cls-1" points="165.4 271.38 162.75 271.38 162.75 268.88 161.25 268.88 161.25 271.38 158.6 271.38 158.6 272.79 161.25 272.79 161.25 275.29 162.75 275.29 162.75 272.79 165.4 272.79 165.4 271.38"/><polygon class="cls-1" points="197.12 271.38 194.47 271.38 194.47 268.88 192.97 268.88 192.97 271.38 190.32 271.38 190.32 272.79 192.97 272.79 192.97 275.29 194.47 275.29 194.47 272.79 197.12 272.79 197.12 271.38"/><polygon class="cls-1" points="228.84 271.38 226.19 271.38 226.19 268.88 224.69 268.88 224.69 271.38 222.04 271.38 222.04 272.79 224.69 272.79 224.69 275.29 226.19 275.29 226.19 272.79 228.84 272.79 228.84 271.38"/><polygon class="cls-1" points="260.56 271.38 257.91 271.38 257.91 268.88 256.42 268.88 256.42 271.38 253.76 271.38 253.76 272.79 256.42 272.79 256.42 275.29 257.91 275.29 257.91 272.79 260.56 272.79 260.56 271.38"/><polygon class="cls-1" points="6.8 301.26 4.15 301.26 4.15 298.76 2.65 298.76 2.65 301.26 0 301.26 0 302.67 2.65 302.67 2.65 305.16 4.15 305.16 4.15 302.67 6.8 302.67 6.8 301.26"/><polygon class="cls-1" points="38.52 301.26 35.87 301.26 35.87 298.76 34.37 298.76 34.37 301.26 31.72 301.26 31.72 302.67 34.37 302.67 34.37 305.16 35.87 305.16 35.87 302.67 38.52 302.67 38.52 301.26"/><polygon class="cls-1" points="70.24 301.26 67.59 301.26 67.59 298.76 66.09 298.76 66.09 301.26 63.44 301.26 63.44 302.67 66.09 302.67 66.09 305.16 67.59 305.16 67.59 302.67 70.24 302.67 70.24 301.26"/><polygon class="cls-1" points="101.96 301.26 99.31 301.26 99.31 298.76 97.81 298.76 97.81 301.26 95.16 301.26 95.16 302.67 97.81 302.67 97.81 305.16 99.31 305.16 99.31 302.67 101.96 302.67 101.96 301.26"/><polygon class="cls-1" points="133.68 301.26 131.03 301.26 131.03 298.76 129.53 298.76 129.53 301.26 126.88 301.26 126.88 302.67 129.53 302.67 129.53 305.16 131.03 305.16 131.03 302.67 133.68 302.67 133.68 301.26"/><polygon class="cls-1" points="165.4 301.26 162.75 301.26 162.75 298.76 161.25 298.76 161.25 301.26 158.6 301.26 158.6 302.67 161.25 302.67 161.25 305.16 162.75 305.16 162.75 302.67 165.4 302.67 165.4 301.26"/><polygon class="cls-1" points="197.12 301.26 194.47 301.26 194.47 298.76 192.97 298.76 192.97 301.26 190.32 301.26 190.32 302.67 192.97 302.67 192.97 305.16 194.47 305.16 194.47 302.67 197.12 302.67 197.12 301.26"/><polygon class="cls-1" points="228.84 301.26 226.19 301.26 226.19 298.76 224.69 298.76 224.69 301.26 222.04 301.26 222.04 302.67 224.69 302.67 224.69 305.16 226.19 305.16 226.19 302.67 228.84 302.67 228.84 301.26"/><polygon class="cls-1" points="260.56 301.26 257.91 301.26 257.91 298.76 256.42 298.76 256.42 301.26 253.76 301.26 253.76 302.67 256.42 302.67 256.42 305.16 257.91 305.16 257.91 302.67 260.56 302.67 260.56 301.26"/><polygon class="cls-1" points="292.28 151.88 289.63 151.88 289.63 149.38 288.14 149.38 288.14 151.88 285.49 151.88 285.49 153.29 288.14 153.29 288.14 155.78 289.63 155.78 289.63 153.29 292.28 153.29 292.28 151.88"/><polygon class="cls-1" points="324 151.88 321.35 151.88 321.35 149.38 319.86 149.38 319.86 151.88 317.21 151.88 317.21 153.29 319.86 153.29 319.86 155.78 321.35 155.78 321.35 153.29 324 153.29 324 151.88"/><polygon class="cls-1" points="355.72 151.88 353.07 151.88 353.07 149.38 351.58 149.38 351.58 151.88 348.93 151.88 348.93 153.29 351.58 153.29 351.58 155.78 353.07 155.78 353.07 153.29 355.72 153.29 355.72 151.88"/><polygon class="cls-1" points="292.28 181.75 289.63 181.75 289.63 179.26 288.14 179.26 288.14 181.75 285.49 181.75 285.49 183.16 288.14 183.16 288.14 185.66 289.63 185.66 289.63 183.16 292.28 183.16 292.28 181.75"/><polygon class="cls-1" points="324 181.75 321.35 181.75 321.35 179.26 319.86 179.26 319.86 181.75 317.21 181.75 317.21 183.16 319.86 183.16 319.86 185.66 321.35 185.66 321.35 183.16 324 183.16 324 181.75"/><polygon class="cls-1" points="355.72 181.75 353.07 181.75 353.07 179.26 351.58 179.26 351.58 181.75 348.93 181.75 348.93 183.16 351.58 183.16 351.58 185.66 353.07 185.66 353.07 183.16 355.72 183.16 355.72 181.75"/><polygon class="cls-1" points="292.28 211.63 289.63 211.63 289.63 209.13 288.14 209.13 288.14 211.63 285.49 211.63 285.49 213.04 288.14 213.04 288.14 215.53 289.63 215.53 289.63 213.04 292.28 213.04 292.28 211.63"/><polygon class="cls-1" points="324 211.63 321.35 211.63 321.35 209.13 319.86 209.13 319.86 211.63 317.21 211.63 317.21 213.04 319.86 213.04 319.86 215.53 321.35 215.53 321.35 213.04 324 213.04 324 211.63"/><polygon class="cls-1" points="355.72 211.63 353.07 211.63 353.07 209.13 351.58 209.13 351.58 211.63 348.93 211.63 348.93 213.04 351.58 213.04 351.58 215.53 353.07 215.53 353.07 213.04 355.72 213.04 355.72 211.63"/><polygon class="cls-1" points="292.28 241.5 289.63 241.5 289.63 239.01 288.14 239.01 288.14 241.5 285.49 241.5 285.49 242.91 288.14 242.91 288.14 245.41 289.63 245.41 289.63 242.91 292.28 242.91 292.28 241.5"/><polygon class="cls-1" points="324 241.5 321.35 241.5 321.35 239.01 319.86 239.01 319.86 241.5 317.21 241.5 317.21 242.91 319.86 242.91 319.86 245.41 321.35 245.41 321.35 242.91 324 242.91 324 241.5"/><polygon class="cls-1" points="355.72 241.5 353.07 241.5 353.07 239.01 351.58 239.01 351.58 241.5 348.93 241.5 348.93 242.91 351.58 242.91 351.58 245.41 353.07 245.41 353.07 242.91 355.72 242.91 355.72 241.5"/><polygon class="cls-1" points="292.28 271.38 289.63 271.38 289.63 268.88 288.14 268.88 288.14 271.38 285.49 271.38 285.49 272.79 288.14 272.79 288.14 275.29 289.63 275.29 289.63 272.79 292.28 272.79 292.28 271.38"/><polygon class="cls-1" points="324 271.38 321.35 271.38 321.35 268.88 319.86 268.88 319.86 271.38 317.21 271.38 317.21 272.79 319.86 272.79 319.86 275.29 321.35 275.29 321.35 272.79 324 272.79 324 271.38"/><polygon class="cls-1" points="355.72 271.38 353.07 271.38 353.07 268.88 351.58 268.88 351.58 271.38 348.93 271.38 348.93 272.79 351.58 272.79 351.58 275.29 353.07 275.29 353.07 272.79 355.72 272.79 355.72 271.38"/><polygon class="cls-1" points="292.28 301.26 289.63 301.26 289.63 298.76 288.14 298.76 288.14 301.26 285.49 301.26 285.49 302.67 288.14 302.67 288.14 305.16 289.63 305.16 289.63 302.67 292.28 302.67 292.28 301.26"/><polygon class="cls-1" points="324 301.26 321.35 301.26 321.35 298.76 319.86 298.76 319.86 301.26 317.21 301.26 317.21 302.67 319.86 302.67 319.86 305.16 321.35 305.16 321.35 302.67 324 302.67 324 301.26"/><polygon class="cls-1" points="355.72 301.26 353.07 301.26 353.07 298.76 351.58 298.76 351.58 301.26 348.93 301.26 348.93 302.67 351.58 302.67 351.58 305.16 353.07 305.16 353.07 302.67 355.72 302.67 355.72 301.26"/><polygon class="cls-1" points="6.8 2.5 4.15 2.5 4.15 0 2.65 0 2.65 2.5 0 2.5 0 3.9 2.65 3.9 2.65 6.4 4.15 6.4 4.15 3.9 6.8 3.9 6.8 2.5"/><polygon class="cls-1" points="38.52 2.5 35.87 2.5 35.87 0 34.37 0 34.37 2.5 31.72 2.5 31.72 3.9 34.37 3.9 34.37 6.4 35.87 6.4 35.87 3.9 38.52 3.9 38.52 2.5"/><polygon class="cls-1" points="70.24 2.5 67.59 2.5 67.59 0 66.09 0 66.09 2.5 63.44 2.5 63.44 3.9 66.09 3.9 66.09 6.4 67.59 6.4 67.59 3.9 70.24 3.9 70.24 2.5"/><polygon class="cls-1" points="101.96 2.5 99.31 2.5 99.31 0 97.81 0 97.81 2.5 95.16 2.5 95.16 3.9 97.81 3.9 97.81 6.4 99.31 6.4 99.31 3.9 101.96 3.9 101.96 2.5"/><polygon class="cls-1" points="133.68 2.5 131.03 2.5 131.03 0 129.53 0 129.53 2.5 126.88 2.5 126.88 3.9 129.53 3.9 129.53 6.4 131.03 6.4 131.03 3.9 133.68 3.9 133.68 2.5"/><polygon class="cls-1" points="165.4 2.5 162.75 2.5 162.75 0 161.25 0 161.25 2.5 158.6 2.5 158.6 3.9 161.25 3.9 161.25 6.4 162.75 6.4 162.75 3.9 165.4 3.9 165.4 2.5"/><polygon class="cls-1" points="197.12 2.5 194.47 2.5 194.47 0 192.97 0 192.97 2.5 190.32 2.5 190.32 3.9 192.97 3.9 192.97 6.4 194.47 6.4 194.47 3.9 197.12 3.9 197.12 2.5"/><polygon class="cls-1" points="228.84 2.5 226.19 2.5 226.19 0 224.69 0 224.69 2.5 222.04 2.5 222.04 3.9 224.69 3.9 224.69 6.4 226.19 6.4 226.19 3.9 228.84 3.9 228.84 2.5"/><polygon class="cls-1" points="260.56 2.5 257.91 2.5 257.91 0 256.42 0 256.42 2.5 253.76 2.5 253.76 3.9 256.42 3.9 256.42 6.4 257.91 6.4 257.91 3.9 260.56 3.9 260.56 2.5"/><polygon class="cls-1" points="6.8 32.37 4.15 32.37 4.15 29.88 2.65 29.88 2.65 32.37 0 32.37 0 33.78 2.65 33.78 2.65 36.28 4.15 36.28 4.15 33.78 6.8 33.78 6.8 32.37"/><polygon class="cls-1" points="38.52 32.37 35.87 32.37 35.87 29.88 34.37 29.88 34.37 32.37 31.72 32.37 31.72 33.78 34.37 33.78 34.37 36.28 35.87 36.28 35.87 33.78 38.52 33.78 38.52 32.37"/><polygon class="cls-1" points="70.24 32.37 67.59 32.37 67.59 29.88 66.09 29.88 66.09 32.37 63.44 32.37 63.44 33.78 66.09 33.78 66.09 36.28 67.59 36.28 67.59 33.78 70.24 33.78 70.24 32.37"/><polygon class="cls-1" points="101.96 32.37 99.31 32.37 99.31 29.88 97.81 29.88 97.81 32.37 95.16 32.37 95.16 33.78 97.81 33.78 97.81 36.28 99.31 36.28 99.31 33.78 101.96 33.78 101.96 32.37"/><polygon class="cls-1" points="133.68 32.37 131.03 32.37 131.03 29.88 129.53 29.88 129.53 32.37 126.88 32.37 126.88 33.78 129.53 33.78 129.53 36.28 131.03 36.28 131.03 33.78 133.68 33.78 133.68 32.37"/><polygon class="cls-1" points="165.4 32.37 162.75 32.37 162.75 29.88 161.25 29.88 161.25 32.37 158.6 32.37 158.6 33.78 161.25 33.78 161.25 36.28 162.75 36.28 162.75 33.78 165.4 33.78 165.4 32.37"/><polygon class="cls-1" points="197.12 32.37 194.47 32.37 194.47 29.88 192.97 29.88 192.97 32.37 190.32 32.37 190.32 33.78 192.97 33.78 192.97 36.28 194.47 36.28 194.47 33.78 197.12 33.78 197.12 32.37"/><polygon class="cls-1" points="228.84 32.37 226.19 32.37 226.19 29.88 224.69 29.88 224.69 32.37 222.04 32.37 222.04 33.78 224.69 33.78 224.69 36.28 226.19 36.28 226.19 33.78 228.84 33.78 228.84 32.37"/><polygon class="cls-1" points="260.56 32.37 257.91 32.37 257.91 29.88 256.42 29.88 256.42 32.37 253.76 32.37 253.76 33.78 256.42 33.78 256.42 36.28 257.91 36.28 257.91 33.78 260.56 33.78 260.56 32.37"/><polygon class="cls-1" points="6.8 62.25 4.15 62.25 4.15 59.75 2.65 59.75 2.65 62.25 0 62.25 0 63.66 2.65 63.66 2.65 66.15 4.15 66.15 4.15 63.66 6.8 63.66 6.8 62.25"/><polygon class="cls-1" points="38.52 62.25 35.87 62.25 35.87 59.75 34.37 59.75 34.37 62.25 31.72 62.25 31.72 63.66 34.37 63.66 34.37 66.15 35.87 66.15 35.87 63.66 38.52 63.66 38.52 62.25"/><polygon class="cls-1" points="70.24 62.25 67.59 62.25 67.59 59.75 66.09 59.75 66.09 62.25 63.44 62.25 63.44 63.66 66.09 63.66 66.09 66.15 67.59 66.15 67.59 63.66 70.24 63.66 70.24 62.25"/><polygon class="cls-1" points="101.96 62.25 99.31 62.25 99.31 59.75 97.81 59.75 97.81 62.25 95.16 62.25 95.16 63.66 97.81 63.66 97.81 66.15 99.31 66.15 99.31 63.66 101.96 63.66 101.96 62.25"/><polygon class="cls-1" points="133.68 62.25 131.03 62.25 131.03 59.75 129.53 59.75 129.53 62.25 126.88 62.25 126.88 63.66 129.53 63.66 129.53 66.15 131.03 66.15 131.03 63.66 133.68 63.66 133.68 62.25"/><polygon class="cls-1" points="165.4 62.25 162.75 62.25 162.75 59.75 161.25 59.75 161.25 62.25 158.6 62.25 158.6 63.66 161.25 63.66 161.25 66.15 162.75 66.15 162.75 63.66 165.4 63.66 165.4 62.25"/><polygon class="cls-1" points="197.12 62.25 194.47 62.25 194.47 59.75 192.97 59.75 192.97 62.25 190.32 62.25 190.32 63.66 192.97 63.66 192.97 66.15 194.47 66.15 194.47 63.66 197.12 63.66 197.12 62.25"/><polygon class="cls-1" points="228.84 62.25 226.19 62.25 226.19 59.75 224.69 59.75 224.69 62.25 222.04 62.25 222.04 63.66 224.69 63.66 224.69 66.15 226.19 66.15 226.19 63.66 228.84 63.66 228.84 62.25"/><polygon class="cls-1" points="260.56 62.25 257.91 62.25 257.91 59.75 256.42 59.75 256.42 62.25 253.76 62.25 253.76 63.66 256.42 63.66 256.42 66.15 257.91 66.15 257.91 63.66 260.56 63.66 260.56 62.25"/><polygon class="cls-1" points="6.8 92.13 4.15 92.13 4.15 89.63 2.65 89.63 2.65 92.13 0 92.13 0 93.53 2.65 93.53 2.65 96.03 4.15 96.03 4.15 93.53 6.8 93.53 6.8 92.13"/><polygon class="cls-1" points="38.52 92.13 35.87 92.13 35.87 89.63 34.37 89.63 34.37 92.13 31.72 92.13 31.72 93.53 34.37 93.53 34.37 96.03 35.87 96.03 35.87 93.53 38.52 93.53 38.52 92.13"/><polygon class="cls-1" points="70.24 92.13 67.59 92.13 67.59 89.63 66.09 89.63 66.09 92.13 63.44 92.13 63.44 93.53 66.09 93.53 66.09 96.03 67.59 96.03 67.59 93.53 70.24 93.53 70.24 92.13"/><polygon class="cls-1" points="101.96 92.13 99.31 92.13 99.31 89.63 97.81 89.63 97.81 92.13 95.16 92.13 95.16 93.53 97.81 93.53 97.81 96.03 99.31 96.03 99.31 93.53 101.96 93.53 101.96 92.13"/><polygon class="cls-1" points="133.68 92.13 131.03 92.13 131.03 89.63 129.53 89.63 129.53 92.13 126.88 92.13 126.88 93.53 129.53 93.53 129.53 96.03 131.03 96.03 131.03 93.53 133.68 93.53 133.68 92.13"/><polygon class="cls-1" points="165.4 92.13 162.75 92.13 162.75 89.63 161.25 89.63 161.25 92.13 158.6 92.13 158.6 93.53 161.25 93.53 161.25 96.03 162.75 96.03 162.75 93.53 165.4 93.53 165.4 92.13"/><polygon class="cls-1" points="197.12 92.13 194.47 92.13 194.47 89.63 192.97 89.63 192.97 92.13 190.32 92.13 190.32 93.53 192.97 93.53 192.97 96.03 194.47 96.03 194.47 93.53 197.12 93.53 197.12 92.13"/><polygon class="cls-1" points="228.84 92.13 226.19 92.13 226.19 89.63 224.69 89.63 224.69 92.13 222.04 92.13 222.04 93.53 224.69 93.53 224.69 96.03 226.19 96.03 226.19 93.53 228.84 93.53 228.84 92.13"/><polygon class="cls-1" points="260.56 92.13 257.91 92.13 257.91 89.63 256.42 89.63 256.42 92.13 253.76 92.13 253.76 93.53 256.42 93.53 256.42 96.03 257.91 96.03 257.91 93.53 260.56 93.53 260.56 92.13"/><polygon class="cls-1" points="6.8 122 4.15 122 4.15 119.5 2.65 119.5 2.65 122 0 122 0 123.41 2.65 123.41 2.65 125.91 4.15 125.91 4.15 123.41 6.8 123.41 6.8 122"/><polygon class="cls-1" points="38.52 122 35.87 122 35.87 119.5 34.37 119.5 34.37 122 31.72 122 31.72 123.41 34.37 123.41 34.37 125.91 35.87 125.91 35.87 123.41 38.52 123.41 38.52 122"/><polygon class="cls-1" points="70.24 122 67.59 122 67.59 119.5 66.09 119.5 66.09 122 63.44 122 63.44 123.41 66.09 123.41 66.09 125.91 67.59 125.91 67.59 123.41 70.24 123.41 70.24 122"/><polygon class="cls-1" points="101.96 122 99.31 122 99.31 119.5 97.81 119.5 97.81 122 95.16 122 95.16 123.41 97.81 123.41 97.81 125.91 99.31 125.91 99.31 123.41 101.96 123.41 101.96 122"/><polygon class="cls-1" points="133.68 122 131.03 122 131.03 119.5 129.53 119.5 129.53 122 126.88 122 126.88 123.41 129.53 123.41 129.53 125.91 131.03 125.91 131.03 123.41 133.68 123.41 133.68 122"/><polygon class="cls-1" points="165.4 122 162.75 122 162.75 119.5 161.25 119.5 161.25 122 158.6 122 158.6 123.41 161.25 123.41 161.25 125.91 162.75 125.91 162.75 123.41 165.4 123.41 165.4 122"/><polygon class="cls-1" points="197.12 122 194.47 122 194.47 119.5 192.97 119.5 192.97 122 190.32 122 190.32 123.41 192.97 123.41 192.97 125.91 194.47 125.91 194.47 123.41 197.12 123.41 197.12 122"/><polygon class="cls-1" points="228.84 122 226.19 122 226.19 119.5 224.69 119.5 224.69 122 222.04 122 222.04 123.41 224.69 123.41 224.69 125.91 226.19 125.91 226.19 123.41 228.84 123.41 228.84 122"/><polygon class="cls-1" points="260.56 122 257.91 122 257.91 119.5 256.42 119.5 256.42 122 253.76 122 253.76 123.41 256.42 123.41 256.42 125.91 257.91 125.91 257.91 123.41 260.56 123.41 260.56 122"/><polygon class="cls-1" points="292.28 2.5 289.63 2.5 289.63 0 288.14 0 288.14 2.5 285.49 2.5 285.49 3.9 288.14 3.9 288.14 6.4 289.63 6.4 289.63 3.9 292.28 3.9 292.28 2.5"/><polygon class="cls-1" points="324 2.5 321.35 2.5 321.35 0 319.86 0 319.86 2.5 317.21 2.5 317.21 3.9 319.86 3.9 319.86 6.4 321.35 6.4 321.35 3.9 324 3.9 324 2.5"/><polygon class="cls-1" points="355.72 2.5 353.07 2.5 353.07 0 351.58 0 351.58 2.5 348.93 2.5 348.93 3.9 351.58 3.9 351.58 6.4 353.07 6.4 353.07 3.9 355.72 3.9 355.72 2.5"/><polygon class="cls-1" points="292.28 32.37 289.63 32.37 289.63 29.88 288.14 29.88 288.14 32.37 285.49 32.37 285.49 33.78 288.14 33.78 288.14 36.28 289.63 36.28 289.63 33.78 292.28 33.78 292.28 32.37"/><polygon class="cls-1" points="324 32.37 321.35 32.37 321.35 29.88 319.86 29.88 319.86 32.37 317.21 32.37 317.21 33.78 319.86 33.78 319.86 36.28 321.35 36.28 321.35 33.78 324 33.78 324 32.37"/><polygon class="cls-1" points="355.72 32.37 353.07 32.37 353.07 29.88 351.58 29.88 351.58 32.37 348.93 32.37 348.93 33.78 351.58 33.78 351.58 36.28 353.07 36.28 353.07 33.78 355.72 33.78 355.72 32.37"/><polygon class="cls-1" points="292.28 62.25 289.63 62.25 289.63 59.75 288.14 59.75 288.14 62.25 285.49 62.25 285.49 63.66 288.14 63.66 288.14 66.15 289.63 66.15 289.63 63.66 292.28 63.66 292.28 62.25"/><polygon class="cls-1" points="324 62.25 321.35 62.25 321.35 59.75 319.86 59.75 319.86 62.25 317.21 62.25 317.21 63.66 319.86 63.66 319.86 66.15 321.35 66.15 321.35 63.66 324 63.66 324 62.25"/><polygon class="cls-1" points="355.72 62.25 353.07 62.25 353.07 59.75 351.58 59.75 351.58 62.25 348.93 62.25 348.93 63.66 351.58 63.66 351.58 66.15 353.07 66.15 353.07 63.66 355.72 63.66 355.72 62.25"/><polygon class="cls-1" points="292.28 92.13 289.63 92.13 289.63 89.63 288.14 89.63 288.14 92.13 285.49 92.13 285.49 93.53 288.14 93.53 288.14 96.03 289.63 96.03 289.63 93.53 292.28 93.53 292.28 92.13"/><polygon class="cls-1" points="324 92.13 321.35 92.13 321.35 89.63 319.86 89.63 319.86 92.13 317.21 92.13 317.21 93.53 319.86 93.53 319.86 96.03 321.35 96.03 321.35 93.53 324 93.53 324 92.13"/><polygon class="cls-1" points="355.72 92.13 353.07 92.13 353.07 89.63 351.58 89.63 351.58 92.13 348.93 92.13 348.93 93.53 351.58 93.53 351.58 96.03 353.07 96.03 353.07 93.53 355.72 93.53 355.72 92.13"/><polygon class="cls-1" points="292.28 122 289.63 122 289.63 119.5 288.14 119.5 288.14 122 285.49 122 285.49 123.41 288.14 123.41 288.14 125.91 289.63 125.91 289.63 123.41 292.28 123.41 292.28 122"/><polygon class="cls-1" points="324 122 321.35 122 321.35 119.5 319.86 119.5 319.86 122 317.21 122 317.21 123.41 319.86 123.41 319.86 125.91 321.35 125.91 321.35 123.41 324 123.41 324 122"/><polygon class="cls-1" points="355.72 122 353.07 122 353.07 119.5 351.58 119.5 351.58 122 348.93 122 348.93 123.41 351.58 123.41 351.58 125.91 353.07 125.91 353.07 123.41 355.72 123.41 355.72 122"/></g></g></svg>