<svg xmlns="http://www.w3.org/2000/svg" xmlns:xlink="http://www.w3.org/1999/xlink" viewBox="0 0 484.9 437.75"><defs><style>.cls-1{fill:#2126b8;}.cls-2{fill:url(#Degradado_sin_nombre_266);}.cls-3{fill:url(#Degradado_sin_nombre_265);}.cls-154,.cls-4{fill:#fff;}.cls-5{fill:url(#Degradado_sin_nombre_266-2);}.cls-6{fill:url(#Degradado_sin_nombre_314);}.cls-7{fill:url(#Degradado_sin_nombre_314-2);}.cls-8{fill:url(#Degradado_sin_nombre_313);}.cls-9{fill:url(#Degradado_sin_nombre_312);}.cls-10{fill:url(#Degradado_sin_nombre_264);}.cls-11{fill:url(#Degradado_sin_nombre_264-2);}.cls-12{fill:url(#Degradado_sin_nombre_311);}.cls-13{fill:url(#Degradado_sin_nombre_310);}.cls-14{fill:#91b3fa;}.cls-15{fill:#bdd0fb;}.cls-16{fill:#7d97f4;}.cls-17{fill:url(#linear-gradient);}.cls-18{fill:url(#linear-gradient-2);}.cls-19{fill:url(#linear-gradient-3);}.cls-20{fill:url(#linear-gradient-4);}.cls-21{fill:url(#linear-gradient-5);}.cls-22{fill:url(#linear-gradient-6);}.cls-23{fill:url(#linear-gradient-7);}.cls-24{fill:url(#linear-gradient-8);}.cls-25{fill:url(#linear-gradient-9);}.cls-26{fill:url(#linear-gradient-10);}.cls-27{fill:url(#linear-gradient-11);}.cls-28{fill:url(#linear-gradient-12);}.cls-29{fill:url(#linear-gradient-13);}.cls-30{fill:url(#linear-gradient-14);}.cls-31{fill:url(#linear-gradient-15);}.cls-32{fill:url(#linear-gradient-16);}.cls-33{fill:url(#linear-gradient-17);}.cls-34{fill:url(#linear-gradient-18);}.cls-35{fill:url(#linear-gradient-19);}.cls-36{fill:url(#linear-gradient-20);}.cls-37{fill:url(#linear-gradient-21);}.cls-38{fill:url(#linear-gradient-22);}.cls-39{fill:url(#linear-gradient-23);}.cls-40{fill:url(#linear-gradient-24);}.cls-41{fill:url(#linear-gradient-25);}.cls-42{fill:url(#linear-gradient-26);}.cls-43{fill:url(#linear-gradient-27);}.cls-44{fill:url(#linear-gradient-28);}.cls-45{fill:url(#linear-gradient-29);}.cls-46{fill:url(#linear-gradient-30);}.cls-47{fill:url(#linear-gradient-31);}.cls-48{fill:url(#linear-gradient-32);}.cls-49{fill:url(#linear-gradient-33);}.cls-50{fill:url(#linear-gradient-34);}.cls-51{fill:url(#linear-gradient-35);}.cls-52{fill:url(#linear-gradient-36);}.cls-53{fill:url(#linear-gradient-37);}.cls-54{fill:url(#linear-gradient-38);}.cls-55{fill:url(#linear-gradient-39);}.cls-56{fill:url(#linear-gradient-40);}.cls-57{fill:url(#linear-gradient-41);}.cls-58{fill:url(#linear-gradient-42);}.cls-59{fill:url(#linear-gradient-43);}.cls-60{fill:url(#linear-gradient-44);}.cls-61{fill:url(#linear-gradient-45);}.cls-62{fill:url(#linear-gradient-46);}.cls-63{fill:url(#linear-gradient-47);}.cls-64{fill:url(#linear-gradient-48);}.cls-65{fill:url(#linear-gradient-49);}.cls-66{fill:url(#linear-gradient-50);}.cls-67{fill:url(#linear-gradient-51);}.cls-68{fill:url(#linear-gradient-52);}.cls-69{fill:url(#linear-gradient-53);}.cls-70{fill:url(#linear-gradient-54);}.cls-71{fill:url(#linear-gradient-55);}.cls-72{fill:url(#linear-gradient-56);}.cls-73{fill:url(#linear-gradient-57);}.cls-74{fill:url(#linear-gradient-58);}.cls-75{fill:url(#linear-gradient-59);}.cls-76{fill:url(#linear-gradient-60);}.cls-77{fill:url(#linear-gradient-61);}.cls-78{fill:url(#linear-gradient-62);}.cls-79{fill:url(#linear-gradient-63);}.cls-80{fill:url(#linear-gradient-64);}.cls-81{fill:url(#linear-gradient-65);}.cls-82{fill:url(#linear-gradient-66);}.cls-83{fill:url(#linear-gradient-67);}.cls-84{fill:url(#linear-gradient-68);}.cls-85{fill:url(#linear-gradient-69);}.cls-86{fill:url(#linear-gradient-70);}.cls-87{fill:url(#linear-gradient-71);}.cls-88{fill:#4a017d;}.cls-89{fill:url(#linear-gradient-72);}.cls-90{fill:url(#linear-gradient-73);}.cls-91{fill:url(#linear-gradient-74);}.cls-92{fill:url(#linear-gradient-75);}.cls-93{fill:url(#linear-gradient-76);}.cls-94{fill:url(#linear-gradient-77);}.cls-95{fill:url(#linear-gradient-78);}.cls-96{fill:url(#linear-gradient-79);}.cls-97{fill:url(#linear-gradient-80);}.cls-98{fill:url(#linear-gradient-81);}.cls-99{fill:url(#linear-gradient-82);}.cls-100{fill:url(#linear-gradient-83);}.cls-101{fill:url(#linear-gradient-84);}.cls-102{fill:url(#linear-gradient-85);}.cls-103{opacity:0.34;fill:url(#linear-gradient-86);}.cls-104{fill:url(#linear-gradient-87);}.cls-105{fill:url(#linear-gradient-88);}.cls-106{fill:url(#linear-gradient-89);}.cls-107{fill:url(#linear-gradient-90);}.cls-108{fill:url(#linear-gradient-91);}.cls-109{fill:url(#linear-gradient-92);}.cls-110{fill:url(#linear-gradient-93);}.cls-111{fill:url(#linear-gradient-94);}.cls-112{fill:url(#linear-gradient-95);}.cls-113{fill:url(#linear-gradient-96);}.cls-114{fill:url(#linear-gradient-97);}.cls-115{fill:url(#linear-gradient-98);}.cls-116{fill:url(#linear-gradient-99);}.cls-117{fill:url(#linear-gradient-100);}.cls-118{fill:url(#linear-gradient-101);}.cls-119{fill:url(#linear-gradient-102);}.cls-120{fill:url(#linear-gradient-103);}.cls-121{fill:url(#linear-gradient-104);}.cls-122{fill:url(#linear-gradient-105);}.cls-123{fill:url(#linear-gradient-106);}.cls-124{fill:url(#linear-gradient-107);}.cls-125{fill:#1eb1e9;}.cls-126{fill:url(#linear-gradient-108);}.cls-127{fill:url(#linear-gradient-109);}.cls-128{fill:url(#linear-gradient-110);}.cls-129{fill:url(#linear-gradient-111);}.cls-130{fill:url(#linear-gradient-112);}.cls-131{fill:url(#linear-gradient-113);}.cls-132{fill:url(#linear-gradient-114);}.cls-133{fill:url(#linear-gradient-115);}.cls-134{fill:url(#linear-gradient-116);}.cls-135{fill:url(#linear-gradient-117);}.cls-136{fill:url(#linear-gradient-118);}.cls-137{fill:url(#linear-gradient-119);}.cls-138{fill:url(#linear-gradient-120);}.cls-139{fill:url(#linear-gradient-121);}.cls-140{fill:url(#linear-gradient-122);}.cls-141{fill:url(#linear-gradient-123);}.cls-142{fill:url(#linear-gradient-124);}.cls-143{fill:url(#linear-gradient-125);}.cls-144{fill:url(#linear-gradient-126);}.cls-145{fill:url(#linear-gradient-127);}.cls-146{fill:url(#linear-gradient-128);}.cls-147{fill:url(#linear-gradient-129);}.cls-148{fill:url(#linear-gradient-130);}.cls-149{fill:url(#linear-gradient-131);}.cls-150{fill:url(#linear-gradient-132);}.cls-151{fill:url(#linear-gradient-133);}.cls-152{fill:url(#linear-gradient-134);}.cls-153{fill:url(#linear-gradient-135);}.cls-154{opacity:0.2;}.cls-155{fill:url(#linear-gradient-136);}</style><linearGradient id="Degradado_sin_nombre_266" x1="94.14" y1="50.44" x2="384.4" y2="340.7" gradientUnits="userSpaceOnUse"><stop offset="0" stop-color="#f5d400"/><stop offset="1" stop-color="#dc00ae"/></linearGradient><linearGradient id="Degradado_sin_nombre_265" x1="56.11" y1="217.52" x2="416" y2="217.52" gradientUnits="userSpaceOnUse"><stop offset="0" stop-color="#dd00d1"/><stop offset="1" stop-color="#5931c8"/></linearGradient><linearGradient id="Degradado_sin_nombre_266-2" x1="-1800.08" y1="178.69" x2="-1509.79" y2="468.98" gradientTransform="translate(-1287.44 -482.78) rotate(-143.53)" xlink:href="#Degradado_sin_nombre_266"/><linearGradient id="Degradado_sin_nombre_314" x1="517.42" y1="-189.45" x2="517.42" y2="-273.9" gradientTransform="translate(-205.23 -70.69) rotate(35.21)" gradientUnits="userSpaceOnUse"><stop offset="0" stop-color="#81eafe"/><stop offset="1" stop-color="#619ef5"/></linearGradient><linearGradient id="Degradado_sin_nombre_314-2" x1="404.92" y1="837.48" x2="404.92" y2="794.43" gradientTransform="translate(-211.17 -724.25) rotate(-6.96)" xlink:href="#Degradado_sin_nombre_314"/><linearGradient id="Degradado_sin_nombre_313" x1="271.02" y1="397.44" x2="314.67" y2="353.78" gradientUnits="userSpaceOnUse"><stop offset="0" stop-color="#619ef5"/><stop offset="1" stop-color="#81eafe"/></linearGradient><linearGradient id="Degradado_sin_nombre_312" x1="159.47" y1="21.28" x2="184.63" y2="46.45" gradientTransform="translate(165.24 -141.35) rotate(76.64)" gradientUnits="userSpaceOnUse"><stop offset="0" stop-color="#7e23cb"/><stop offset="1" stop-color="#dd00d1"/></linearGradient><linearGradient id="Degradado_sin_nombre_264" x1="-1025.83" y1="694.13" x2="-1025.83" y2="599.11" gradientTransform="translate(-1060.91 -5.64) rotate(-129.63)" gradientUnits="userSpaceOnUse"><stop offset="0" stop-color="#b0ff68"/><stop offset="1" stop-color="#f5d400"/></linearGradient><linearGradient id="Degradado_sin_nombre_264-2" x1="-1407.9" y1="135.71" x2="-1407.9" y2="87.28" gradientTransform="matrix(-0.97, -0.23, 0.23, -0.97, -1249.77, 192.3)" xlink:href="#Degradado_sin_nombre_264"/><linearGradient id="Degradado_sin_nombre_311" x1="50.97" y1="325.56" x2="77.52" y2="299.02" gradientUnits="userSpaceOnUse"><stop offset="0" stop-color="#1eb1e9"/><stop offset="0.43" stop-color="#81eafe"/><stop offset="1" stop-color="#d0ffff"/></linearGradient><linearGradient id="Degradado_sin_nombre_310" x1="401.26" y1="132.6" x2="427.8" y2="106.05" gradientUnits="userSpaceOnUse"><stop offset="0" stop-color="#f5d400"/><stop offset="1" stop-color="#b0ff68"/></linearGradient><linearGradient id="linear-gradient" x1="27.34" y1="295.11" x2="82.9" y2="295.11" gradientUnits="userSpaceOnUse"><stop offset="0" stop-color="#dae3fe"/><stop offset="1" stop-color="#e9effd"/></linearGradient><linearGradient id="linear-gradient-2" x1="28.07" y1="301.18" x2="77.01" y2="301.18" xlink:href="#linear-gradient"/><linearGradient id="linear-gradient-3" x1="15.35" y1="332.32" x2="87.06" y2="332.32" xlink:href="#linear-gradient"/><linearGradient id="linear-gradient-4" x1="16.85" y1="315.24" x2="86.25" y2="315.24" xlink:href="#linear-gradient"/><linearGradient id="linear-gradient-5" x1="495.26" y1="81.83" x2="143.67" y2="296.93" gradientUnits="userSpaceOnUse"><stop offset="0" stop-color="#09005d"/><stop offset="1" stop-color="#1a0f91"/></linearGradient><linearGradient id="linear-gradient-6" x1="152.62" y1="339.87" x2="-106.57" y2="632.75" gradientUnits="userSpaceOnUse"><stop offset="0" stop-color="#4042e2"/><stop offset="1" stop-color="#4f52ff"/></linearGradient><linearGradient id="linear-gradient-7" x1="237.34" y1="226.14" x2="243.09" y2="346.16" xlink:href="#linear-gradient-5"/><linearGradient id="linear-gradient-8" x1="315.84" y1="135.25" x2="286.3" y2="175.72" xlink:href="#linear-gradient"/><linearGradient id="linear-gradient-9" x1="447.48" y1="-42.24" x2="382.03" y2="30.33" xlink:href="#linear-gradient-6"/><linearGradient id="linear-gradient-10" x1="470.92" y1="-21.1" x2="405.48" y2="51.47" xlink:href="#linear-gradient-6"/><linearGradient id="linear-gradient-11" x1="405.64" y1="-79.96" x2="340.2" y2="-7.39" xlink:href="#linear-gradient-6"/><linearGradient id="linear-gradient-12" x1="513.78" y1="17.56" x2="448.34" y2="90.13" xlink:href="#linear-gradient-6"/><linearGradient id="linear-gradient-13" x1="509.41" y1="13.61" x2="443.97" y2="86.18" xlink:href="#linear-gradient-6"/><linearGradient id="linear-gradient-14" x1="542.53" y1="44.38" x2="477.09" y2="116.95" xlink:href="#linear-gradient-6"/><linearGradient id="linear-gradient-15" x1="570.18" y1="72.92" x2="504.74" y2="145.5" xlink:href="#linear-gradient-6"/><linearGradient id="linear-gradient-16" x1="-6254.77" y1="231.34" x2="-6263.21" y2="257.22" gradientTransform="matrix(-1, 0, 0, 1, -6009.73, 0)" gradientUnits="userSpaceOnUse"><stop offset="0" stop-color="#ff928e"/><stop offset="1" stop-color="#feb3b1"/></linearGradient><linearGradient id="linear-gradient-17" x1="-6256.56" y1="323.31" x2="-6238.76" y2="323.31" xlink:href="#linear-gradient-16"/><linearGradient id="linear-gradient-18" x1="-5824.09" y1="206.34" x2="-5785.22" y2="193.82" gradientTransform="matrix(-1, 0, 0, 1, -6009.73, 0)" xlink:href="#linear-gradient-5"/><linearGradient id="linear-gradient-19" x1="-5824.78" y1="204.19" x2="-5785.91" y2="191.66" gradientTransform="matrix(-1, 0, 0, 1, -6009.73, 0)" xlink:href="#linear-gradient-5"/><linearGradient id="linear-gradient-20" x1="-6267.35" y1="324.64" x2="-6257.05" y2="324.64" xlink:href="#linear-gradient-16"/><linearGradient id="linear-gradient-21" x1="-6289.55" y1="247.34" x2="-6269.38" y2="247.34" xlink:href="#linear-gradient-16"/><linearGradient id="linear-gradient-22" x1="-6253.76" y1="285.41" x2="-6215.94" y2="360.31" gradientTransform="matrix(-1, 0, 0, 1, -6009.73, 0)" gradientUnits="userSpaceOnUse"><stop offset="0" stop-color="#fe7062"/><stop offset="1" stop-color="#ff928e"/></linearGradient><linearGradient id="linear-gradient-23" x1="-6266.72" y1="289.07" x2="-6233.67" y2="326.33" gradientTransform="matrix(-1, 0, 0, 1, -6009.73, 0)" xlink:href="#linear-gradient-5"/><linearGradient id="linear-gradient-24" x1="-6264.23" y1="257.24" x2="-6257.92" y2="257.24" xlink:href="#linear-gradient-16"/><linearGradient id="linear-gradient-25" x1="-6254.21" y1="249.09" x2="-6208.32" y2="252.21" xlink:href="#linear-gradient-16"/><linearGradient id="linear-gradient-26" x1="-6246.24" y1="247.59" x2="-6264.52" y2="284.15" gradientTransform="matrix(-1, 0, 0, 1, -6009.73, 0)" xlink:href="#linear-gradient-5"/><linearGradient id="linear-gradient-27" x1="138.4" y1="275.26" x2="187.84" y2="275.26" xlink:href="#linear-gradient"/><linearGradient id="linear-gradient-28" x1="134.29" y1="258" x2="147.45" y2="258" gradientTransform="translate(223.69 -24.04) rotate(45)" xlink:href="#linear-gradient"/><linearGradient id="linear-gradient-29" x1="-779.74" y1="330.5" x2="-757.74" y2="277.04" gradientTransform="matrix(-1, -0.02, -0.02, 1, -669.1, -15.38)" xlink:href="#linear-gradient-5"/><linearGradient id="linear-gradient-30" x1="-822.77" y1="276.16" x2="-803.83" y2="318.92" gradientTransform="matrix(-1, 0, 0, 1, -698.87, 0)" xlink:href="#linear-gradient-16"/><linearGradient id="linear-gradient-31" x1="-822.43" y1="276.01" x2="-803.5" y2="318.77" gradientTransform="matrix(-1, 0, 0, 1, -698.87, 0)" xlink:href="#linear-gradient-16"/><linearGradient id="linear-gradient-32" x1="-777.88" y1="317.22" x2="-776.44" y2="344.86" gradientTransform="matrix(-1, 0, 0, 1, -698.87, 0)" xlink:href="#linear-gradient-5"/><linearGradient id="linear-gradient-33" x1="-801.33" y1="412.89" x2="-793.03" y2="315.9" gradientTransform="matrix(-1, 0, 0, 1, -698.87, 0)" xlink:href="#linear-gradient-16"/><linearGradient id="linear-gradient-34" x1="-802.81" y1="318.52" x2="-801.37" y2="346.16" gradientTransform="matrix(-1, 0, 0, 1, -698.87, 0)" xlink:href="#linear-gradient-5"/><linearGradient id="linear-gradient-35" x1="-784.64" y1="414.33" x2="-776.34" y2="317.32" gradientTransform="matrix(-1, 0, 0, 1, -698.87, 0)" xlink:href="#linear-gradient-16"/><linearGradient id="linear-gradient-36" x1="101.2" y1="319.73" x2="89.83" y2="354.43" gradientTransform="matrix(1, 0, 0, 1, 0, 0)" xlink:href="#linear-gradient-22"/><linearGradient id="linear-gradient-37" x1="85.96" y1="353.94" x2="30.27" y2="394.64" gradientTransform="matrix(1, 0, 0, 1, 0, 0)" xlink:href="#linear-gradient-22"/><linearGradient id="linear-gradient-38" x1="102.15" y1="296.55" x2="100.71" y2="310.66" gradientTransform="matrix(1, 0, 0, 1, 0, 0)" xlink:href="#linear-gradient-16"/><linearGradient id="linear-gradient-39" x1="114.08" y1="280.72" x2="112.93" y2="294.4" gradientTransform="matrix(1, 0, 0, 1, 0, 0)" xlink:href="#linear-gradient-16"/><linearGradient id="linear-gradient-40" x1="145.76" y1="270.82" x2="136.11" y2="280.46" gradientTransform="matrix(1, 0, 0, 1, 0, 0)" xlink:href="#linear-gradient-16"/><linearGradient id="linear-gradient-41" x1="-8762.2" y1="2044.08" x2="-8769.11" y2="2035.01" gradientTransform="matrix(-0.97, 0.26, 0.26, 0.97, -9075.86, 1070.96)" xlink:href="#linear-gradient-16"/><linearGradient id="linear-gradient-42" x1="-790.75" y1="326.6" x2="-768.55" y2="272.66" gradientTransform="matrix(-1, -0.02, -0.02, 1, -669.1, -15.38)" xlink:href="#linear-gradient-5"/><linearGradient id="linear-gradient-43" x1="-8759.32" y1="2041.88" x2="-8766.23" y2="2032.81" gradientTransform="matrix(-0.97, 0.26, 0.26, 0.97, -9075.86, 1070.96)" xlink:href="#linear-gradient-16"/><linearGradient id="linear-gradient-44" x1="86.57" y1="184.17" x2="87.43" y2="184.17" gradientTransform="matrix(1, 0, 0, 1, 0, 0)" xlink:href="#linear-gradient-22"/><linearGradient id="linear-gradient-45" x1="86.65" y1="159.99" x2="150.91" y2="159.99" gradientTransform="matrix(1, 0, 0, 1, 0, 0)" xlink:href="#linear-gradient-22"/><linearGradient id="linear-gradient-46" x1="154.02" y1="153.33" x2="155.85" y2="153.33" gradientTransform="matrix(1, 0, 0, 1, 0, 0)" xlink:href="#linear-gradient-22"/><linearGradient id="linear-gradient-47" x1="166.18" y1="182.14" x2="166.96" y2="182.14" gradientTransform="matrix(1, 0, 0, 1, 0, 0)" xlink:href="#linear-gradient-22"/><linearGradient id="linear-gradient-48" x1="101.06" y1="204.58" x2="166.44" y2="204.58" gradientTransform="matrix(1, 0, 0, 1, 0, 0)" xlink:href="#linear-gradient-22"/><linearGradient id="linear-gradient-49" x1="96.4" y1="208.27" x2="98.17" y2="208.27" gradientTransform="matrix(1, 0, 0, 1, 0, 0)" xlink:href="#linear-gradient-22"/><linearGradient id="linear-gradient-50" x1="117.08" y1="214.25" x2="150.13" y2="102.15" gradientUnits="userSpaceOnUse"><stop offset="0" stop-color="#fe1c62"/><stop offset="1" stop-color="#ff928e"/></linearGradient><linearGradient id="linear-gradient-51" x1="205.58" y1="95.75" x2="167.35" y2="137.22" gradientTransform="matrix(1, 0, 0, 1, 0, 0)" xlink:href="#linear-gradient-16"/><linearGradient id="linear-gradient-52" x1="205.61" y1="95.77" x2="167.38" y2="137.24" gradientTransform="matrix(1, 0, 0, 1, 0, 0)" xlink:href="#linear-gradient-16"/><linearGradient id="linear-gradient-53" x1="177.31" y1="147.94" x2="160.46" y2="215.32" gradientTransform="matrix(1, 0, 0, 1, 0, 0)" xlink:href="#linear-gradient-22"/><linearGradient id="linear-gradient-54" x1="192.82" y1="151.81" x2="175.97" y2="219.2" gradientTransform="matrix(1, 0, 0, 1, 0, 0)" xlink:href="#linear-gradient-22"/><linearGradient id="linear-gradient-55" x1="203.5" y1="154.48" x2="186.65" y2="221.87" gradientTransform="matrix(1, 0, 0, 1, 0, 0)" xlink:href="#linear-gradient-22"/><linearGradient id="linear-gradient-56" x1="194.24" y1="152.17" x2="177.39" y2="219.56" gradientTransform="matrix(1, 0, 0, 1, 0, 0)" xlink:href="#linear-gradient-22"/><linearGradient id="linear-gradient-57" x1="179.35" y1="148.45" x2="162.51" y2="215.84" gradientTransform="matrix(1, 0, 0, 1, 0, 0)" xlink:href="#linear-gradient-22"/><linearGradient id="linear-gradient-58" x1="169.63" y1="146.02" x2="152.78" y2="213.4" gradientTransform="matrix(1, 0, 0, 1, 0, 0)" xlink:href="#linear-gradient-22"/><linearGradient id="linear-gradient-59" x1="186.57" y1="150.25" x2="169.73" y2="217.64" gradientUnits="userSpaceOnUse"><stop offset="0.2" stop-color="#fe1c62"/><stop offset="0.41" stop-color="#fe1f63"/><stop offset="0.59" stop-color="#fe2a67"/><stop offset="0.75" stop-color="#fe3b6e"/><stop offset="0.91" stop-color="#ff5377"/><stop offset="1" stop-color="#ff657d"/></linearGradient><linearGradient id="linear-gradient-60" x1="178.74" y1="107.62" x2="174.85" y2="164.64" gradientTransform="matrix(1, 0, 0, 1, 0, 0)" xlink:href="#linear-gradient-16"/><linearGradient id="linear-gradient-61" x1="178.79" y1="107.62" x2="174.9" y2="164.64" gradientTransform="matrix(1, 0, 0, 1, 0, 0)" xlink:href="#linear-gradient-16"/><linearGradient id="linear-gradient-62" x1="212.65" y1="164.83" x2="213.3" y2="164.83" gradientTransform="matrix(1, 0, 0, 1, 0, 0)" xlink:href="#linear-gradient-22"/><linearGradient id="linear-gradient-63" x1="169.16" y1="181.72" x2="213.22" y2="181.72" gradientTransform="matrix(1, 0, 0, 1, 0, 0)" xlink:href="#linear-gradient-22"/><linearGradient id="linear-gradient-64" x1="165.4" y1="186.25" x2="166.79" y2="186.25" gradientTransform="matrix(1, 0, 0, 1, 0, 0)" xlink:href="#linear-gradient-22"/><linearGradient id="linear-gradient-65" x1="157.67" y1="166.26" x2="158.26" y2="166.26" gradientTransform="matrix(1, 0, 0, 1, 0, 0)" xlink:href="#linear-gradient-22"/><linearGradient id="linear-gradient-66" x1="158.09" y1="150.56" x2="202.91" y2="150.56" gradientTransform="matrix(1, 0, 0, 1, 0, 0)" xlink:href="#linear-gradient-22"/><linearGradient id="linear-gradient-67" x1="205.11" y1="148.1" x2="206.47" y2="148.1" gradientTransform="matrix(1, 0, 0, 1, 0, 0)" xlink:href="#linear-gradient-22"/><linearGradient id="linear-gradient-68" x1="230.83" y1="81.57" x2="155.65" y2="222.94" gradientUnits="userSpaceOnUse"><stop offset="0" stop-color="#fe1c62"/><stop offset="0.16" stop-color="#fe2164"/><stop offset="0.36" stop-color="#fe2f69"/><stop offset="0.56" stop-color="#fe4672"/><stop offset="0.77" stop-color="#ff677e"/><stop offset="0.99" stop-color="#ff908d"/><stop offset="1" stop-color="#ff928e"/></linearGradient><linearGradient id="linear-gradient-69" x1="250.84" y1="93.59" x2="208.08" y2="141.54" gradientTransform="matrix(1, 0, 0, 1, 0, 0)" xlink:href="#linear-gradient-16"/><linearGradient id="linear-gradient-70" x1="250.82" y1="93.57" x2="208.06" y2="141.52" gradientTransform="matrix(1, 0, 0, 1, 0, 0)" xlink:href="#linear-gradient-16"/><linearGradient id="linear-gradient-71" x1="308.55" y1="89.83" x2="673.63" y2="1057.29" gradientUnits="userSpaceOnUse"><stop offset="0" stop-color="#fe7062"/><stop offset="1" stop-color="#ff1e8e"/></linearGradient><linearGradient id="linear-gradient-72" x1="688.64" y1="399.92" x2="693.25" y2="373.43" gradientTransform="translate(-411.02)" xlink:href="#linear-gradient-6"/><linearGradient id="linear-gradient-73" x1="686.11" y1="378.45" x2="697.55" y2="378.45" gradientTransform="translate(-411.02)" xlink:href="#linear-gradient-5"/><linearGradient id="linear-gradient-74" x1="687.19" y1="375.23" x2="690.51" y2="375.23" gradientTransform="translate(-411.02)" xlink:href="#linear-gradient-16"/><linearGradient id="linear-gradient-75" x1="662.26" y1="395.34" x2="666.87" y2="368.84" gradientTransform="translate(-411.02)" xlink:href="#linear-gradient-6"/><linearGradient id="linear-gradient-76" x1="662.67" y1="377.03" x2="669.29" y2="377.03" gradientTransform="translate(-411.02)" xlink:href="#linear-gradient-5"/><linearGradient id="linear-gradient-77" x1="666.11" y1="372.47" x2="670.07" y2="372.47" gradientTransform="translate(-411.02)" xlink:href="#linear-gradient-16"/><linearGradient id="linear-gradient-78" x1="648.97" y1="344.09" x2="610.67" y2="373.89" gradientTransform="translate(-411.02)" xlink:href="#linear-gradient-22"/><linearGradient id="linear-gradient-79" x1="318.21" y1="303.35" x2="293.59" y2="324.08" xlink:href="#linear-gradient-6"/><linearGradient id="linear-gradient-80" x1="684.27" y1="314.69" x2="670.16" y2="327.18" gradientTransform="translate(-411.02)" xlink:href="#linear-gradient-16"/><linearGradient id="linear-gradient-81" x1="642.07" y1="335.23" x2="603.77" y2="365.03" gradientTransform="translate(-411.02)" xlink:href="#linear-gradient-22"/><linearGradient id="linear-gradient-82" x1="654.84" y1="351.64" x2="616.54" y2="381.44" gradientTransform="translate(-411.02)" xlink:href="#linear-gradient-22"/><linearGradient id="linear-gradient-83" x1="710.72" y1="315.87" x2="721.84" y2="315.87" gradientTransform="translate(-411.02)" xlink:href="#linear-gradient-16"/><linearGradient id="linear-gradient-84" x1="699.92" y1="286.17" x2="699.8" y2="306.92" gradientTransform="translate(-411.02)" xlink:href="#linear-gradient-16"/><linearGradient id="linear-gradient-85" x1="322.44" y1="299.18" x2="262.19" y2="338.7" xlink:href="#linear-gradient-5"/><linearGradient id="linear-gradient-86" x1="313.01" y1="298.2" x2="366.43" y2="298.2" xlink:href="#linear-gradient"/><linearGradient id="linear-gradient-87" x1="721.01" y1="298.2" x2="780.45" y2="298.2" gradientTransform="translate(-411.02)" xlink:href="#linear-gradient-5"/><linearGradient id="linear-gradient-88" x1="338.79" y1="2111.17" x2="328.58" y2="2124.69" gradientTransform="translate(-341.14 -1758.29) rotate(-8.21)" xlink:href="#linear-gradient-16"/><linearGradient id="linear-gradient-89" x1="330.99" y1="2114.43" x2="343.19" y2="2114.43" gradientTransform="translate(-341.14 -1758.29) rotate(-8.21)" xlink:href="#linear-gradient-5"/><linearGradient id="linear-gradient-90" x1="323.83" y1="2121.88" x2="332.03" y2="2113.47" gradientTransform="translate(-341.14 -1758.29) rotate(-8.21)" xlink:href="#linear-gradient-16"/><linearGradient id="linear-gradient-91" x1="689.84" y1="320.98" x2="675.73" y2="333.48" gradientTransform="translate(-411.02)" xlink:href="#linear-gradient-16"/><linearGradient id="linear-gradient-92" x1="316.94" y1="288.75" x2="314.2" y2="302.29" gradientTransform="matrix(1, 0, 0, 1, 0, 0)" xlink:href="#linear-gradient-16"/><linearGradient id="linear-gradient-93" x1="78.08" y1="208.06" x2="69.64" y2="217.64" gradientTransform="matrix(1, 0, 0, 1, 0, 0)" xlink:href="#linear-gradient-16"/><linearGradient id="linear-gradient-94" x1="54.29" y1="222.43" x2="17.64" y2="288.49" gradientUnits="userSpaceOnUse"><stop offset="0" stop-color="#9a448f"/><stop offset="1" stop-color="#fe70d0"/></linearGradient><linearGradient id="linear-gradient-95" x1="10006.05" y1="282.14" x2="10017.9" y2="282.14" gradientTransform="translate(-9962.55)" xlink:href="#linear-gradient-5"/><linearGradient id="linear-gradient-96" x1="49.42" y1="258.13" x2="49.42" y2="282.65" gradientUnits="userSpaceOnUse"><stop offset="0" stop-color="#53d8ff"/><stop offset="1" stop-color="#3840f7"/></linearGradient><linearGradient id="linear-gradient-97" x1="9985.24" y1="282.17" x2="9990.79" y2="282.17" gradientTransform="translate(-9962.55)" xlink:href="#linear-gradient-5"/><linearGradient id="linear-gradient-98" x1="23.42" y1="263.91" x2="25.92" y2="290.09" xlink:href="#linear-gradient-96"/><linearGradient id="linear-gradient-99" x1="9987.59" y1="278.35" x2="9991.19" y2="278.35" gradientTransform="translate(-9962.55)" xlink:href="#linear-gradient-16"/><linearGradient id="linear-gradient-100" x1="10006.65" y1="278.11" x2="10009.65" y2="278.11" gradientTransform="translate(-9962.55)" xlink:href="#linear-gradient-16"/><linearGradient id="linear-gradient-101" x1="-4622.41" y1="269.28" x2="-4621.51" y2="214.1" gradientTransform="matrix(-1, 0, 0, 1, -4583.51, 0)" xlink:href="#linear-gradient-5"/><linearGradient id="linear-gradient-102" x1="10014.11" y1="231.99" x2="10001.84" y2="247.87" gradientTransform="translate(-9962.55)" xlink:href="#linear-gradient-5"/><linearGradient id="linear-gradient-103" x1="20.08" y1="237.12" x2="63.67" y2="205.79" gradientUnits="userSpaceOnUse"><stop offset="0" stop-color="#fe70d0"/><stop offset="1" stop-color="#844970"/></linearGradient><linearGradient id="linear-gradient-104" x1="56.75" y1="186.65" x2="50.98" y2="207.82" gradientTransform="matrix(1, 0, 0, 1, 0, 0)" xlink:href="#linear-gradient-16"/><linearGradient id="linear-gradient-105" x1="9903.8" y1="-290.95" x2="9907.99" y2="-273.25" gradientTransform="translate(-9962.55)" xlink:href="#linear-gradient-16"/><linearGradient id="linear-gradient-106" x1="10013.67" y1="182.97" x2="10022.32" y2="194.12" gradientTransform="translate(-9962.55)" xlink:href="#linear-gradient-5"/><linearGradient id="linear-gradient-107" x1="9900.68" y1="-290.22" x2="9904.87" y2="-272.51" gradientTransform="translate(-9962.55)" xlink:href="#linear-gradient-16"/><linearGradient id="linear-gradient-108" x1="-4734.75" y1="331.71" x2="-4717.98" y2="316.42" gradientTransform="matrix(-1, 0, 0, 1, -4583.51, 0)" xlink:href="#linear-gradient-16"/><linearGradient id="linear-gradient-109" x1="12.99" y1="227.25" x2="56.58" y2="195.92" xlink:href="#linear-gradient-103"/><linearGradient id="linear-gradient-110" x1="-4658.96" y1="222.5" x2="-4647.03" y2="254.12" gradientTransform="matrix(-1, 0, 0, 1, -4583.51, 0)" xlink:href="#linear-gradient-16"/><linearGradient id="linear-gradient-111" x1="-4732.02" y1="334.7" x2="-4715.25" y2="319.4" gradientTransform="matrix(-1, 0, 0, 1, -4583.51, 0)" xlink:href="#linear-gradient-16"/><linearGradient id="linear-gradient-112" x1="1723.43" y1="193.01" x2="1733.91" y2="220.78" gradientTransform="translate(-1327.05)" xlink:href="#linear-gradient-16"/><linearGradient id="linear-gradient-113" x1="389.94" y1="194.92" x2="365.04" y2="206.15" gradientTransform="matrix(1, 0, 0, 1, 0, 0)" xlink:href="#linear-gradient-22"/><linearGradient id="linear-gradient-114" x1="3633.13" y1="262.88" x2="3645.47" y2="262.88" gradientTransform="matrix(-1, 0, 0, 1, 4051.98, 0)" xlink:href="#linear-gradient-5"/><linearGradient id="linear-gradient-115" x1="-6321.17" y1="206" x2="-6322.17" y2="234.51" gradientTransform="matrix(-1, 0, 0, 1, -5910.57, 0)" gradientUnits="userSpaceOnUse"><stop offset="0" stop-color="#2ba4ee"/><stop offset="1" stop-color="#4f52ff"/></linearGradient><linearGradient id="linear-gradient-116" x1="3611.46" y1="262.91" x2="3617.23" y2="262.91" gradientTransform="matrix(-1, 0, 0, 1, 4051.98, 0)" xlink:href="#linear-gradient-5"/><linearGradient id="linear-gradient-117" x1="-6346.17" y1="205.12" x2="-6347.18" y2="233.63" xlink:href="#linear-gradient-115"/><linearGradient id="linear-gradient-118" x1="3613.9" y1="258.93" x2="3617.65" y2="258.93" gradientTransform="matrix(-1, 0, 0, 1, 4051.98, 0)" xlink:href="#linear-gradient-16"/><linearGradient id="linear-gradient-119" x1="3633.76" y1="258.69" x2="3636.88" y2="258.69" gradientTransform="matrix(-1, 0, 0, 1, 4051.98, 0)" xlink:href="#linear-gradient-16"/><linearGradient id="linear-gradient-120" x1="424.18" y1="190.99" x2="365.55" y2="209.77" gradientTransform="matrix(1, 0, 0, 1, 0, 0)" xlink:href="#linear-gradient-22"/><linearGradient id="linear-gradient-121" x1="406.62" y1="165.86" x2="408.78" y2="181.12" gradientTransform="matrix(1, 0, 0, 1, 0, 0)" xlink:href="#linear-gradient-16"/><linearGradient id="linear-gradient-122" x1="418.23" y1="275.89" x2="380.78" y2="333.17" gradientTransform="translate(73.31 -249.55) rotate(15.58)" xlink:href="#linear-gradient-5"/><linearGradient id="linear-gradient-123" x1="541.2" y1="414.13" x2="528.53" y2="441.92" gradientTransform="translate(977.34 -169.43) rotate(114.85)" xlink:href="#linear-gradient-22"/><linearGradient id="linear-gradient-124" x1="418.06" y1="117.49" x2="404.67" y2="155.5" gradientTransform="translate(127.73 -157.05) rotate(26.85)" xlink:href="#linear-gradient-5"/><linearGradient id="linear-gradient-125" x1="387.1" y1="294.04" x2="423.08" y2="246.37" gradientTransform="matrix(0.71, 0.71, -0.71, 0.71, 305.24, -334.85)" gradientUnits="userSpaceOnUse"><stop offset="0" stop-color="#e1473d"/><stop offset="1" stop-color="#e9605a"/></linearGradient><linearGradient id="linear-gradient-126" x1="552.07" y1="419.09" x2="539.4" y2="446.88" gradientTransform="translate(-201.25 -238.21) rotate(-4.57)" xlink:href="#linear-gradient-22"/><linearGradient id="linear-gradient-127" x1="-647.71" y1="-1484.02" x2="-636.42" y2="-1454.09" gradientTransform="translate(-93 1733.33) rotate(41.18)" xlink:href="#linear-gradient-16"/><linearGradient id="linear-gradient-128" x1="413.2" y1="175.47" x2="414.64" y2="188.29" gradientTransform="matrix(1, 0, 0, 1, 0, 0)" xlink:href="#linear-gradient-16"/><linearGradient id="linear-gradient-129" x1="421.83" y1="183.65" x2="363.2" y2="202.44" gradientTransform="matrix(1, 0, 0, 1, 0, 0)" xlink:href="#linear-gradient-22"/><linearGradient id="linear-gradient-130" x1="401.29" y1="176.81" x2="402.73" y2="189.63" gradientTransform="matrix(1, 0, 0, 1, 0, 0)" xlink:href="#linear-gradient-16"/><linearGradient id="linear-gradient-131" x1="407.11" y1="158.89" x2="405.67" y2="169.4" gradientTransform="matrix(1, 0, 0, 1, 0, 0)" xlink:href="#linear-gradient-16"/><linearGradient id="linear-gradient-132" x1="437.33" y1="126.04" x2="420.05" y2="148.51" xlink:href="#linear-gradient-5"/><linearGradient id="linear-gradient-133" x1="410.02" y1="159.29" x2="408.59" y2="169.8" gradientTransform="matrix(1, 0, 0, 1, 0, 0)" xlink:href="#linear-gradient-16"/><linearGradient id="linear-gradient-134" x1="416.24" y1="331.65" x2="364.09" y2="431.68" gradientUnits="userSpaceOnUse"><stop offset="0" stop-color="#ff988b"/><stop offset="1" stop-color="#ff928e"/></linearGradient><linearGradient id="linear-gradient-135" x1="412.51" y1="314.57" x2="374.58" y2="410.8" xlink:href="#linear-gradient-134"/><linearGradient id="linear-gradient-136" x1="406.2" y1="324.4" x2="403.72" y2="336.08" xlink:href="#linear-gradient-5"/></defs><title>Ativo 1</title><g id="Camada_2" data-name="Camada 2"><g id="Layer_1" data-name="Layer 1"><path class="cls-1" d="M255.43,160.41c.51-.93,1-1.88,1.48-2.83L115.12,15.79c-1,.48-1.9,1-2.83,1.47Z"/><path class="cls-1" d="M250.65,168.43c.57-.87,1.11-1.76,1.66-2.65L106.91,20.39c-.88.55-1.77,1.09-2.64,1.66Z"/><path class="cls-1" d="M259.6,151.78c.44-1,.86-2,1.26-3.05L124,11.84c-1,.4-2,.82-3,1.26Z"/><path class="cls-1" d="M239.29,182.67c.7-.74,1.4-1.48,2.07-2.23L92.26,31.34c-.75.67-1.49,1.37-2.23,2.07Z"/><path class="cls-1" d="M245.24,175.82c.64-.8,1.27-1.61,1.88-2.42L99.3,25.58c-.81.61-1.62,1.24-2.42,1.88Z"/><path class="cls-1" d="M232.81,189c.75-.67,1.49-1.37,2.23-2.07L85.78,37.66c-.7.74-1.4,1.47-2.07,2.23Z"/><path class="cls-1" d="M267.09,95.27q-.36-2.59-.86-5.16L182.59,6.46Q180,6,177.43,5.61Z"/><path class="cls-1" d="M268.12,109.1c0-1.48-.05-3-.12-4.43L168,4.7c-1.48-.07-2.95-.11-4.43-.12Z"/><path class="cls-1" d="M265.78,132.35c.25-1.19.49-2.39.7-3.59L143.94,6.22c-1.2.21-2.4.45-3.59.7Z"/><path class="cls-1" d="M267.54,121.32c.14-1.32.25-2.65.34-4L155.35,4.82c-1.32.09-2.65.2-4,.34Z"/><path class="cls-1" d="M263.08,142.46c.35-1.1.69-2.19,1-3.3L133.54,8.61c-1.11.31-2.2.66-3.3,1Z"/><path class="cls-1" d="M194,9.34l69.39,69.39q-1-3.33-2.3-6.6L200.57,11.64Q197.3,10.38,194,9.34Z"/><path class="cls-1" d="M142.48,213.87c1.72.33,3.44.61,5.16.86L58,125.06c.25,1.72.53,3.44.86,5.16Z"/><path class="cls-1" d="M157,215.63c1.48.08,3,.11,4.43.13L56.94,111.23c0,1.47.05,3,.13,4.42Z"/><path class="cls-1" d="M124.51,208.7q3.27,1.26,6.6,2.3L61.7,141.59q1,3.33,2.3,6.6Z"/><path class="cls-1" d="M88,185a105.91,105.91,0,0,0,19.8,15.5L72.19,164.88a105.91,105.91,0,0,0,15.5,19.8Z"/><path class="cls-1" d="M252.86,55.43a105.67,105.67,0,0,0-35.59-35.59Z"/><path class="cls-1" d="M169.72,215.51c1.33-.09,2.65-.2,4-.34L57.52,99c-.14,1.32-.24,2.64-.33,4Z"/><path class="cls-1" d="M225.77,194.75c.81-.61,1.62-1.24,2.42-1.88L79.83,44.51c-.64.8-1.27,1.6-1.88,2.42Z"/><path class="cls-1" d="M210,204.54c1-.48,1.9-1,2.83-1.47L69.63,59.91c-.5.94-1,1.89-1.47,2.84Z"/><path class="cls-1" d="M181.13,214.11c1.2-.21,2.4-.45,3.59-.7L59.29,88c-.25,1.2-.49,2.4-.71,3.6Z"/><path class="cls-1" d="M218.16,199.94c.88-.55,1.77-1.09,2.64-1.66L74.42,51.9c-.57.87-1.11,1.76-1.66,2.64Z"/><path class="cls-1" d="M191.54,211.72c1.1-.31,2.2-.66,3.29-1L62,77.87c-.36,1.09-.7,2.19-1,3.29Z"/><path class="cls-1" d="M201.11,208.49c1-.4,2-.82,3-1.26L65.47,68.55c-.44,1-.86,2-1.26,3Z"/><path class="cls-1" d="M408.25,273.08c-.77-.42-1.54-.82-2.32-1.21L289.67,388.13c.4.78.79,1.55,1.21,2.32Z"/><path class="cls-1" d="M414.82,277c-.71-.47-1.44-.91-2.16-1.36L293.44,394.85c.45.73.89,1.45,1.37,2.17Z"/><path class="cls-1" d="M401.18,269.66c-.83-.36-1.66-.7-2.5-1L286.43,380.87c.33.84.68,1.67,1,2.5Z"/><path class="cls-1" d="M426.5,286.32q-.9-.87-1.83-1.71L302.42,406.87c.55.62,1.13,1.22,1.7,1.83Z"/><path class="cls-1" d="M420.89,281.43c-.66-.52-1.32-1-2-1.54L297.7,401.1c.5.66,1,1.33,1.54,2Z"/><path class="cls-1" d="M431.69,291.63c-.56-.62-1.13-1.23-1.7-1.83L307.6,412.18c.61.57,1.21,1.15,1.83,1.7Z"/><path class="cls-1" d="M354.84,263.52c-1.42.2-2.83.43-4.23.7L282,332.8c-.27,1.41-.51,2.82-.71,4.23Z"/><path class="cls-1" d="M366.18,262.67c-1.21,0-2.42,0-3.63.11l-82,82c-.06,1.21-.09,2.42-.1,3.63Z"/><path class="cls-1" d="M385.24,264.6c-1-.21-2-.41-2.94-.58L281.82,364.49c.18,1,.37,2,.58,2.95Z"/><path class="cls-1" d="M376.2,263.15c-1.09-.12-2.17-.2-3.26-.28l-92.26,92.27c.07,1.08.16,2.17.27,3.25Z"/><path class="cls-1" d="M393.53,266.81c-.9-.29-1.8-.57-2.7-.83l-107,107c.25.91.53,1.81.82,2.71Z"/><path class="cls-1" d="M284.38,323.47l56.9-56.89c-1.82.56-3.63,1.19-5.41,1.88l-49.6,49.6Q285.24,320.75,284.38,323.47Z"/><path class="cls-1" d="M452.08,365.69c.28-1.41.51-2.82.71-4.23L379.26,435c1.42-.2,2.83-.43,4.23-.7Z"/><path class="cls-1" d="M453.53,353.75c.06-1.21.09-2.42.1-3.63l-85.71,85.71c1.21,0,2.42,0,3.63-.11Z"/><path class="cls-1" d="M447.84,380.43q1-2.69,1.89-5.42l-56.91,56.91q2.73-.84,5.41-1.88Z"/><path class="cls-1" d="M428.42,410.34a86.67,86.67,0,0,0,12.71-16.23l-29.22,29.21a86.77,86.77,0,0,0,16.24-12.7Z"/><path class="cls-1" d="M322.18,275.19A86.32,86.32,0,0,0,305.82,288,87.42,87.42,0,0,0,293,304.37Z"/><path class="cls-1" d="M453.43,343.35c-.07-1.08-.16-2.17-.27-3.25l-95.25,95.25c1.08.11,2.16.2,3.25.27Z"/><path class="cls-1" d="M436.41,297.4c-.5-.67-1-1.33-1.54-2L313.22,417.06c.65.53,1.32,1,2,1.54Z"/><path class="cls-1" d="M444.43,310.37c-.39-.78-.79-1.56-1.2-2.32L325.85,425.42c.77.42,1.54.82,2.32,1.21Z"/><path class="cls-1" d="M452.29,334c-.18-1-.37-2-.58-2.95L348.86,433.9c1,.21,2,.41,2.95.58Z"/><path class="cls-1" d="M440.66,303.64c-.45-.72-.89-1.45-1.36-2.16l-120,120c.71.48,1.44.92,2.17,1.37Z"/><path class="cls-1" d="M450.32,325.47c-.25-.91-.54-1.81-.82-2.7L340.57,431.69c.9.29,1.8.57,2.7.83Z"/><path class="cls-1" d="M447.67,317.62c-.32-.84-.67-1.67-1-2.5L332.93,428.84c.83.35,1.66.7,2.5,1Z"/><path class="cls-2" d="M349.49,325.62c-9,22.07-10.8,47.12-22.46,68-37,66.24-129.59,37.19-178.65,3.28C91.29,357.46,53.46,293,38.15,226a295.38,295.38,0,0,1-6.55-42.45c-2.34-29.34,2-60.06,17.64-85A89,89,0,0,1,133.18,57c21.73,2,42,11.4,62.67,18.25,32.54,10.76,60.21,5.3,92.25-3.85,29.8-8.51,63.22-18.79,94.19-9.94,31.95,9.13,59.94,32.64,73.17,63.28,14.44,33.45,13,87.3-15.15,113.2-28.87,26.55-68.5,43.62-87.23,79.87C351.76,320.34,350.57,323,349.49,325.62Z"/><path class="cls-3" d="M61.91,238.86c17.36,55.2,73.44,97.79,132.33,90.81,19.27-2.29,38-9.43,57.39-9.23,11.41.12,23.66,3.69,32.54,11.06C297,342.19,303.08,355.92,318.94,363a68.47,68.47,0,0,0,95.12-45.78c7.71-31-8.2-64.61-36.66-78.82-19.08-9.52-40.77-3-51.46-26-5.78-12.45-6.11-26.61-8.5-40.11C309,124.73,271.54,83.5,225,70.5,126.26,43,31.44,141.88,61.91,238.86Z"/><path class="cls-4" d="M73.07,222.93a1.85,1.85,0,1,0,1.85,1.85A1.85,1.85,0,0,0,73.07,222.93Z"/><path class="cls-4" d="M73.07,239.65a1.85,1.85,0,1,0,1.85,1.85A1.85,1.85,0,0,0,73.07,239.65Z"/><path class="cls-4" d="M73.07,256.36a1.86,1.86,0,1,0,1.85,1.86A1.85,1.85,0,0,0,73.07,256.36Z"/><path class="cls-4" d="M73.07,273.08a1.86,1.86,0,1,0,1.85,1.85A1.85,1.85,0,0,0,73.07,273.08Z"/><path class="cls-4" d="M73.07,289.8a1.85,1.85,0,1,0,1.85,1.85A1.85,1.85,0,0,0,73.07,289.8Z"/><path class="cls-4" d="M73.07,306.52a1.85,1.85,0,1,0,1.85,1.85A1.85,1.85,0,0,0,73.07,306.52Z"/><path class="cls-4" d="M73.07,323.24a1.85,1.85,0,1,0,1.85,1.85A1.85,1.85,0,0,0,73.07,323.24Z"/><path class="cls-4" d="M73.07,340a1.86,1.86,0,1,0,1.85,1.86A1.85,1.85,0,0,0,73.07,340Z"/><path class="cls-4" d="M73.07,356.67a1.86,1.86,0,1,0,1.85,1.85A1.85,1.85,0,0,0,73.07,356.67Z"/><path class="cls-4" d="M73.07,373.39a1.85,1.85,0,1,0,1.85,1.85A1.85,1.85,0,0,0,73.07,373.39Z"/><path class="cls-4" d="M58.83,222.93a1.85,1.85,0,1,0,1.85,1.85A1.85,1.85,0,0,0,58.83,222.93Z"/><path class="cls-4" d="M58.83,239.65a1.85,1.85,0,1,0,1.85,1.85A1.85,1.85,0,0,0,58.83,239.65Z"/><circle class="cls-4" cx="58.83" cy="258.22" r="1.85"/><path class="cls-4" d="M58.83,273.08a1.86,1.86,0,1,0,1.85,1.85A1.85,1.85,0,0,0,58.83,273.08Z"/><path class="cls-4" d="M58.83,289.8a1.85,1.85,0,1,0,1.85,1.85A1.85,1.85,0,0,0,58.83,289.8Z"/><path class="cls-4" d="M58.83,306.52a1.85,1.85,0,1,0,1.85,1.85A1.85,1.85,0,0,0,58.83,306.52Z"/><circle class="cls-4" cx="58.83" cy="325.09" r="1.85"/><path class="cls-4" d="M58.83,340a1.86,1.86,0,1,0,1.85,1.86A1.85,1.85,0,0,0,58.83,340Z"/><path class="cls-4" d="M58.83,356.67a1.86,1.86,0,1,0,1.85,1.85A1.85,1.85,0,0,0,58.83,356.67Z"/><path class="cls-4" d="M58.83,373.39a1.85,1.85,0,1,0,1.85,1.85A1.85,1.85,0,0,0,58.83,373.39Z"/><path class="cls-4" d="M44.58,222.93a1.85,1.85,0,1,0,1.86,1.85A1.85,1.85,0,0,0,44.58,222.93Z"/><path class="cls-4" d="M44.58,239.65a1.85,1.85,0,1,0,1.86,1.85A1.85,1.85,0,0,0,44.58,239.65Z"/><path class="cls-4" d="M44.58,256.36a1.86,1.86,0,1,0,1.86,1.86A1.85,1.85,0,0,0,44.58,256.36Z"/><path class="cls-4" d="M44.58,273.08a1.86,1.86,0,1,0,1.86,1.85A1.85,1.85,0,0,0,44.58,273.08Z"/><path class="cls-4" d="M44.58,289.8a1.85,1.85,0,1,0,1.86,1.85A1.85,1.85,0,0,0,44.58,289.8Z"/><path class="cls-4" d="M44.58,306.52a1.85,1.85,0,1,0,1.86,1.85A1.85,1.85,0,0,0,44.58,306.52Z"/><path class="cls-4" d="M44.58,323.24a1.85,1.85,0,1,0,1.86,1.85A1.85,1.85,0,0,0,44.58,323.24Z"/><path class="cls-4" d="M44.58,340a1.86,1.86,0,1,0,1.86,1.86A1.85,1.85,0,0,0,44.58,340Z"/><path class="cls-4" d="M44.58,356.67a1.86,1.86,0,1,0,1.86,1.85A1.85,1.85,0,0,0,44.58,356.67Z"/><path class="cls-4" d="M44.58,373.39a1.85,1.85,0,1,0,1.86,1.85A1.85,1.85,0,0,0,44.58,373.39Z"/><path class="cls-4" d="M30.34,222.93a1.85,1.85,0,1,0,1.85,1.85A1.85,1.85,0,0,0,30.34,222.93Z"/><path class="cls-4" d="M30.34,239.65a1.85,1.85,0,1,0,1.85,1.85A1.85,1.85,0,0,0,30.34,239.65Z"/><circle class="cls-4" cx="30.34" cy="258.22" r="1.85"/><path class="cls-4" d="M30.34,273.08a1.86,1.86,0,1,0,1.85,1.85A1.85,1.85,0,0,0,30.34,273.08Z"/><path class="cls-4" d="M30.34,289.8a1.85,1.85,0,1,0,1.85,1.85A1.85,1.85,0,0,0,30.34,289.8Z"/><path class="cls-4" d="M30.34,306.52a1.85,1.85,0,1,0,1.85,1.85A1.85,1.85,0,0,0,30.34,306.52Z"/><circle class="cls-4" cx="30.34" cy="325.09" r="1.85"/><path class="cls-4" d="M30.34,340a1.86,1.86,0,1,0,1.85,1.86A1.85,1.85,0,0,0,30.34,340Z"/><path class="cls-4" d="M30.34,356.67a1.86,1.86,0,1,0,1.85,1.85A1.85,1.85,0,0,0,30.34,356.67Z"/><path class="cls-4" d="M30.34,373.39a1.85,1.85,0,1,0,1.85,1.85A1.85,1.85,0,0,0,30.34,373.39Z"/><path class="cls-4" d="M16.1,222.93A1.85,1.85,0,1,0,18,224.78,1.85,1.85,0,0,0,16.1,222.93Z"/><path class="cls-4" d="M16.1,239.65A1.85,1.85,0,1,0,18,241.5,1.85,1.85,0,0,0,16.1,239.65Z"/><path class="cls-4" d="M16.1,256.36A1.86,1.86,0,1,0,18,258.22,1.86,1.86,0,0,0,16.1,256.36Z"/><path class="cls-4" d="M16.1,273.08A1.86,1.86,0,1,0,18,274.93,1.85,1.85,0,0,0,16.1,273.08Z"/><path class="cls-4" d="M16.1,289.8A1.85,1.85,0,1,0,18,291.65,1.85,1.85,0,0,0,16.1,289.8Z"/><path class="cls-4" d="M16.1,306.52A1.85,1.85,0,1,0,18,308.37,1.85,1.85,0,0,0,16.1,306.52Z"/><path class="cls-4" d="M16.1,323.24A1.85,1.85,0,1,0,18,325.09,1.85,1.85,0,0,0,16.1,323.24Z"/><path class="cls-4" d="M16.1,340A1.86,1.86,0,1,0,18,341.81,1.86,1.86,0,0,0,16.1,340Z"/><path class="cls-4" d="M16.1,356.67A1.86,1.86,0,1,0,18,358.52,1.85,1.85,0,0,0,16.1,356.67Z"/><path class="cls-4" d="M16.1,373.39A1.85,1.85,0,1,0,18,375.24,1.85,1.85,0,0,0,16.1,373.39Z"/><path class="cls-4" d="M1.85,222.93a1.85,1.85,0,1,0,1.85,1.85A1.85,1.85,0,0,0,1.85,222.93Z"/><path class="cls-4" d="M1.85,239.65A1.85,1.85,0,1,0,3.7,241.5,1.85,1.85,0,0,0,1.85,239.65Z"/><path class="cls-4" d="M1.85,256.36a1.86,1.86,0,1,0,1.85,1.86A1.85,1.85,0,0,0,1.85,256.36Z"/><path class="cls-4" d="M1.85,273.08a1.86,1.86,0,1,0,1.85,1.85A1.85,1.85,0,0,0,1.85,273.08Z"/><path class="cls-4" d="M1.85,289.8a1.85,1.85,0,1,0,1.85,1.85A1.85,1.85,0,0,0,1.85,289.8Z"/><path class="cls-4" d="M1.85,306.52a1.85,1.85,0,1,0,1.85,1.85A1.85,1.85,0,0,0,1.85,306.52Z"/><path class="cls-4" d="M1.85,323.24a1.85,1.85,0,1,0,1.85,1.85A1.85,1.85,0,0,0,1.85,323.24Z"/><path class="cls-4" d="M1.85,340a1.86,1.86,0,1,0,1.85,1.86A1.85,1.85,0,0,0,1.85,340Z"/><path class="cls-4" d="M1.85,356.67a1.86,1.86,0,1,0,1.85,1.85A1.85,1.85,0,0,0,1.85,356.67Z"/><path class="cls-4" d="M1.85,373.39a1.85,1.85,0,1,0,1.85,1.85A1.85,1.85,0,0,0,1.85,373.39Z"/><path class="cls-4" d="M476.59,111.15a1.85,1.85,0,1,0-1.85,1.85A1.85,1.85,0,0,0,476.59,111.15Z"/><circle class="cls-4" cx="458.02" cy="111.15" r="1.85"/><circle class="cls-4" cx="441.3" cy="111.15" r="1.85"/><path class="cls-4" d="M426.44,111.15a1.85,1.85,0,1,0-1.85,1.85A1.85,1.85,0,0,0,426.44,111.15Z"/><path class="cls-4" d="M409.72,111.15a1.85,1.85,0,1,0-1.85,1.85A1.85,1.85,0,0,0,409.72,111.15Z"/><path class="cls-4" d="M393,111.15a1.85,1.85,0,1,0-1.85,1.85A1.85,1.85,0,0,0,393,111.15Z"/><circle class="cls-4" cx="374.43" cy="111.15" r="1.85"/><path class="cls-4" d="M476.59,96.9a1.85,1.85,0,1,0-1.85,1.85A1.85,1.85,0,0,0,476.59,96.9Z"/><path class="cls-4" d="M459.87,96.9A1.85,1.85,0,1,0,458,98.75,1.85,1.85,0,0,0,459.87,96.9Z"/><path class="cls-4" d="M443.16,96.9a1.86,1.86,0,1,0-1.86,1.85A1.85,1.85,0,0,0,443.16,96.9Z"/><path class="cls-4" d="M426.44,96.9a1.85,1.85,0,1,0-1.85,1.85A1.85,1.85,0,0,0,426.44,96.9Z"/><path class="cls-4" d="M409.72,96.9a1.85,1.85,0,1,0-1.85,1.85A1.85,1.85,0,0,0,409.72,96.9Z"/><path class="cls-4" d="M393,96.9a1.85,1.85,0,1,0-1.85,1.85A1.85,1.85,0,0,0,393,96.9Z"/><path class="cls-4" d="M376.28,96.9a1.85,1.85,0,1,0-1.85,1.85A1.85,1.85,0,0,0,376.28,96.9Z"/><path class="cls-4" d="M476.59,82.66a1.85,1.85,0,1,0-1.85,1.85A1.85,1.85,0,0,0,476.59,82.66Z"/><path class="cls-4" d="M459.87,82.66A1.85,1.85,0,1,0,458,84.51,1.85,1.85,0,0,0,459.87,82.66Z"/><path class="cls-4" d="M443.16,82.66a1.86,1.86,0,1,0-1.86,1.85A1.86,1.86,0,0,0,443.16,82.66Z"/><path class="cls-4" d="M426.44,82.66a1.85,1.85,0,1,0-1.85,1.85A1.85,1.85,0,0,0,426.44,82.66Z"/><path class="cls-4" d="M409.72,82.66a1.85,1.85,0,1,0-1.85,1.85A1.85,1.85,0,0,0,409.72,82.66Z"/><path class="cls-4" d="M393,82.66a1.85,1.85,0,1,0-1.85,1.85A1.85,1.85,0,0,0,393,82.66Z"/><path class="cls-4" d="M376.28,82.66a1.85,1.85,0,1,0-1.85,1.85A1.85,1.85,0,0,0,376.28,82.66Z"/><path class="cls-4" d="M476.59,68.41a1.85,1.85,0,1,0-1.85,1.85A1.85,1.85,0,0,0,476.59,68.41Z"/><path class="cls-4" d="M459.87,68.41A1.85,1.85,0,1,0,458,70.26,1.85,1.85,0,0,0,459.87,68.41Z"/><path class="cls-4" d="M443.16,68.41a1.86,1.86,0,1,0-1.86,1.85A1.85,1.85,0,0,0,443.16,68.41Z"/><path class="cls-4" d="M426.44,68.41a1.85,1.85,0,1,0-1.85,1.85A1.85,1.85,0,0,0,426.44,68.41Z"/><path class="cls-4" d="M409.72,68.41a1.85,1.85,0,1,0-1.85,1.85A1.85,1.85,0,0,0,409.72,68.41Z"/><path class="cls-4" d="M393,68.41a1.85,1.85,0,1,0-1.85,1.85A1.85,1.85,0,0,0,393,68.41Z"/><path class="cls-4" d="M376.28,68.41a1.85,1.85,0,1,0-1.85,1.85A1.85,1.85,0,0,0,376.28,68.41Z"/><path class="cls-4" d="M476.59,54.17A1.85,1.85,0,1,0,474.74,56,1.85,1.85,0,0,0,476.59,54.17Z"/><path class="cls-4" d="M459.87,54.17A1.85,1.85,0,1,0,458,56,1.85,1.85,0,0,0,459.87,54.17Z"/><path class="cls-4" d="M443.16,54.17A1.86,1.86,0,1,0,441.3,56,1.85,1.85,0,0,0,443.16,54.17Z"/><path class="cls-4" d="M426.44,54.17A1.85,1.85,0,1,0,424.59,56,1.85,1.85,0,0,0,426.44,54.17Z"/><path class="cls-4" d="M409.72,54.17A1.85,1.85,0,1,0,407.87,56,1.85,1.85,0,0,0,409.72,54.17Z"/><path class="cls-4" d="M393,54.17A1.85,1.85,0,1,0,391.15,56,1.85,1.85,0,0,0,393,54.17Z"/><path class="cls-4" d="M376.28,54.17A1.85,1.85,0,1,0,374.43,56,1.85,1.85,0,0,0,376.28,54.17Z"/><path class="cls-4" d="M476.59,39.92a1.85,1.85,0,1,0-1.85,1.85A1.85,1.85,0,0,0,476.59,39.92Z"/><circle class="cls-4" cx="458.02" cy="39.92" r="1.85"/><circle class="cls-4" cx="441.3" cy="39.92" r="1.85"/><path class="cls-4" d="M426.44,39.92a1.85,1.85,0,1,0-1.85,1.85A1.85,1.85,0,0,0,426.44,39.92Z"/><path class="cls-4" d="M409.72,39.92a1.85,1.85,0,1,0-1.85,1.85A1.85,1.85,0,0,0,409.72,39.92Z"/><path class="cls-4" d="M393,39.92a1.85,1.85,0,1,0-1.85,1.85A1.85,1.85,0,0,0,393,39.92Z"/><circle class="cls-4" cx="374.43" cy="39.92" r="1.85"/><path class="cls-5" d="M297.9,437.75A90,90,0,0,1,238,414.89c-12.18-10.83-21.33-24.65-30.17-38-3-4.56-6.15-9.29-9.34-13.8-20.13-28.53-47.15-40.38-75.38-50.95l-3.3-1.24C92,300.48,60.43,288.69,41.42,264c-20.87-27.13-28.85-62.59-21.33-94.87,8.53-36.61,42.76-78.5,80.11-82.52,13-1.4,26.63-1.23,39.78-1.07,25.94.33,52.75.67,76.67-11.11,2.42-1.19,4.91-2.56,7.4-4.08h0c8.45-5.15,16.36-11.6,24-17.83,10.6-8.65,21.57-17.59,34.26-23.33,20.75-9.4,41.78-9.62,62.51-.66,39.14,16.93,70.38,64.6,84,104.33,21.09,61.68,16.39,135.53-12.9,202.62a296.22,296.22,0,0,1-19.92,38c-12.24,19.65-33.44,45.67-64.94,58A90.52,90.52,0,0,1,297.9,437.75ZM127,88a250.08,250.08,0,0,0-26.51,1.16C64.22,93.08,31,134,22.62,169.71c-7.35,31.53.45,66.18,20.86,92.7,18.55,24.11,49.75,35.76,77.27,46l3.31,1.24c28.63,10.72,56,22.76,76.59,51.88,3.22,4.55,6.35,9.29,9.38,13.87,8.75,13.23,17.8,26.91,29.73,37.51A87.35,87.35,0,0,0,330.09,429c30.84-12.1,51.65-37.66,63.69-57a293.56,293.56,0,0,0,19.74-37.63c29-66.5,33.71-139.66,12.82-200.74C412.94,94.5,382.22,47.51,343.8,30.9c-20-8.65-40.35-8.44-60.41.64C271,37.15,260.17,46,249.7,54.52c-7.72,6.29-15.7,12.79-24.3,18h0c-2.56,1.56-5.12,3-7.6,4.2-24.48,12-51.62,11.71-77.86,11.38C135.66,88.07,131.32,88,127,88Z"/><path class="cls-6" d="M375.43,3.88c-16-11.31-34.11,4.09-42.07,20.74-6,12.6-9.62,29.9-8.89,44.15a5.37,5.37,0,0,0,6.89,4.86C345,69.55,360.13,60.37,370,50.47,383,37.39,391.45,15.18,375.43,3.88Z"/><path class="cls-7" d="M287,15.23c-9.92,1.21-11.49,13.22-8.8,22.23A50.37,50.37,0,0,0,290,57.18a2.75,2.75,0,0,0,4.28-.52,50.37,50.37,0,0,0,6.66-22C301.36,25.3,297,14,287,15.23Z"/><circle class="cls-8" cx="292.84" cy="375.61" r="30.87"/><circle class="cls-9" cx="172.05" cy="33.87" r="17.79" transform="translate(99.34 193.43) rotate(-76.64)"/><path class="cls-10" d="M54.79,402.34c14.07,17,38.26,5.6,51.8-10.14,10.25-11.92,19.24-29.65,22.64-45.34a6,6,0,0,0-6-7.31c-16.05.42-35.15,5.94-48.76,13.79C56.43,363.72,40.73,385.35,54.79,402.34Z"/><path class="cls-11" d="M139.63,435.9c10.94,2.62,17.31-9.42,18-20A56.58,56.58,0,0,0,153,390.5a3.08,3.08,0,0,0-4.7-1.13,56.56,56.56,0,0,0-15.67,20.55C128.48,419.65,128.7,433.27,139.63,435.9Z"/><path class="cls-12" d="M64.25,331.07A18.78,18.78,0,1,1,83,312.29,18.8,18.8,0,0,1,64.25,331.07Zm0-30.76a12,12,0,1,0,12,12A12,12,0,0,0,64.25,300.31Z"/><path class="cls-13" d="M414.53,138.1a18.78,18.78,0,1,1,18.78-18.78A18.8,18.8,0,0,1,414.53,138.1Zm0-30.76a12,12,0,1,0,12,12A12,12,0,0,0,414.53,107.34Z"/><path class="cls-14" d="M185.75,103.42a.22.22,0,0,1-.18-.1l-.5-.69a.22.22,0,0,1,.35-.25c.17.23.34.46.5.7a.21.21,0,0,1,0,.3A.28.28,0,0,1,185.75,103.42Z"/><path class="cls-14" d="M158.08,156.67h-.62a.21.21,0,0,1-.21-.22.21.21,0,0,1,.21-.21h.62l1,0a.21.21,0,0,1,.22.21.21.21,0,0,1-.2.22Zm-3.33-.16h0c-.55-.06-1.11-.13-1.66-.21a.21.21,0,0,1-.18-.24.2.2,0,0,1,.24-.18c.55.08,1.1.15,1.65.2a.22.22,0,0,1,.19.24A.22.22,0,0,1,154.75,156.51Zm7.08,0a.21.21,0,0,1-.21-.19.21.21,0,0,1,.19-.23c.54-.07,1.1-.14,1.64-.23a.22.22,0,0,1,.25.18.21.21,0,0,1-.18.24c-.55.09-1.11.17-1.66.23Zm4.31-.77a.21.21,0,0,1-.21-.16.21.21,0,0,1,.16-.26c.46-.11.93-.24,1.4-.38l.2,0a.22.22,0,0,1,.27.14.22.22,0,0,1-.15.27l-.2.06-1.42.38Zm4.17-1.31a.22.22,0,0,1-.2-.14.23.23,0,0,1,.13-.28c.51-.19,1-.41,1.53-.63a.21.21,0,1,1,.17.39c-.51.23-1,.44-1.55.64Zm4-1.84a.21.21,0,0,1-.19-.11.21.21,0,0,1,.08-.29c.49-.27,1-.54,1.44-.83a.21.21,0,0,1,.22.36c-.47.29-1,.58-1.45.84ZM178,150.2a.21.21,0,0,1-.17-.09.21.21,0,0,1,.05-.3c.44-.32.88-.66,1.31-1a.21.21,0,0,1,.27.33c-.43.35-.88.69-1.33,1A.2.2,0,0,1,178,150.2Zm3.36-2.8a.21.21,0,0,1-.14-.37c.39-.37.79-.77,1.17-1.17a.22.22,0,0,1,.3,0,.21.21,0,0,1,0,.3c-.39.4-.79.8-1.19,1.18A.2.2,0,0,1,181.34,147.4Zm3-3.21a.18.18,0,0,1-.13-.05.21.21,0,0,1,0-.3c.34-.42.69-.87,1-1.31a.22.22,0,0,1,.35.25c-.33.45-.68.9-1,1.33A.21.21,0,0,1,184.31,144.19Zm2.54-3.57-.12,0a.21.21,0,0,1-.07-.29c.29-.47.57-1,.84-1.43a.21.21,0,0,1,.29-.09.23.23,0,0,1,.09.29c-.27.49-.56,1-.85,1.45A.2.2,0,0,1,186.85,140.62Zm2.05-3.86-.09,0a.2.2,0,0,1-.1-.28c.22-.5.44-1,.64-1.53a.22.22,0,1,1,.4.16c-.21.52-.42,1-.65,1.54A.23.23,0,0,1,188.9,136.76Zm1.54-4.1h-.06a.2.2,0,0,1-.14-.26c.16-.53.31-1.07.44-1.6a.21.21,0,0,1,.26-.16.22.22,0,0,1,.15.26c-.13.54-.28,1.09-.44,1.62A.23.23,0,0,1,190.44,132.66Zm1-4.26h0a.22.22,0,0,1-.17-.25c.09-.54.17-1.09.23-1.64a.22.22,0,0,1,.43,0c-.07.55-.15,1.11-.24,1.66A.21.21,0,0,1,191.44,128.4Zm.44-4.35h0a.23.23,0,0,1-.21-.23c0-.38,0-.77,0-1.16v-.5a.21.21,0,0,1,.21-.21.21.21,0,0,1,.22.21v.5c0,.39,0,.79,0,1.18A.22.22,0,0,1,191.88,124.05Zm-.14-4.38a.21.21,0,0,1-.21-.2c-.05-.54-.12-1.1-.2-1.64a.21.21,0,0,1,.18-.24.22.22,0,0,1,.25.18c.08.55.14,1.11.2,1.66a.22.22,0,0,1-.2.24Zm-.7-4.32a.21.21,0,0,1-.2-.17c-.13-.53-.27-1.08-.41-1.61a.2.2,0,0,1,.14-.26.22.22,0,0,1,.27.15c.15.54.29,1.08.41,1.63a.2.2,0,0,1-.16.25Zm-1.24-4.2a.2.2,0,0,1-.2-.14c-.19-.51-.4-1-.61-1.54a.21.21,0,1,1,.39-.17c.22.52.43,1,.62,1.56a.22.22,0,0,1-.13.28Zm-1.78-4a.23.23,0,0,1-.19-.11c-.25-.49-.52-1-.8-1.45a.22.22,0,1,1,.37-.22q.42.72.81,1.47a.21.21,0,0,1-.09.29Z"/><path class="cls-14" d="M150.42,155.79h0l-.83-.21a.22.22,0,0,1,.1-.42l.83.21a.21.21,0,0,1-.05.42Z"/><path class="cls-14" d="M129.32,140.64a.22.22,0,0,1-.18-.1c-.15-.25-.3-.49-.44-.74a.22.22,0,1,1,.37-.22c.14.25.29.49.44.73a.22.22,0,0,1-.07.3Z"/><path class="cls-14" d="M127.57,137.41a.22.22,0,0,1-.2-.12c-.24-.52-.48-1.06-.7-1.6a.21.21,0,0,1,.11-.28.22.22,0,0,1,.28.12c.22.53.46,1.06.7,1.57a.22.22,0,0,1-.1.29Zm-1.67-4.23a.22.22,0,0,1-.21-.15c-.09-.29-.18-.57-.26-.86s-.16-.55-.23-.82a.22.22,0,0,1,.15-.26.22.22,0,0,1,.27.15c.07.27.14.54.22.81s.17.57.26.85a.22.22,0,0,1-.14.27Zm-1.1-4.42a.21.21,0,0,1-.21-.18c-.1-.57-.19-1.15-.26-1.72a.2.2,0,0,1,.18-.24.21.21,0,0,1,.24.18c.07.57.16,1.14.26,1.71a.22.22,0,0,1-.17.25Zm-.5-4.52a.22.22,0,0,1-.21-.21c0-.46,0-.93,0-1.4v-.35a.22.22,0,1,1,.43,0v.34c0,.46,0,.93,0,1.38a.21.21,0,0,1-.21.22Zm.12-4.56h0a.21.21,0,0,1-.19-.23q.09-.87.21-1.74a.23.23,0,0,1,.24-.18.22.22,0,0,1,.18.25c-.08.56-.15,1.14-.2,1.71A.22.22,0,0,1,124.42,119.68Zm.74-4.49h0a.22.22,0,0,1-.16-.26c.13-.57.28-1.14.44-1.69a.22.22,0,0,1,.27-.15.21.21,0,0,1,.14.27c-.15.55-.3,1.11-.43,1.67A.23.23,0,0,1,125.16,115.19Zm1.33-4.35-.07,0a.21.21,0,0,1-.13-.27c.21-.54.43-1.09.67-1.62a.21.21,0,0,1,.28-.11.22.22,0,0,1,.11.29c-.23.52-.45,1.06-.66,1.59A.2.2,0,0,1,126.49,110.84Zm1.91-4.14a.2.2,0,0,1-.19-.31c.27-.51.57-1,.87-1.51a.22.22,0,0,1,.37.22c-.3.49-.59,1-.87,1.49A.21.21,0,0,1,128.4,106.7Zm2.43-3.84a.19.19,0,0,1-.12,0,.21.21,0,0,1-.05-.3c.34-.47.7-.93,1.07-1.38a.21.21,0,0,1,.3,0,.22.22,0,0,1,0,.3c-.36.44-.72.9-1.05,1.36A.23.23,0,0,1,130.83,102.86Zm2.93-3.48a.24.24,0,0,1-.15-.06.22.22,0,0,1,0-.3c.4-.42.82-.83,1.24-1.23a.22.22,0,0,1,.3,0,.22.22,0,0,1,0,.31c-.41.39-.83.79-1.22,1.21A.23.23,0,0,1,133.76,99.38Zm3.37-3a.19.19,0,0,1-.16-.09.21.21,0,0,1,0-.3c.45-.36.92-.71,1.4-1a.2.2,0,0,1,.29,0,.21.21,0,0,1-.05.3c-.46.33-.93.68-1.37,1A.24.24,0,0,1,137.13,96.33Zm3.75-2.58a.2.2,0,0,1-.18-.1.21.21,0,0,1,.08-.29c.49-.3,1-.58,1.52-.85a.2.2,0,0,1,.29.09.22.22,0,0,1-.09.29c-.51.26-1,.54-1.51.83A.14.14,0,0,1,140.88,93.75Zm4.07-2a.23.23,0,0,1-.2-.13.22.22,0,0,1,.12-.28c.53-.22,1.08-.44,1.62-.63a.21.21,0,1,1,.15.4c-.54.19-1.08.4-1.61.63Zm4.3-1.48a.2.2,0,0,1-.2-.15.21.21,0,0,1,.15-.27c.56-.15,1.13-.29,1.69-.41a.22.22,0,0,1,.26.16.23.23,0,0,1-.16.26c-.56.12-1.13.26-1.68.41Zm15.26-.56h0c-.56-.1-1.13-.2-1.7-.28a.21.21,0,0,1-.18-.24.2.2,0,0,1,.24-.18c.57.08,1.15.17,1.72.28a.22.22,0,0,1,.17.26A.21.21,0,0,1,164.51,89.67Zm-10.79-.33a.21.21,0,0,1-.21-.19.21.21,0,0,1,.18-.24c.57-.07,1.16-.14,1.74-.18a.21.21,0,0,1,.23.2.22.22,0,0,1-.2.23c-.57,0-1.15.1-1.71.18ZM160,89.1h0c-.57,0-1.15,0-1.72,0a.21.21,0,0,1-.21-.21.21.21,0,0,1,.21-.22h0c.58,0,1.17,0,1.75.06a.21.21,0,1,1,0,.42Z"/><path class="cls-14" d="M168.09,90.57H168l-.82-.24a.22.22,0,0,1-.15-.27.21.21,0,0,1,.27-.14l.82.24a.21.21,0,0,1,.14.27A.2.2,0,0,1,168.09,90.57Z"/><path class="cls-14" d="M168.84,99a.41.41,0,0,0-.47,0l-3.76,3.2a21.54,21.54,0,0,0-6.9-1L155,97.15a.43.43,0,0,0-.44-.17l-5.74,1.48a.39.39,0,0,0-.3.36l-.4,4.92a21.56,21.56,0,0,0-5.57,4.19l-4.84-1a.4.4,0,0,0-.43.19l-3,5.1a.41.41,0,0,0,0,.47l3.2,3.76a21.5,21.5,0,0,0-1,6.9l-4.12,2.72a.41.41,0,0,0-.17.44l1.48,5.73a.42.42,0,0,0,.36.31L139,133a21.23,21.23,0,0,0,4.19,5.57l-1,4.84a.4.4,0,0,0,.19.43l5.1,3a.41.41,0,0,0,.47,0l3.76-3.2a21.27,21.27,0,0,0,6.9,1l2.72,4.12a.4.4,0,0,0,.44.17l5.73-1.48a.41.41,0,0,0,.31-.36l.39-4.91a21.45,21.45,0,0,0,5.57-4.19l4.84,1a.42.42,0,0,0,.43-.2l3-5.09a.39.39,0,0,0,0-.47l-3.2-3.76a21.31,21.31,0,0,0,1-6.9l4.12-2.72a.41.41,0,0,0,.17-.44l-1.47-5.74a.4.4,0,0,0-.36-.3l-4.92-.4a21.79,21.79,0,0,0-4.19-5.57l1-4.84a.43.43,0,0,0-.19-.43Z"/><path class="cls-15" d="M158.16,128.49a5.75,5.75,0,0,1-1.58-.23,5.58,5.58,0,0,1,3.15-10.71,5.58,5.58,0,0,1-1.57,10.94Zm0-10.52a4.94,4.94,0,1,0,2.37,9.27,4.94,4.94,0,0,0-1-9.07A4.79,4.79,0,0,0,158.15,118Z"/><path class="cls-15" d="M158.1,137.63A14.65,14.65,0,0,1,143.48,123a14.64,14.64,0,0,1,11-14.12,14.27,14.27,0,0,1,2.82-.44h.26l0,.65a14.1,14.1,0,0,0-2.95.43h0c-.32.08-.65.18-1,.28a13.89,13.89,0,0,0-7.12,5.4l-.14.22-.33.52a14,14,0,1,0,21.86-2.82l.45-.46a14.6,14.6,0,0,1,3.87,6.75,14.32,14.32,0,0,1,.47,3.64,14.64,14.64,0,0,1-11,14.15A14.19,14.19,0,0,1,158.1,137.63Z"/><path class="cls-16" d="M89.46,366.6H12.71a4.43,4.43,0,0,1-4.44-4.43V288.06a4.44,4.44,0,0,1,4.42-4.43l77.37-.2a4.43,4.43,0,0,1,4.44,4.45l-.61,74.31A4.44,4.44,0,0,1,89.46,366.6Z"/><path class="cls-15" d="M85.7,289.1l-68.63.42A4.5,4.5,0,0,0,12.6,294l.48,62.33a4.49,4.49,0,0,0,4.41,4.47l66.68,1.22a4.51,4.51,0,0,0,4.58-4.44l1.47-64A4.5,4.5,0,0,0,85.7,289.1Z"/><rect class="cls-17" x="27.34" y="293.53" width="55.57" height="3.16" rx="1.35"/><path class="cls-18" d="M77,300.83h0a1.33,1.33,0,0,1-1.31,1.27l-46.25.84a1.34,1.34,0,0,1-1.37-1.34v-.11a1.35,1.35,0,0,1,1.33-1.35l46.24-.73A1.34,1.34,0,0,1,77,300.83Z"/><path class="cls-19" d="M81.73,358.53h0l-62.55-.75a3.82,3.82,0,0,1-3.78-3.9l1.61-44a3.78,3.78,0,0,1,1.17-2.68,3.87,3.87,0,0,1,2.73-1.07l62.44,1.22a3.84,3.84,0,0,1,3.76,3.9h0l-1.5,43.54A3.84,3.84,0,0,1,81.73,358.53ZM20.79,307.39a2.54,2.54,0,0,0-2.56,2.51l-1.61,44a2.53,2.53,0,0,0,.72,1.82,2.57,2.57,0,0,0,1.81.78l62.54.75h0a2.56,2.56,0,0,0,2.55-2.52l1.5-43.54a2.55,2.55,0,0,0-2.5-2.59l-62.44-1.22Zm65.63,3.83Z"/><path class="cls-20" d="M85.61,315.88H17.49a.64.64,0,0,1,0-1.28H85.61a.64.64,0,1,1,0,1.28Z"/><path class="cls-21" d="M414.6,344.67a6.52,6.52,0,0,1-6.21,6.76H72.27a6.53,6.53,0,0,1-6.22-6.76L63.26,134.32c0-3.72,4-11,11.4-10.43l328.49-9.26a15,15,0,0,1,11.47,5,17.84,17.84,0,0,1,4.6,12.47Z"/><path class="cls-22" d="M408.47,338.18a6.18,6.18,0,0,1-5.88,6.4H80.38a6.17,6.17,0,0,1-5.88-6.4l-2.64-191c.31-11.49,9.56-15.62,15.17-15.38l314.83-9.2a10.54,10.54,0,0,1,8.06,3.5,12.6,12.6,0,0,1,3.23,8.77Z"/><path class="cls-16" d="M96.16,337.84a9.61,9.61,0,0,1-9.66-9.16l-5-178.11a9.55,9.55,0,0,1,9.32-9.67L395.6,130.41a9.8,9.8,0,0,1,7.19,2.77A9.21,9.21,0,0,1,405.6,140L403,325.1a9.5,9.5,0,0,1-9.55,9.29L96.28,337.84ZM90.79,141.33v.42a8.69,8.69,0,0,0-8.49,8.8l5,178.1a8.73,8.73,0,0,0,8.8,8.33h.11l297.17-3.44a8.65,8.65,0,0,0,8.7-8.45l2.61-185.15a8.4,8.4,0,0,0-2.56-6.15,9,9,0,0,0-6.56-2.53L90.8,141.75Z"/><path class="cls-23" d="M53.11,350.41H434.37a7.5,7.5,0,0,1,7.5,7.5v3.47a7.51,7.51,0,0,1-7.51,7.51H53.11a7.51,7.51,0,0,1-7.51-7.51v-3.47a7.51,7.51,0,0,1,7.51-7.51Z"/><path class="cls-16" d="M96.26,146l218.46-5.12c3.55-.09,6.49,2,6.49,4.66V148c0,2.53-2.72,4.61-6.14,4.67l-218.36,4.1c-3.42.07-6.28-1.9-6.45-4.44l-.09-1.41C90,148.29,92.74,146.08,96.26,146Z"/><path class="cls-24" d="M314.69,146.67A6.63,6.63,0,1,0,301.53,145a6.78,6.78,0,0,0,1.48,5.16l-6.77,5.2a.94.94,0,0,0-.09,1.38l.06.07a.87.87,0,0,0,1.24,0l6.14-6.05a6.56,6.56,0,0,0,3.68,1.73A6.69,6.69,0,0,0,314.69,146.67Zm-7.2,4.08a4.94,4.94,0,1,1,5.44-4.3A4.9,4.9,0,0,1,307.49,150.75Z"/><path class="cls-25" d="M92.14,240.05l3.65,81.54c.12,2.75,4.27,4.93,9.3,4.89l107-.8c5,0,9.07-2.28,9.05-5l-.37-82.31c0-2.81-4.26-5.07-9.42-5l-110.22,1.57C96,235,92,237.28,92.14,240.05Z"/><path class="cls-26" d="M241.66,162.64l67-.81c6.86-.09,12.55,2.14,12.61,4.94l1.13,55.4c.06,2.79-5.53,5.06-12.39,5l-69.8-.35c-3.93,0-7.11-1.3-7.2-2.9l-3.28-56.21C229.62,165,234.93,162.73,241.66,162.64Z"/><path class="cls-27" d="M109,161.38l95.41-.84c9.77-.09,17.86,2.21,18,5.09l1.62,57.1c.08,2.87-7.88,5.21-17.64,5.17L107,227.54c-5.59,0-10.12-1.34-10.25-3l-4.66-57.93C91.85,163.81,99.39,161.46,109,161.38Z"/><path class="cls-28" d="M241.5,233.89l67.05-1.19c6.86-.13,12.55,3.15,12.61,7.25l1.13,81.35c.06,4.1-5.53,7.42-12.39,7.37l-69.8-.51c-3.93,0-7.11-1.91-7.2-4.25l-3.28-82.53C229.46,237.36,234.77,234,241.5,233.89Z"/><path class="cls-29" d="M339.93,138.41l52.3-.85c5.36-.08,9.8,2.22,9.84,5.11l.89,57.22c.05,2.89-4.32,5.23-9.67,5.19l-54.45-.36c-3.07,0-5.55-1.34-5.62-3l-2.56-58.06C330.54,140.84,334.68,138.49,339.93,138.41Z"/><path class="cls-30" d="M340.21,212.77l52.31-.66c5.35-.07,9.79,1.74,9.84,4l.89,44.9c0,2.27-4.32,4.1-9.67,4.08l-54.46-.29c-3.06,0-5.55-1.05-5.62-2.35L331,216.9C330.82,214.68,335,212.83,340.21,212.77Z"/><path class="cls-31" d="M338.71,271.94l52.3-.7c5.36-.07,9.8,1.85,9.84,4.26l.89,47.82c.05,2.41-4.32,4.37-9.67,4.34l-54.45-.3c-3.07,0-5.55-1.12-5.62-2.5l-2.56-48.52C329.32,274,333.46,272,338.71,271.94Z"/><path class="cls-15" d="M311.22,234.5h-72.7c-2.32,0-4.2-1.39-4.2-3.1V179.54c0-1.71,1.88-3.09,4.19-3.1l73.28-.14c2.33,0,4.22,1.39,4.21,3.11l-.58,52C315.41,233.12,313.53,234.5,311.22,234.5Z"/><path class="cls-14" d="M307.66,180.27l-65,.29c-2.35,0-4.24,1.43-4.23,3.16l.45,43.62c0,1.71,1.87,3.1,4.18,3.13l63.17.85c2.36,0,4.3-1.36,4.33-3.1l1.39-44.76C312,181.69,310.05,180.25,307.66,180.27Z"/><path class="cls-15" d="M305,184.31v.33c0,.52-.57.94-1.28.94H253.65c-.7,0-1.27-.42-1.27-.94v-.33c0-.52.57-.94,1.27-.94h50.09C304.45,183.37,305,183.79,305,184.31Z"/><path class="cls-15" d="M299.43,188.48h0a1.17,1.17,0,0,1-1.25.89l-43.81.59c-.71,0-1.29-.42-1.29-1v-.07c0-.52.56-.94,1.25-.94l43.81-.52C298.87,187.47,299.47,187.93,299.43,188.48Z"/><path class="cls-15" d="M303.9,229h0l-59.25-.52a4,4,0,0,1-2.86-1.12,2.5,2.5,0,0,1-.73-1.78l1.53-30.81c0-1.53,1.66-2.76,3.63-2.76h.06l59.15.85a4,4,0,0,1,2.83,1.12,2.48,2.48,0,0,1,.73,1.77h0l-1.42,30.47C307.49,227.8,305.9,229,303.9,229Zm-57.72-35.79c-1.3,0-2.4.73-2.43,1.61l-1.52,30.81a1.3,1.3,0,0,0,.39.89,2.89,2.89,0,0,0,2,.75l59.25.52h0c1.29,0,2.4-.74,2.42-1.61l1.42-30.47a1.28,1.28,0,0,0-.39-.9,2.87,2.87,0,0,0-2-.76l-59.14-.85Zm62.17,2.53Z"/><path class="cls-15" d="M307.58,199.17H243.05a.61.61,0,0,1,0-1.21h64.53a.61.61,0,0,1,0,1.21Z"/><path class="cls-32" d="M253.26,233.25s11.75,15-1.65,30.34l-5-.47s9.7-15.57,5.38-28l-7.14.52-3.95-2.57Z"/><path class="cls-33" d="M246.83,306.89s-9.52,20.74-14.51,29.34c0,0-1,5.4,0,7.1l.84.38-3.94-.12s-.35-7.27-.08-7.68a1,1,0,0,1,.82-.38s1.69-13.4,6.59-16.26l4.75-16.35Z"/><path class="cls-34" d="M234.85,344.73c0,.09-3.08,0-4.76,0a1.34,1.34,0,0,1-1.28-1.05l-1.26-6.65a1.19,1.19,0,0,1,.91-1.39l.7-.17a3.79,3.79,0,0,1,.69,2.69c-.31,1.3-.6,4.67.21,5.07a11.75,11.75,0,0,0,3.1.46S234.8,343.87,234.85,344.73Z"/><path class="cls-35" d="M255.85,344.85a.35.35,0,0,1-.17.65c-2.81,0-9.1-.12-9.66-.35-.72-.3.27-2.89,1.3-3.77l5.72,1.87Z"/><path class="cls-36" d="M257.63,305.57s-6.15,29.75-7.89,35.56l4.11,2.58s-2.06-.35-3.59-.46-2.94-1.87-2.94-1.87l.5-.79S249.36,311,249,307.64Z"/><path class="cls-37" d="M272.89,236.16s.85,15.48-13.24,23.39l3.39,7.74s12.76-7.72,12.29-28.77a2.41,2.41,0,0,1,.6-1.64l2.71-3.15a4.89,4.89,0,0,0,1-4.36l-.36-1.43a.75.75,0,0,0-1.09-.46l-.28.17a5,5,0,0,0-2.05,2.27l-1.33,3a2.87,2.87,0,0,1-2.86,1.68l-.82-.07Z"/><path class="cls-38" d="M260.14,258.39c-2.36.65-10.34,2.76-15.33,2.67l3.06,17.28-.24,2.81,10,0a76.9,76.9,0,0,1,5-9.78c.64-.94.16-2.06-.2-3.14l.5-.33a1.36,1.36,0,0,0,.53-1.55L261,258.87A.75.75,0,0,0,260.14,258.39Z"/><path class="cls-39" d="M258.41,279.63l-.2,1.71s2.82,8.45-1.41,28.18c0,0-9.16,2.6-16.69-3.62,0,0,2.12-18.62,2.7-19.49,2.89-4.32,4.82-5.26,4.82-5.26l.09-1.86S255.77,280.75,258.41,279.63Z"/><path class="cls-40" d="M254.5,259.78s-2.08-6.39-2.08-6.39l-3,.27-1.18,7.21S253,261.83,254.5,259.78Z"/><path class="cls-41" d="M250.11,243.37c.2.13,6.49,2.72,5.14,9.25a1.23,1.23,0,0,1-.7.87,10.68,10.68,0,0,1-5.28.87c-3.29-.33-5.45-6.08-5.36-7.75S248.1,242.12,250.11,243.37Z"/><path class="cls-42" d="M248.2,240.83a2.74,2.74,0,0,1,2.36,2.77c-.18,1.27-1.53,1.54-2.14,2.46-1.41,2.12-.13,5.74,1.18,7.63,3.94,5.69,10.4,12.6,6,20-2.88,4.81-9.29,7.54-14.75,6.93-2.9-.32-5.71-3.34-7.08-5.76a15.39,15.39,0,0,1-1.24-11.43c1-3.62,4.22-6.48,6.34-9.5a6.43,6.43,0,0,0,1.49-3.64c0-.83-.32-1.63-.41-2.46C239.44,243.62,244.46,240.34,248.2,240.83Z"/><path class="cls-16" d="M238.91,275.24l.1-.15a7.64,7.64,0,0,1-3.27-6.56,15.3,15.3,0,0,1,2.18-7.29c.55-1,1.17-2.05,1.77-3,.73-1.18,1.47-2.4,2.11-3.66a5.58,5.58,0,0,0,.8-3.77,6.74,6.74,0,0,0-.88-1.86c-.55-.92-1.08-1.79-.8-2.75l-.18,0a3.77,3.77,0,0,0,.83,2.9,7.24,7.24,0,0,1,.86,1.8,5.51,5.51,0,0,1-.79,3.65c-.64,1.25-1.38,2.47-2.1,3.65-.6,1-1.22,2-1.78,3a15.55,15.55,0,0,0-2.2,7.38A7.84,7.84,0,0,0,238.91,275.24Z"/><path class="cls-16" d="M240.31,274.85l.15-.1a11.46,11.46,0,0,1-1.59-8.57,25.13,25.13,0,0,1,3.43-8.24l-.16-.09a25.31,25.31,0,0,0-3.45,8.3A11.6,11.6,0,0,0,240.31,274.85Z"/><path class="cls-14" d="M194.42,243.56l-69.79-.62a2.45,2.45,0,0,0-2.47,2.47l.3,53.55A2.45,2.45,0,0,0,125,301.4c12.62-.38,68.65-2,71.12-1.94s1.12-42.91.75-53.53A2.46,2.46,0,0,0,194.42,243.56Z"/><path class="cls-4" d="M124.91,299.34a.4.4,0,0,1-.39-.39l-.3-53.56a.39.39,0,0,1,.11-.27.35.35,0,0,1,.28-.12l69.79.63a.39.39,0,0,1,.39.37c.9,26.24.92,46.39,0,51.32v.08h-.09c-9.25.13-59.77,1.63-69.81,1.92Zm-.3-54.12a.17.17,0,0,0-.18.17l.31,53.56a.18.18,0,0,0,.17.17v0c10-.3,60.24-1.79,69.72-1.93.85-5.06.83-25.11-.07-51.18a.17.17,0,0,0-.17-.17Z"/><path class="cls-43" d="M186,292.49H140.25a1.84,1.84,0,0,1-1.59-2.77l18.11-30.79a1.84,1.84,0,0,1,3.27.17l8.74,19.16a1.84,1.84,0,0,0,2.92.59l3.54-3.24a1.83,1.83,0,0,1,2.75.31l9.52,13.68A1.84,1.84,0,0,1,186,292.49Z"/><circle class="cls-44" cx="140.87" cy="258" r="6.58" transform="translate(-141.17 175.18) rotate(-45)"/><path class="cls-45" d="M81,307.74c1.61-5.94,6.57-10.82,12.1-12.06a1.85,1.85,0,0,0,1.37-2.27v0c-.8-3.46,1.42-6.21,4.75-7s6.54.72,7.35,4.17a7.66,7.66,0,0,1-1.69,6.65,1.87,1.87,0,0,0-.07,2.47,17.3,17.3,0,0,1,3.28,15.36c-2.14,7.93-9.61,11.48-17.08,9.46S78.84,315.67,81,307.74Z"/><path class="cls-16" d="M83.31,315.31l.15-.1a7.46,7.46,0,0,1-.45-7.16,15,15,0,0,1,4.75-5.75c.89-.71,1.84-1.39,2.75-2.05,1.11-.79,2.25-1.61,3.3-2.5a5.5,5.5,0,0,0,2.16-3.1,6.81,6.81,0,0,0-.08-2,3.45,3.45,0,0,1,.32-2.78l-.14-.12a3.65,3.65,0,0,0-.36,2.93,6.78,6.78,0,0,1,.09,1.95,5.34,5.34,0,0,1-2.1,3c-1,.89-2.19,1.7-3.29,2.49-.92.66-1.87,1.35-2.76,2.07A15.16,15.16,0,0,0,82.84,308,7.69,7.69,0,0,0,83.31,315.31Z"/><path class="cls-16" d="M86.87,316.46l.16-.06a11.22,11.22,0,0,1,.73-8.5A24.61,24.61,0,0,1,93.15,301l-.13-.13a24.85,24.85,0,0,0-5.42,6.94A11.36,11.36,0,0,0,86.87,316.46Z"/><path class="cls-46" d="M122.72,283.87l.06-2.05-2.14-4.26a2.81,2.81,0,0,1,0-2.48l2.43-4.9s1.4,10.65,1.77,11.53-1,2.47-1,2.47Z"/><path class="cls-47" d="M122.78,281.82s-6.52,17.78-17.63,23.34c0,0,3.7,6,5.63,6.4,0,0,11.87-15.2,13.08-27.64Z"/><path class="cls-48" d="M78.09,388.77l-.33,2.69c-.34,1.29-2,4.51-4.1,4.3-1.31-.13-1.46-3.93-1.28-4.5a9.73,9.73,0,0,1,1.81-3.53h3A.92.92,0,0,1,78.09,388.77Z"/><path class="cls-49" d="M101.52,357.18l.5,3s-1.69,17.13-2,24a5.39,5.39,0,0,0,.8,3.05l2.94,4.77-7.47-4.41-.15-.91L97.37,385l-1.6-19.19a5.84,5.84,0,0,1,.67-3.25l1.54-2.9Z"/><path class="cls-50" d="M104.26,392.64h-2.39a1.41,1.41,0,0,1-1.13-.56c-.75-1-2.29-2.85-3-2.9-1-.06-.87,3.46-.87,3.46H96.3l-.71-4.38A2.59,2.59,0,0,1,97,385.55h0A3.68,3.68,0,0,0,98.41,388c1.23.74,5,3.4,5,3.4a3.35,3.35,0,0,1,1,0A.63.63,0,0,1,104.26,392.64Z"/><path class="cls-51" d="M91.29,358.59s-9.91,18.79-11.48,23.08a40.79,40.79,0,0,0-2.15,8.21c0,.53-.69,1-2.51,1a1.74,1.74,0,0,1-1.62-.74,1.06,1.06,0,0,1,0-1c.58-1.16,2.39-4.87,3.07-6.55.8-2,2.53-11.1,3.48-14.26s2-6.59,6.15-9.75C86.19,358.59,89,355.82,91.29,358.59Z"/><path class="cls-52" d="M97.54,327.81A19,19,0,0,0,96,314.18a4.62,4.62,0,0,1,1.93-6.29,35.7,35.7,0,0,1,7.22-2.73s7.1,5.19,6.26,9.25c-.5,2.38-5,14.26-5,14.26A9.89,9.89,0,0,1,97.54,327.81Z"/><path class="cls-53" d="M91.88,333.17c1-3.13,5.66-5.36,5.66-5.36a9.89,9.89,0,0,0,8.88.86,17.89,17.89,0,0,1,.29,6.88c-.65,3.31-4.69,24.6-4.69,24.6-6.36,1.29-16.14-1.3-16.14-1.3C89.93,351.66,90.84,336.3,91.88,333.17Z"/><path class="cls-54" d="M100.51,298l-2.08,9.33c-.2.82.55.69,1.38.53,1.36-.25,3.12-.78,3.7-1.84a1.1,1.1,0,0,0,.11-.35l.89-6.47a1.15,1.15,0,0,0-.68-1.22l-1.72-.77A1.17,1.17,0,0,0,100.51,298Z"/><path class="cls-55" d="M126.47,291.84S121,310.83,99,309.05a2.55,2.55,0,0,0-2.76,2.34l-.06.76a3.4,3.4,0,0,0,3.56,3.66c7.33-.37,23.07-3.25,28.47-20.67Z"/><path class="cls-56" d="M128.17,295.14a36.09,36.09,0,0,0,1.32-5,16.17,16.17,0,0,0-1.55-7.49c-.83-1.22-1,1.77-1.35,3.17a7.55,7.55,0,0,0,.26,3.41l-.38,2.63Z"/><path class="cls-57" d="M104.77,290.31s5.25,7.65,2,9.78-7-3.31-7-3.31-1.18-4.15.16-5.53S104.77,290.31,104.77,290.31Z"/><path class="cls-58" d="M102.56,288.45s2.29.59,2.59,1.63-3.29,1.94-4.29,2l-.89,4.17s-2.31-4-1.33-6.24S102.56,288.45,102.56,288.45Z"/><path class="cls-59" d="M100.8,296.25s-2-2.47-2.91-.9,1.83,2.81,2.79,2Z"/><path class="cls-60" d="M87.31,185.21a.43.43,0,0,1-.22.09.38.38,0,0,1-.42-.34c0-.51-.07-1-.1-1.53a.38.38,0,1,1,.76,0c0,.5.06,1,.1,1.5A.41.41,0,0,1,87.31,185.21Z"/><path class="cls-61" d="M150.78,149.79a.38.38,0,0,1-.48,0c-.82-.61-1.67-1.2-2.54-1.74a.38.38,0,0,1-.12-.52.37.37,0,0,1,.52-.12c.89.55,1.76,1.15,2.6,1.77a.38.38,0,0,1,.07.54Zm-7-4.18a.38.38,0,0,1-.41.07c-.93-.43-1.89-.83-2.85-1.19a.36.36,0,0,1-.22-.48.38.38,0,0,1,.48-.23c1,.37,2,.77,2.91,1.21a.37.37,0,0,1,.18.5A.27.27,0,0,1,143.76,145.61ZM136,143a.38.38,0,0,1-.34.09c-1-.24-2-.43-3-.59a.38.38,0,1,1,.11-.75c1,.16,2.07.36,3.09.6a.38.38,0,0,1,.28.46A.37.37,0,0,1,136,143ZM87.28,178.63a.35.35,0,0,1-.28.1.38.38,0,0,1-.35-.41c.08-1,.21-2.09.37-3.12a.38.38,0,1,1,.75.12c-.16,1-.28,2-.36,3.06A.38.38,0,0,1,87.28,178.63Zm40.66-36.71a.36.36,0,0,1-.27.1c-1,0-2.06,0-3.08,0a.38.38,0,1,1,0-.76c1-.06,2.1-.07,3.14-.05a.38.38,0,0,1,.37.39A.36.36,0,0,1,127.94,141.92ZM88.76,170.6a.38.38,0,0,1-.62-.39c.3-1,.63-2,1-3a.37.37,0,0,1,.49-.22.38.38,0,0,1,.22.48c-.36,1-.69,1.95-1,2.93A.42.42,0,0,1,88.76,170.6Zm31-28a.38.38,0,0,1-.19.09c-1,.18-2,.41-3,.68a.38.38,0,1,1-.19-.73c1-.28,2-.51,3.07-.7a.39.39,0,0,1,.44.31A.41.41,0,0,1,119.8,142.57ZM91.83,163a.37.37,0,0,1-.43.05.39.39,0,0,1-.16-.51c.49-.92,1-1.84,1.59-2.72a.38.38,0,0,1,.52-.12.39.39,0,0,1,.12.53c-.55.86-1.07,1.76-1.56,2.66A.44.44,0,0,1,91.83,163ZM112,144.87l-.11.07c-.95.38-1.89.81-2.81,1.27a.38.38,0,1,1-.34-.67c.94-.47,1.9-.91,2.87-1.31a.38.38,0,0,1,.49.21A.39.39,0,0,1,112,144.87Zm-7.2,3.84-.05,0c-.85.57-1.68,1.19-2.49,1.82a.37.37,0,0,1-.53-.06.38.38,0,0,1,.06-.53c.82-.65,1.67-1.27,2.54-1.86a.39.39,0,0,1,.53.11A.4.4,0,0,1,104.76,148.71Zm-8.37,7.54a.38.38,0,0,1-.55-.53c.67-.8,1.38-1.58,2.11-2.33a.38.38,0,1,1,.55.53c-.72.73-1.42,1.5-2.07,2.29Z"/><path class="cls-62" d="M155.72,154.15a.37.37,0,0,1-.52,0c-.35-.36-.7-.71-1.06-1.06a.38.38,0,0,1,0-.54.39.39,0,0,1,.53,0c.37.36.73.72,1.08,1.09a.37.37,0,0,1,0,.53Z"/><path class="cls-63" d="M166.81,183.18a.4.4,0,0,1-.26.1.39.39,0,0,1-.37-.39c0-.51,0-1,0-1.51a.39.39,0,0,1,.37-.38.38.38,0,0,1,.38.38c0,.51,0,1,0,1.53A.39.39,0,0,1,166.81,183.18Z"/><path class="cls-64" d="M153.71,211.3l-.25.23A.38.38,0,1,1,153,211h0l.25-.23c.67-.6,1.32-1.23,2-1.88a.38.38,0,0,1,.53,0,.37.37,0,0,1,0,.53C155.06,210.05,154.39,210.69,153.71,211.3Zm-4.18,3.3,0,0c-.84.58-1.72,1.13-2.61,1.65a.38.38,0,0,1-.52-.14.38.38,0,0,1,.14-.52c.87-.5,1.73-1.05,2.57-1.62a.37.37,0,0,1,.52.1A.38.38,0,0,1,149.53,214.6Zm9.37-9a.38.38,0,0,1-.48,0,.38.38,0,0,1-.08-.53c.61-.81,1.19-1.65,1.73-2.5a.38.38,0,1,1,.64.4c-.55.87-1.14,1.73-1.76,2.55Zm-16.42,12.83-.1.07c-.95.4-1.93.77-2.9,1.1a.39.39,0,0,1-.48-.24.37.37,0,0,1,.24-.48c.95-.32,1.91-.68,2.84-1.08a.39.39,0,0,1,.5.2A.38.38,0,0,1,142.48,218.45ZM163,198.73a.42.42,0,0,1-.42.06.38.38,0,0,1-.18-.51c.43-.91.83-1.85,1.19-2.79a.37.37,0,0,1,.49-.22.38.38,0,0,1,.22.48c-.37,1-.78,1.93-1.21,2.85A.38.38,0,0,1,163,198.73ZM134.8,220.82a.38.38,0,0,1-.18.09c-1,.2-2,.37-3.05.49a.38.38,0,1,1-.09-.75c1-.12,2-.29,3-.48a.38.38,0,0,1,.45.29A.37.37,0,0,1,134.8,220.82Zm30.91-29.68a.4.4,0,0,1-.35.09.38.38,0,0,1-.27-.46c.23-1,.44-2,.6-3a.39.39,0,0,1,.44-.31.39.39,0,0,1,.31.44c-.17,1-.38,2-.62,3A.4.4,0,0,1,165.71,191.14ZM126.8,221.59a.36.36,0,0,1-.25.1c-1,0-2.07-.05-3.09-.14a.37.37,0,0,1-.35-.41.38.38,0,0,1,.41-.34c1,.08,2,.13,3,.13a.38.38,0,0,1,.38.38A.37.37,0,0,1,126.8,221.59Zm-8-.86a.35.35,0,0,1-.33.09c-.79-.16-1.59-.36-2.37-.57l-.63-.18a.38.38,0,1,1,.21-.73l.62.18c.77.21,1.55.4,2.33.56a.39.39,0,0,1,.29.45A.37.37,0,0,1,118.81,220.73Zm-7.66-2.43a.36.36,0,0,1-.4.07c-1-.41-1.88-.86-2.79-1.34a.37.37,0,0,1-.16-.51.37.37,0,0,1,.51-.16c.89.47,1.81.91,2.74,1.31a.39.39,0,0,1,.2.5A.45.45,0,0,1,111.15,218.3Zm-7-3.92a.38.38,0,0,1-.47,0c-.84-.59-1.67-1.22-2.46-1.87a.38.38,0,0,1,.48-.59c.78.64,1.59,1.26,2.42,1.84a.38.38,0,0,1,.09.53A.34.34,0,0,1,104.13,214.38Z"/><path class="cls-65" d="M98,209.11a.38.38,0,0,1-.53,0c-.34-.37-.69-.75-1-1.13a.4.4,0,0,1,0-.54.39.39,0,0,1,.54,0c.33.38.67.75,1,1.11a.39.39,0,0,1,0,.54Z"/><path class="cls-66" d="M101.36,198.56a.49.49,0,0,0,.5.25l5.75-.89a25.27,25.27,0,0,0,6.32,5.24l.19,5.82a.47.47,0,0,0,.34.44l6.66,2.06a.47.47,0,0,0,.53-.18l3.43-4.69a25.42,25.42,0,0,0,8.18-.77l4.25,4a.48.48,0,0,0,.55.08l6.17-3.26a.49.49,0,0,0,.25-.5l-.89-5.75a25.27,25.27,0,0,0,5.24-6.32l5.81-.19a.47.47,0,0,0,.44-.33l2.06-6.67a.49.49,0,0,0-.17-.53l-4.7-3.43a25.14,25.14,0,0,0-.76-8.18l4-4.24a.47.47,0,0,0,.07-.55l-3.26-6.18a.47.47,0,0,0-.49-.25l-5.75.9a25.71,25.71,0,0,0-6.32-5.25l-.19-5.81a.48.48,0,0,0-.34-.44l-6.67-2.06a.48.48,0,0,0-.52.17l-3.44,4.7a25.33,25.33,0,0,0-8.17.76l-4.25-4a.5.5,0,0,0-.55-.07l-6.17,3.26a.48.48,0,0,0-.25.5l.89,5.75a25.1,25.1,0,0,0-5.24,6.32l-5.82.18a.49.49,0,0,0-.44.34l-2.06,6.67a.48.48,0,0,0,.18.53l4.69,3.43a25.42,25.42,0,0,0,.77,8.18l-4,4.24a.47.47,0,0,0-.07.55Z"/><path class="cls-67" d="M131.37,186.19h0a6.76,6.76,0,0,1-11.28-5.39,6.76,6.76,0,1,1,11.29,5.38Zm-8.31-9.2a5.61,5.61,0,0,0-1.85,3.88,5.55,5.55,0,0,0,1.44,4.06,5.62,5.62,0,0,0,7.95.42h0a5.63,5.63,0,1,0-7.53-8.36Z"/><path class="cls-68" d="M138.64,194a17.45,17.45,0,0,1-20.23,2.27l.56-1a17,17,0,0,0,3.19,1.37A16.3,16.3,0,0,0,140,190.85l0,0,0,0a15.83,15.83,0,0,0,2.48-4.9,16.13,16.13,0,0,0-1.15-12.4,16.7,16.7,0,0,0-2.33-3.33A16.28,16.28,0,0,0,111.15,185l-1.11.27a17.41,17.41,0,1,1,33.55,1A17.26,17.26,0,0,1,138.64,194Z"/><path class="cls-69" d="M165.63,192.15a.33.33,0,0,1-.11-.15.29.29,0,0,1,.18-.37c.38-.13.76-.25,1.15-.35a.29.29,0,0,1,.15.57c-.37.1-.75.21-1.11.34A.3.3,0,0,1,165.63,192.15Z"/><path class="cls-70" d="M189.13,214.7a.28.28,0,0,1-.12-.33,18.87,18.87,0,0,0,.52-2.37.29.29,0,0,1,.33-.25.3.3,0,0,1,.25.34,18.27,18.27,0,0,1-.53,2.44.29.29,0,0,1-.37.2A.19.19,0,0,1,189.13,214.7Zm.68-6.41a.27.27,0,0,1-.12-.22,19.4,19.4,0,0,0-.33-2.41.3.3,0,0,1,.58-.11,18.49,18.49,0,0,1,.33,2.48.28.28,0,0,1-.27.31A.26.26,0,0,1,189.81,208.29Zm-19.1-17.08a.34.34,0,0,1-.13-.23.3.3,0,0,1,.29-.31c.44,0,.89,0,1.34,0s.78,0,1.16.07a.3.3,0,0,1-.05.59c-.38,0-.75-.06-1.13-.07s-.87,0-1.3,0A.35.35,0,0,1,170.71,191.21ZM188.25,202a.4.4,0,0,1-.1-.12,16.85,16.85,0,0,0-1.14-2.14.31.31,0,0,1,.1-.41.29.29,0,0,1,.4.1,18.74,18.74,0,0,1,1.18,2.21.29.29,0,0,1-.15.39A.3.3,0,0,1,188.25,202Zm-11.15-10a.28.28,0,0,1-.12-.33.29.29,0,0,1,.37-.19,17.36,17.36,0,0,1,2.33.92.29.29,0,0,1,.14.39.29.29,0,0,1-.39.14,20,20,0,0,0-2.26-.89Zm7.53,4.66,0,0a19.79,19.79,0,0,0-1.8-1.62.29.29,0,0,1-.06-.41.31.31,0,0,1,.42-.05,18.33,18.33,0,0,1,1.86,1.67.29.29,0,0,1-.37.45Z"/><path class="cls-71" d="M187,219.42a.29.29,0,0,1-.09-.4c.21-.33.41-.66.59-1a.3.3,0,0,1,.4-.12.29.29,0,0,1,.12.4c-.19.35-.4.7-.61,1a.29.29,0,0,1-.41.09Z"/><path class="cls-72" d="M174.72,227.63a.33.33,0,0,1-.13-.19.3.3,0,0,1,.24-.34l1.14-.24a.29.29,0,0,1,.35.22.29.29,0,0,1-.21.35c-.39.1-.78.18-1.17.25A.28.28,0,0,1,174.72,227.63Z"/><path class="cls-73" d="M162.41,225.51a.3.3,0,0,1-.09-.38.29.29,0,0,1,.4-.11,19.33,19.33,0,0,0,2.15,1,.29.29,0,0,1-.22.54,18.13,18.13,0,0,1-2.22-1.07Zm-3.19-2.3,0,0a18,18,0,0,1-1.72-1.77.29.29,0,0,1,.45-.38,19.26,19.26,0,0,0,1.67,1.71.29.29,0,0,1,0,.41A.29.29,0,0,1,159.22,223.21Zm9.16,4.44a.29.29,0,0,1,.21-.53,19,19,0,0,0,2.38.24.3.3,0,0,1,.28.31.28.28,0,0,1-.3.28,18.16,18.16,0,0,1-2.45-.25A.33.33,0,0,1,168.38,227.65Zm-13.07-9.42a.36.36,0,0,1-.1-.11,18,18,0,0,1-1-2.24.29.29,0,0,1,.55-.21,18.44,18.44,0,0,0,1,2.17.28.28,0,0,1-.12.4A.27.27,0,0,1,155.31,218.23Zm-2-6a.3.3,0,0,1-.12-.2,18.39,18.39,0,0,1-.19-2.46.28.28,0,0,1,.29-.29.29.29,0,0,1,.3.29,18.76,18.76,0,0,0,.18,2.37.3.3,0,0,1-.25.34A.31.31,0,0,1,153.32,212.21Zm.18-6.33a.33.33,0,0,1-.12-.31,17.68,17.68,0,0,1,.65-2.37.29.29,0,0,1,.37-.19.31.31,0,0,1,.19.38,18.18,18.18,0,0,0-.63,2.3.3.3,0,0,1-.35.23Z"/><path class="cls-74" d="M155.83,200a.29.29,0,0,1-.08-.4c.2-.34.43-.68.65-1a.3.3,0,0,1,.41-.07h0a.3.3,0,0,1,.07.41c-.23.31-.44.64-.64,1a.29.29,0,0,1-.41.09Z"/><path class="cls-75" d="M161.24,199.8a.23.23,0,0,0-.06.25l1,2.48a11.81,11.81,0,0,0-1.66,3.4l-2.58.72a.2.2,0,0,0-.16.2l-.2,3.21a.23.23,0,0,0,.13.22l2.48,1a11.86,11.86,0,0,0,1.23,3.58l-1.32,2.34a.23.23,0,0,0,0,.25l2.13,2.41a.23.23,0,0,0,.25.06l2.48-1a11.56,11.56,0,0,0,3.4,1.66l.72,2.59a.22.22,0,0,0,.2.16l3.21.19a.2.2,0,0,0,.21-.13l1-2.48a11.6,11.6,0,0,0,3.58-1.23l2.34,1.32a.2.2,0,0,0,.25,0l2.41-2.13a.23.23,0,0,0,.06-.25l-1-2.48a11.44,11.44,0,0,0,1.66-3.4l2.59-.71a.24.24,0,0,0,.16-.2l.19-3.21a.2.2,0,0,0-.13-.22l-2.48-1a11.6,11.6,0,0,0-1.23-3.58l1.32-2.33a.21.21,0,0,0,0-.26l-2.13-2.41a.21.21,0,0,0-.25-.05l-2.48,1a11.69,11.69,0,0,0-3.4-1.66l-.71-2.58a.22.22,0,0,0-.2-.16l-3.22-.2a.21.21,0,0,0-.21.13l-1,2.48a11.86,11.86,0,0,0-3.58,1.23l-2.33-1.32a.25.25,0,0,0-.26,0Z"/><path class="cls-76" d="M170,212h0a3.3,3.3,0,1,1,5.1-3.33A3.3,3.3,0,0,1,170,212Zm3.22-4.72a2.42,2.42,0,0,0-3.74,2.44,2.39,2.39,0,0,0,1,1.55h0a2.41,2.41,0,0,0,3.35-.63,2.42,2.42,0,0,0,.38-1.81A2.39,2.39,0,0,0,173.17,207.32Z"/><path class="cls-77" d="M167.25,216.15a8.19,8.19,0,0,1-3.58-7.29,7.87,7.87,0,0,1,.24-1.53,1.33,1.33,0,0,1,.05-.19l.85.24a7.19,7.19,0,0,0-.26,1.54h0a7.32,7.32,0,0,0,.09,1.69h0a7.37,7.37,0,0,0,4.31,5.47,7.11,7.11,0,0,0,1.86.52h.24l.36,0a7.31,7.31,0,0,0,5.3-1.82,7.48,7.48,0,0,0,1.21-1.37,7.33,7.33,0,0,0-9.43-10.62l-.41-.78a8.2,8.2,0,0,1,9.21,13.43,8.21,8.21,0,0,1-10,.64Z"/><path class="cls-78" d="M212.86,165.65a.29.29,0,0,1-.13-.23c0-.38,0-.76-.08-1.14a.29.29,0,0,1,.26-.31.28.28,0,0,1,.31.26c0,.38.06.77.08,1.16a.28.28,0,0,1-.27.3A.25.25,0,0,1,212.86,165.65Z"/><path class="cls-79" d="M171,190.45c-.57-.35-1.14-.73-1.68-1.12a.29.29,0,0,1-.07-.4.3.3,0,0,1,.41-.07c.62.45,1.28.88,1.94,1.28h0a.29.29,0,0,1,.09.39.28.28,0,0,1-.39.1Zm3.71,1.89a.28.28,0,0,1-.11-.35.29.29,0,0,1,.38-.16c.71.3,1.44.57,2.18.81a.28.28,0,0,1,.18.36.29.29,0,0,1-.36.19c-.75-.24-1.5-.52-2.23-.83Zm5.91,1.74a.29.29,0,0,1,.2-.53c.76.14,1.54.24,2.31.31a.28.28,0,0,1,.26.31.29.29,0,0,1-.31.26c-.79-.07-1.58-.17-2.36-.31Zm6.15.39a.29.29,0,0,1-.14-.23.29.29,0,0,1,.27-.31c.77,0,1.55-.11,2.32-.21a.29.29,0,0,1,.32.24.29.29,0,0,1-.25.33c-.78.11-1.57.18-2.36.22A.27.27,0,0,1,186.73,194.47Zm6.07-1a.26.26,0,0,1-.13-.17.29.29,0,0,1,.2-.35c.74-.21,1.49-.45,2.21-.73a.29.29,0,0,1,.37.17.28.28,0,0,1-.17.37c-.74.28-1.49.53-2.25.74A.27.27,0,0,1,192.8,193.47Zm5.7-2.32a.27.27,0,0,1-.1-.11.28.28,0,0,1,.11-.39c.68-.37,1.35-.77,2-1.19a.28.28,0,0,1,.4.08.3.3,0,0,1-.08.4c-.66.43-1.35.84-2,1.22A.3.3,0,0,1,198.5,191.15Zm5.05-3.52-.07-.06a.3.3,0,0,1,0-.41c.58-.51,1.15-1,1.68-1.6a.29.29,0,0,1,.41,0,.28.28,0,0,1,0,.4c-.55.57-1.13,1.13-1.72,1.65A.3.3,0,0,1,203.55,187.63Zm4.14-4.56h0a.3.3,0,0,1-.06-.41q.6-.83,1.14-1.71l.14-.23a.28.28,0,0,1,.39-.1h0a.29.29,0,0,1,.1.4c0,.08-.1.16-.14.24-.37.59-.76,1.18-1.16,1.74A.3.3,0,0,1,207.69,183.07Zm3-5.37a.3.3,0,0,1-.12-.36c.3-.71.58-1.44.82-2.18a.28.28,0,1,1,.54.18c-.24.75-.52,1.5-.83,2.23a.29.29,0,0,1-.37.15Zm1.75-5.9a.29.29,0,0,1-.13-.3c.13-.76.24-1.54.31-2.3a.29.29,0,0,1,.31-.26.28.28,0,0,1,.26.31c-.07.78-.18,1.57-.32,2.35a.27.27,0,0,1-.33.23A.29.29,0,0,1,212.46,171.8Z"/><path class="cls-80" d="M166.35,186.9l0,0-.82-.82a.29.29,0,1,1,.41-.4c.26.27.53.54.81.8a.3.3,0,0,1,0,.41A.29.29,0,0,1,166.35,186.9Z"/><path class="cls-81" d="M157.8,167.08a.28.28,0,0,1-.13-.24c0-.39,0-.78,0-1.17a.29.29,0,0,1,.57,0c0,.38,0,.76,0,1.13a.29.29,0,0,1-.28.29A.29.29,0,0,1,157.8,167.08Z"/><path class="cls-82" d="M158.22,162.2a.31.31,0,0,1-.13-.3c.14-.76.3-1.53.5-2.28a.29.29,0,1,1,.56.15c-.2.73-.36,1.48-.49,2.23a.29.29,0,0,1-.34.23Zm1.7-5.82a.3.3,0,0,1-.12-.36c.3-.71.63-1.43,1-2.12a.29.29,0,0,1,.51.27c-.35.67-.67,1.37-1,2.07a.29.29,0,0,1-.38.16Zm2.93-5.31h0a.29.29,0,0,1-.07-.4c.45-.63.93-1.26,1.43-1.85a.28.28,0,0,1,.4,0,.29.29,0,0,1,0,.4c-.49.58-1,1.19-1.4,1.81A.28.28,0,0,1,162.85,151.07Zm4-4.53-.07,0a.3.3,0,0,1,0-.41c.58-.52,1.18-1,1.8-1.49a.28.28,0,0,1,.4,0,.29.29,0,0,1-.05.41c-.61.46-1.2.95-1.76,1.46A.3.3,0,0,1,166.87,146.54Zm4.91-3.55a.24.24,0,0,1-.1-.1.28.28,0,0,1,.11-.39c.67-.38,1.37-.74,2.08-1.07a.3.3,0,0,1,.38.14.31.31,0,0,1-.14.39c-.69.31-1.38.66-2,1A.28.28,0,0,1,171.78,143Zm5.56-2.39a.29.29,0,0,1-.12-.16.29.29,0,0,1,.19-.36c.74-.22,1.5-.42,2.26-.58a.27.27,0,0,1,.34.22.28.28,0,0,1-.22.34c-.74.16-1.48.35-2.21.57A.29.29,0,0,1,177.34,140.6Zm6-1.11a.29.29,0,0,1,.12-.54c.78,0,1.56-.08,2.34-.07a.29.29,0,0,1,0,.57c-.75,0-1.52,0-2.28.08A.33.33,0,0,1,183.3,139.49Zm6,.22a.3.3,0,0,1-.14-.29.28.28,0,0,1,.33-.24c.77.11,1.54.26,2.3.44a.28.28,0,0,1,.21.34.3.3,0,0,1-.35.22c-.74-.18-1.49-.32-2.24-.43Zm5.86,1.53a.28.28,0,0,1-.12-.35.29.29,0,0,1,.37-.16c.73.28,1.45.59,2.15.92a.29.29,0,0,1,.13.39.28.28,0,0,1-.38.13c-.68-.33-1.39-.63-2.1-.9Zm7.26,4.14,0,0c-.6-.48-1.22-.93-1.85-1.35a.29.29,0,1,1,.32-.48c.64.43,1.28.89,1.89,1.38a.28.28,0,0,1,0,.4A.29.29,0,0,1,202.47,145.38Z"/><path class="cls-83" d="M206,148.77l-.07-.06c-.25-.29-.51-.57-.77-.84a.29.29,0,1,1,.42-.4l.79.86a.3.3,0,0,1,0,.41A.3.3,0,0,1,206,148.77Z"/><path class="cls-84" d="M203,154.85a.35.35,0,0,0-.34-.17l-4,.63a17.28,17.28,0,0,0-4.38-3.62l-.14-4a.31.31,0,0,0-.23-.3L189.34,146a.32.32,0,0,0-.37.12l-2.36,3.25a17.47,17.47,0,0,0-5.65.54l-3-2.74a.32.32,0,0,0-.38,0l-4.26,2.26a.34.34,0,0,0-.17.34l.63,4a17.23,17.23,0,0,0-3.62,4.37l-4,.14a.33.33,0,0,0-.3.24L164.48,163a.32.32,0,0,0,.12.37l3.25,2.36a17.47,17.47,0,0,0,.54,5.65l-2.74,2.95a.32.32,0,0,0-.05.38l2.26,4.26a.34.34,0,0,0,.34.17l4-.63a17.23,17.23,0,0,0,4.37,3.62l.14,4a.33.33,0,0,0,.24.3l4.61,1.41a.32.32,0,0,0,.37-.12l2.36-3.25a17.47,17.47,0,0,0,5.65-.54l2.94,2.74a.32.32,0,0,0,.38,0l4.27-2.26a.34.34,0,0,0,.17-.34l-.63-4a17.44,17.44,0,0,0,3.62-4.37l4-.14a.33.33,0,0,0,.3-.24l1.41-4.61a.33.33,0,0,0-.12-.37L203,168.09a17.47,17.47,0,0,0-.54-5.65l2.74-2.95a.32.32,0,0,0,.05-.38Z"/><path class="cls-85" d="M183,171a4.76,4.76,0,0,1-1-.87,4.71,4.71,0,1,1,3.26,1.55A4.77,4.77,0,0,1,183,171Zm4.47-7.32a3.88,3.88,0,0,0-1.82-.56h0a3.85,3.85,0,0,0-4,3.66,3.85,3.85,0,0,0,7.7.38,3.85,3.85,0,0,0-1-2.78A4.34,4.34,0,0,0,187.45,163.63Zm-1.8-1h0Z"/><path class="cls-86" d="M179.05,177.28a12.09,12.09,0,0,1-5.24-13.84,11.69,11.69,0,0,1,1.24-2.76,12.09,12.09,0,0,1,13.84-5.25l.29.09a14,14,0,0,1,1.87.8l.2.12-.42.75a11.44,11.44,0,0,0-2.19-.93h0a11.21,11.21,0,1,0,6.31,16.57,11,11,0,0,0,1.15-2.56,11.11,11.11,0,0,0,.17-6l.84-.21a12.1,12.1,0,0,1-.18,6.43,12.56,12.56,0,0,1-1.24,2.76,12.1,12.1,0,0,1-13.84,5.25A11.76,11.76,0,0,1,179.05,177.28Z"/><path class="cls-87" d="M359.47,344.73l-1.89-135.34a2.74,2.74,0,0,1,2.83-2.7h0a4.51,4.51,0,0,0,4.64-4.35V169.28a3.85,3.85,0,0,1,4.09-3.72l10.2.32a4.57,4.57,0,0,1,4.56,4.34l3.49,174.51Z"/><path class="cls-88" d="M404,369.76a.85.85,0,0,0,.85-.86V266.81a.85.85,0,0,0-1.7,0V368.9A.85.85,0,0,0,404,369.76Z"/><path class="cls-88" d="M427.18,369.76a.85.85,0,0,0,.85-.86V266.81a.86.86,0,0,0-1.71,0V368.9A.85.85,0,0,0,427.18,369.76Z"/><path class="cls-88" d="M484,370.41a1,1,0,0,0,.34-.07.86.86,0,0,0,.45-1.12L441.15,266.48a.85.85,0,0,0-1.57.67l43.68,102.74A.85.85,0,0,0,484,370.41Z"/><path class="cls-88" d="M457.06,370.41a1,1,0,0,0,.34-.07.86.86,0,0,0,.45-1.12L414.17,266.48a.85.85,0,0,0-1.57.67l43.68,102.74A.86.86,0,0,0,457.06,370.41Z"/><rect class="cls-88" x="401.5" y="265.35" width="42.42" height="2.41" rx="0.61"/><path class="cls-88" d="M420,283.38H447a.86.86,0,1,0,0-1.71H420a.86.86,0,1,0,0,1.71Z"/><rect class="cls-88" x="428.29" y="301.1" width="27.06" height="1.71"/><rect class="cls-88" x="436.33" y="320.53" width="27.06" height="1.71"/><path class="cls-88" d="M444.75,341.67h27.06a.86.86,0,1,0,0-1.71H444.75a.86.86,0,0,0,0,1.71Z"/><path class="cls-88" d="M452.9,361.1H480a.86.86,0,1,0,0-1.71H452.9a.86.86,0,0,0,0,1.71Z"/><path class="cls-89" d="M286.53,380.19c-2,.18-5.51.46-8.27.58a8.06,8.06,0,0,1-3.17-.31,1.09,1.09,0,0,0,0,.18.57.57,0,0,0,.54.54,97.17,97.17,0,0,0,10.84,0,.41.41,0,0,0,.33-.61A3.16,3.16,0,0,0,286.53,380.19Z"/><path class="cls-90" d="M278.26,380.77c2.76-.12,6.26-.4,8.27-.58-2-2.43-8.27-4.07-8.27-4.07h-1.78a7.5,7.5,0,0,0-1.39,4.34A8.06,8.06,0,0,0,278.26,380.77Z"/><path class="cls-91" d="M276.18,373.22l.17,3.29a.74.74,0,0,0,.64.71,3,3,0,0,0,1.33-.11.91.91,0,0,0,.6-.69l.58-3.2Z"/><path class="cls-92" d="M253.09,380.75a1.6,1.6,0,0,1-1.44-1.07v0a1.13,1.13,0,0,0,.76,1.29,5,5,0,0,0,2.12.34,2.1,2.1,0,0,0,1.59-.74h0A5.43,5.43,0,0,1,253.09,380.75Z"/><path class="cls-93" d="M257.21,373.2h-1.47c-2.23-.05-3.63,4.66-4.09,6.48a1.6,1.6,0,0,0,1.44,1.07,5.43,5.43,0,0,0,3-.16,14,14,0,0,0,2.09-5.27A1.84,1.84,0,0,0,257.21,373.2Z"/><path class="cls-94" d="M255.93,370.14l-.81,3.24a.86.86,0,0,0,.46,1,3,3,0,0,0,1.68.41.73.73,0,0,0,.6-.49l1.2-3.4Z"/><path class="cls-16" d="M255,371.08c1,.89,4.31,1,4.31,1C271.14,343.61,276,339.56,276,339.56c-1.71,10.75-.27,34.56-.27,34.56a7.15,7.15,0,0,0,4.48,0,183.31,183.31,0,0,1,6.06-45.06c-8-.18-12.29-2.92-13.68-4C265.89,335.81,255,371.08,255,371.08Z"/><path class="cls-95" d="M274.62,292.28c-1.52,7.57-1,21.12-.62,27.31.1,1.73-1.11,4.14-2.09,5.79a.51.51,0,0,0,.21.72,35.67,35.67,0,0,0,13.64,3.79.93.93,0,0,0,.93-.69A179.71,179.71,0,0,1,297,299.94C290.89,290.15,274.62,292.28,274.62,292.28Z"/><path class="cls-96" d="M276.8,338.89a.41.41,0,0,1-.2-.06.38.38,0,0,1-.12-.52,11.87,11.87,0,0,1,4.7-4.09.38.38,0,0,1,.33.69,11.4,11.4,0,0,0-4.38,3.79A.39.39,0,0,1,276.8,338.89Z"/><path class="cls-97" d="M265.09,314a26,26,0,0,0,4.81,11.46l1.1-.89a34,34,0,0,1-.55-10.95A13.17,13.17,0,0,0,265.09,314Z"/><path class="cls-98" d="M276.31,301.62l-1.69-9.34s-11.33,8.66-9.53,21.73a13.17,13.17,0,0,1,5.36-.38C271,309.43,272.52,304.87,276.31,301.62Z"/><path class="cls-99" d="M297,299.94l-4.37,9.42c.71,5.68,3.76,8.14,7.06,9.09a19.84,19.84,0,0,1,1.47-6.14C297,308,297,299.94,297,299.94Z"/><path class="cls-100" d="M301.18,312.31a19.84,19.84,0,0,0-1.47,6.14c8.78,3.41,11.11-3.21,11.11-3.21L309.2,315A9.22,9.22,0,0,1,301.18,312.31Z"/><path class="cls-101" d="M293,288.31l-2.11,7.76a1.52,1.52,0,0,1-2,1c-.9-.37-2.05-.86-3-1.39a2,2,0,0,1-.72-2.93l4.39-6.54Z"/><path class="cls-102" d="M314.85,310.05l-54.11,19.69a4.14,4.14,0,0,0-2.35,5.61l.16.36a3.85,3.85,0,0,0,5.12,1.9l52.54-24.3Z"/><ellipse class="cls-103" cx="339.72" cy="298.2" rx="26.71" ry="26.23"/><path class="cls-104" d="M339.72,269C323.3,269,310,282.09,310,298.2s13.3,29.19,29.72,29.19,29.72-13.07,29.72-29.19S356.13,269,339.72,269Zm0,54.08a24.9,24.9,0,1,1,25.35-24.9A25.13,25.13,0,0,1,339.72,323.1Z"/><path class="cls-16" d="M312.09,301.64c-.09-.69-.15-1.39-.18-2.09a.15.15,0,0,1,.15-.17.17.17,0,0,1,.18.15c0,.69.09,1.39.18,2.07a.18.18,0,0,1-.14.19h0A.16.16,0,0,1,312.09,301.64Zm.34-8a.16.16,0,0,1-.13-.19,26.27,26.27,0,0,1,1.6-5.48h0a27.74,27.74,0,0,1,25.82-17.09,28.2,28.2,0,0,1,14.95,4.27.16.16,0,0,1,.05.23.18.18,0,0,1-.23.06,27.73,27.73,0,0,0-14.77-4.23,27.4,27.4,0,0,0-25.51,16.89h0a26.87,26.87,0,0,0-1.59,5.41.16.16,0,0,1-.16.14Z"/><path class="cls-105" d="M297.61,282.41c0,.14-1.76,8.86-1.76,8.86l-5-1.12.46-8.52S297.29,280.18,297.61,282.41Z"/><path class="cls-106" d="M292.47,283.53l-.6,4.46v.17c.05.35.32,1.55,1.52,1.2a5.76,5.76,0,0,1,2.78-.36.64.64,0,0,1,.44.73,27.32,27.32,0,0,1-1.15,4.06.61.61,0,0,1-.76.37,19.94,19.94,0,0,1-4.37-1.78.64.64,0,0,1-.31-.57c.05-1.13.18-4.56.07-5.52s-1.21-1.44-1.69-1.63a.62.62,0,0,1-.34-.35,1.63,1.63,0,0,1,1.09-2.38.63.63,0,0,0,.4-.81,1.64,1.64,0,0,1,.92-2.26,2.32,2.32,0,0,1,2.75.66.62.62,0,0,0,.8.1.5.5,0,0,1,.57,0,.62.62,0,0,0,.88-.27,1.88,1.88,0,0,1,2.18-1.09c2.22.38,2.47,2.85,1.89,4.29s-3,.89-4.17.17a2.69,2.69,0,0,0-2.61.33A.62.62,0,0,0,292.47,283.53Z"/><path class="cls-107" d="M289.89,287.92s.92-2.56,0-3.18-2.33-.3-2,1.55C288.22,288.59,289.89,287.92,289.89,287.92Z"/><path class="cls-108" d="M270.55,324.43l5.11-.42,2.22,2s-.53.73-2.16.31a23.18,23.18,0,0,0-3.89-.52s-2.26,1-2.29-.89Z"/><path class="cls-109" d="M310.17,316.45c.44.35,2-.37,2.88-.87a1.06,1.06,0,0,0,.52-1.26c-.22-.71-.6-1.61-1.05-1.73C311.76,312.4,308.35,315,310.17,316.45Z"/><path class="cls-16" d="M261.81,336.82a.17.17,0,0,0,.16-.11.16.16,0,0,0-.11-.21c-1.54-.54-2.34-1.4-2.39-2.57a2.82,2.82,0,0,1,1.86-2.74l6.5-2.54a.16.16,0,0,0,.09-.21.16.16,0,0,0-.21-.1l-6.5,2.53a3.2,3.2,0,0,0-2.08,3.07c.06,1.33.94,2.29,2.62,2.87Z"/><path class="cls-16" d="M269.77,327.88h.06l.84-.33a.16.16,0,0,0,.1-.21.17.17,0,0,0-.22-.1l-.84.33a.17.17,0,0,0-.1.22A.18.18,0,0,0,269.77,327.88Z"/><path class="cls-110" d="M70.16,224.6l-2.56,2.52a18.37,18.37,0,0,1-8.56-2.9A20.13,20.13,0,0,1,62.67,218,21,21,0,0,0,70.16,224.6Z"/><path class="cls-111" d="M52.39,215.19l6-9.42A23.84,23.84,0,0,0,62.67,218,20.13,20.13,0,0,0,59,224.22,16.57,16.57,0,0,1,52.39,215.19Z"/><path class="cls-112" d="M48,284.53c2.76.13,5.43.05,7.21,0a36.62,36.62,0,0,0-8.49-4.67l-2.15-.12a8.79,8.79,0,0,0-1,3.64C43.89,283.77,44.93,284.39,48,284.53Z"/><path class="cls-113" d="M55.19,284.5l0,0c-1.78.1-4.45.18-7.21,0-3-.14-4.06-.76-4.41-1.2,0,.11,0,.23,0,.35a1,1,0,0,0,.93,1.09c2.26.17,7.86.56,10.56.41A.38.38,0,0,0,55.19,284.5Z"/><path class="cls-114" d="M28.22,283.79a20.61,20.61,0,0,0-.77-3.64c-.4-.76-1.74,0-1.74,0a3.62,3.62,0,0,0-1.38,1.17c-.28.47-1,1.8-1.56,2.7a.61.61,0,0,0-.08.32l5.38.19A1.1,1.1,0,0,0,28.22,283.79Z"/><path class="cls-115" d="M22.69,284.34a.61.61,0,0,0,.6.6l3.83.1a1.08,1.08,0,0,0,.95-.51Z"/><path class="cls-116" d="M28.63,275.84c0,.16-.74,3.53-1,5a.85.85,0,0,1-.87.67c-.23,0-.49,0-.77-.07a1,1,0,0,1-.89-1c0-1.29-.07-3.78.4-4.75C26.12,274.4,28.63,275.84,28.63,275.84Z"/><path class="cls-117" d="M44.1,276.81c.3,0-.12,1.54.33,3.06a.81.81,0,0,0,.72.62,7.41,7.41,0,0,0,.79,0,.86.86,0,0,0,.79-.78l.37-3.95Z"/><path class="cls-118" d="M52.44,234.81c-.13.65-4.83,28.06-5.11,42.24a.48.48,0,0,1-.42.47,9.21,9.21,0,0,1-2.88,0,.32.32,0,0,1-.28-.31c-.17-2.64-1.49-25,.13-35.51,0,0-13.36,28.12-15.39,35.88a.4.4,0,0,1-.41.3,9.93,9.93,0,0,1-2.71-.48.71.71,0,0,1-.45-.83c1.13-4.64,9.06-36.61,14.45-43.66Z"/><path class="cls-119" d="M43.88,241.86a.18.18,0,0,1-.13-.3l1.79-1.83a.18.18,0,0,1,.25.25L44,241.8A.16.16,0,0,1,43.88,241.86Z"/><path class="cls-120" d="M60.08,200.5c-3.43-.9-9.76-2.31-14.8-2a2.27,2.27,0,0,0-2.15,2.14c-.76,13.42-1.8,25.33-3.76,32.26a25.18,25.18,0,0,0,13.07,1.92,144.3,144.3,0,0,0,8.46-23.95s1.42-7.23,0-9.64A1.38,1.38,0,0,0,60.08,200.5Z"/><path class="cls-121" d="M51.83,191.09s-.87,5.17-1.13,7.56a.94.94,0,0,0,.51.94,6.84,6.84,0,0,0,5.17.55.88.88,0,0,0,.6-.85l-.15-6.9Z"/><path class="cls-122" d="M57.48,185.36s1.67,3.85,1.78,5.86.55,3.33-1.78,3.73a5,5,0,0,1-5.36-2.76s-1.67-3.1-1.29-4.36S57.48,185.36,57.48,185.36Z"/><path class="cls-123" d="M52.92,190.74h.29s-1.21-2.49-.15-2.92,5.3-1.3,6.21-2.8a2.79,2.79,0,0,0-1.08-3.84.16.16,0,0,0-.2.07l-.09.19a.16.16,0,0,1-.3,0h0a.15.15,0,0,0-.28,0c-.28.44-1,1.17-3.06,1.55-2.88.53-4.78,1.69-4.83,3.68a.15.15,0,0,1-.24.13c-.22-.13-.55-.19-1,.19-.79.67-.47,2.39,1.27,3.81a.15.15,0,0,1,0,.25c-.32.2-.78.69.43,1.34a3.25,3.25,0,0,0,2.25.52.17.17,0,0,0,.12-.17l-.11-1.76a.17.17,0,0,1,.16-.17Z"/><path class="cls-124" d="M53,191.11s-.64-2.45-1.74-1.76.57,2.75,1.46,2.84Z"/><path class="cls-125" d="M110.88,221.3l-13.1,3.31A3.13,3.13,0,0,1,95.1,224l-3.88-3a3.11,3.11,0,0,1-.93-3.67l2-4.53A3.12,3.12,0,0,1,94.34,211l13.1-3.32a2.38,2.38,0,0,0,.8-4.26,17.83,17.83,0,0,0-14.48-2.51,16,16,0,0,0-12.3,16.79L17.74,230.93l-.45.1-2.26.58c-3.87,1-6.48,3.89-5.82,6.5l.79,3.11c.66,2.61,4.34,3.93,8.21,2.95l2.26-.57.45-.12,62.34-18.65a16,16,0,0,0,18.8,8.93,17.84,17.84,0,0,0,11.54-9.09A2.38,2.38,0,0,0,110.88,221.3Zm-91,19.11c-2.92.74-5.64-.07-6.07-1.8s1.57-3.74,4.49-4.47,5.63.07,6.07,1.8S22.77,239.68,19.85,240.41Z"/><path class="cls-15" d="M107.76,208.94l-13.11,3.31A3.1,3.1,0,0,0,92.57,214l-2,4.53a3.11,3.11,0,0,0,.92,3.67l3.88,3.05a3.08,3.08,0,0,0,2.68.57l13.1-3.31a2.39,2.39,0,0,1,2.73,3.38A17.88,17.88,0,0,1,102.37,235c-9.42,2.38-17.76-3.33-20.05-12.39s2.33-18,11.76-20.43a17.85,17.85,0,0,1,14.47,2.5A2.39,2.39,0,0,1,107.76,208.94Z"/><path class="cls-15" d="M17.54,232l-2.26.57c-3.87,1-6.48,3.89-5.82,6.51l.79,3.1c.66,2.61,4.34,3.94,8.21,3l2.26-.57.45-.12,66.22-19.82-1.71-6.77L18,231.92Zm1,3.1c2.92-.74,5.64.07,6.08,1.8S23,240.66,20.1,241.4s-5.64-.07-6.07-1.81S15.6,235.86,18.51,235.12Z"/><path class="cls-126" d="M34.25,218.37a21.38,21.38,0,0,0-.74,9.87l-2.24.6S28.38,225.4,29,217.77A10.9,10.9,0,0,1,34.25,218.37Z"/><path class="cls-127" d="M29,217.77q.11-1.29.36-2.73c1.52-8.41,12.3-14.89,14.84-16.3a.34.34,0,0,1,.51.31l-.36,11.44c-6,.81-8.85,4.24-10.14,7.88A10.9,10.9,0,0,0,29,217.77Z"/><path class="cls-128" d="M74.87,229a1.43,1.43,0,0,0,.94-.81c.35-.77.73-2-.09-2.37-1.23-.56-3.47,1.73-3.47,1.73l-1.09,1.77-1,.49C71.07,230.06,72.84,229.64,74.87,229Z"/><path class="cls-129" d="M33.36,227.12h2.76s-2.24,1.35-2.32,2.76A14.37,14.37,0,0,0,35.15,235c.49.87-6.27-1.3-3.88-7.91Z"/><path class="cls-130" d="M393.64,194.77l0,1.06c3.28,4.56,6.25,3.4,8.31,2-1.24-3.07-1.46-3.41-2.44-4.48C395.83,196.08,393.64,194.77,393.64,194.77Z"/><path class="cls-131" d="M408.56,189.76l-5.76-9c-.38,5.08-1.28,9.84-3.26,12.62,1,1.07,1.2,1.41,2.44,4.48A16.84,16.84,0,0,0,408.56,189.76Z"/><path class="cls-132" d="M414.22,265.37c-2.88.13-5.66.05-7.51,0a37.28,37.28,0,0,1,8.84-4.87l2.24-.13a9.06,9.06,0,0,1,1,3.79C418.45,264.58,417.36,265.23,414.22,265.37Z"/><path class="cls-133" d="M406.68,265.34h0c1.85.09,4.63.17,7.51,0,3.14-.14,4.23-.79,4.6-1.25l0,.37a1,1,0,0,1-1,1.13c-2.35.18-8.19.58-11,.43A.39.39,0,0,1,406.68,265.34Z"/><path class="cls-134" d="M434.76,264.6a22.33,22.33,0,0,1,.81-3.79c.41-.79,1.81,0,1.81,0a3.69,3.69,0,0,1,1.44,1.22c.29.48,1.08,1.87,1.62,2.81a.6.6,0,0,1,.09.34l-5.61.19A1.19,1.19,0,0,1,434.76,264.6Z"/><path class="cls-135" d="M440.53,265.18a.64.64,0,0,1-.62.62l-4,.11a1.14,1.14,0,0,1-1-.54Z"/><path class="cls-136" d="M434.34,256.32c0,.16.77,3.68,1.09,5.22a.88.88,0,0,0,.9.7c.24,0,.52,0,.8-.07a1.07,1.07,0,0,0,.93-1c.05-1.35.08-3.94-.42-5C437,254.83,434.34,256.32,434.34,256.32Z"/><path class="cls-137" d="M418.23,257.33c-.31,0,.12,1.6-.35,3.19a.79.79,0,0,1-.74.64,7.72,7.72,0,0,1-.82,0,.91.91,0,0,1-.83-.81l-.39-4.12Z"/><path class="cls-16" d="M409.54,213.59c.14.68,5,29.23,5.33,44a.51.51,0,0,0,.43.49,10.4,10.4,0,0,0,3,0,.36.36,0,0,0,.29-.33c.17-2.75,1.54-26-.14-37,0,0,13.91,29.29,16,37.36a.44.44,0,0,0,.44.32,10.62,10.62,0,0,0,2.82-.5.74.74,0,0,0,.46-.87c-1.18-4.83-9.44-38.13-15-45.46Z"/><path class="cls-16" d="M418.46,220.93a.21.21,0,0,0,.13-.05.19.19,0,0,0,0-.26l-1.86-1.9a.18.18,0,1,0-.26.25l1.86,1.91A.19.19,0,0,0,418.46,220.93Z"/><path class="cls-138" d="M401.58,177.85c3.58-.93,10.17-2.41,15.42-2.09,1.71.11,2,1.73,2.11,2.93.79,14,2,25.69,4.05,32.91a26.45,26.45,0,0,1-13.62,2,150.25,150.25,0,0,1-8.81-24.94s-1.47-7.53,0-10A1.47,1.47,0,0,1,401.58,177.85Z"/><path class="cls-139" d="M410.18,168.06s.9,5.39,1.17,7.88a1,1,0,0,1-.53,1,7.1,7.1,0,0,1-5.38.58.92.92,0,0,1-.62-.89l.16-7.19Z"/><path class="cls-140" d="M388.48,139.67a.26.26,0,0,0,.1-.36l-.37-.65,0,0-2.16-3.5a.26.26,0,0,0-.37-.09l-.41.25a.27.27,0,0,0-.08.37l2,3.23a.27.27,0,0,1-.1.37l-15.64,8.82a.26.26,0,0,0-.1.36l.36.65h0l5.08,9a.27.27,0,0,0,.36.11l.42-.24a.25.25,0,0,0,.1-.36l-4.95-8.79a.26.26,0,0,1,.1-.36Z"/><rect class="cls-141" x="363.72" y="121.79" width="8.47" height="37.22" transform="translate(426.4 529.87) rotate(-119.42)"/><rect class="cls-142" x="391.38" y="152.89" width="2.94" height="72.3" rx="0.32" transform="translate(-43.03 197.81) rotate(-26.85)"/><ellipse class="cls-143" cx="351.73" cy="149.52" rx="1.58" ry="4.26" transform="translate(-28.08 192.05) rotate(-29.42)"/><path class="cls-144" d="M385.32,130.61c1.16,2,1.48,4.06.72,4.49s-2.32-.89-3.48-2.94-1.47-4.06-.71-4.49S384.16,128.56,385.32,130.61Z"/><path class="cls-145" d="M393.11,194.93a1.39,1.39,0,0,1-.16-1.16c.24-.76.73-1.88,1.55-1.63,1.23.36,1.39,3.39,1.39,3.39l-.32,1.95.41,1C395.17,198.05,394.17,196.65,393.11,194.93Z"/><path class="cls-146" d="M421.48,201.77c.5-.7,1-1.47,1.5-2.32,4.9-8.4-4.09-21.25-4.09-21.25l-2.74,8.15c4.05,4.52,2.35,8.88,1,12.5-1.8,4.73-9.61,8.75-9.61,8.75l1.49,1.83S417,208,421.48,201.77Z"/><path class="cls-147" d="M424.56,191c-.1-6.52-5.28-13.45-6.22-14.67a.15.15,0,0,0-.25,0l-1.94,10c.82,1.93.66,3.14,1.48,4.88a17.92,17.92,0,0,1,6.49.15A.37.37,0,0,0,424.56,191Z"/><path class="cls-148" d="M407.51,207.6c-.46-.23-4,.29-3.48.78,1,.86,1,1.51,0,2.32-.5.4-1.64,1-1.95.07-.09-.26-.1-.6-.35-.72s-.71.54-.74.75a2.4,2.4,0,0,0,1.73,2.44,7,7,0,0,0,1.51.34,8.15,8.15,0,0,0,1,.12c.08,0,.12-.11.17-.17.24-.26,1.48-1.3,1.75-1.66a17,17,0,0,0,1.92-2.76A12.24,12.24,0,0,0,407.51,207.6Z"/><path class="cls-149" d="M403.93,162.33s-2.88,5.43-2.51,7.62,3.94,2,7.07.26l2.18-5.87Z"/><path class="cls-150" d="M408.35,167.33a.22.22,0,0,1-.1-.33,5.56,5.56,0,0,0,.8-1.71s.52-.33-1.32-.77-4.58-1.12-5.16-2.69.92-5.36,3.28-2.3a.23.23,0,0,0,.35,0,2.32,2.32,0,0,1,2.81-.92,2.12,2.12,0,0,1,1.45,2,.23.23,0,0,0,.27.23,2.57,2.57,0,0,1,3,1.4c.62,1.36.22,2.12-.15,2.5a.22.22,0,0,0,.1.37,1.34,1.34,0,0,1,.95,1.53c-.08,1.42-1.67,1.3-2.12,1.23a.24.24,0,0,0-.2.07c-.39.43-2.14,2.25-4,2.47a.22.22,0,0,1-.23-.3l.82-2.37a.23.23,0,0,0-.13-.28Z"/><path class="cls-151" d="M408,167.66s2.05-1.41,2.2-.22-1.85,1.72-2.84,1.28Z"/><path class="cls-15" d="M418.21,374.18a39.22,39.22,0,0,1-25.18.25,5,5,0,0,1-3.44-4.73V330A73.81,73.81,0,0,0,421,330v40.35A4.09,4.09,0,0,1,418.21,374.18Z"/><ellipse class="cls-16" cx="405.3" cy="329.65" rx="15.71" ry="3.16"/><path class="cls-152" d="M421,360.56a46.6,46.6,0,0,1-31.43,0V344.71a62.66,62.66,0,0,0,31.43,0Z"/><path class="cls-153" d="M391.28,333.57a2.61,2.61,0,0,0,3,1.8c.89-.22,1.65-.91,2.56-.93a3.3,3.3,0,0,1,2.47,1.68,16.73,16.73,0,0,1,2.46,5.06,4.09,4.09,0,0,0,.75,1.7c.91,1,2.62.68,3.62-.21a15.68,15.68,0,0,0,2.31-3.29,4,4,0,0,1,3.23-2.07c.45,0,.89.18,1.34.2a2.3,2.3,0,0,0,2.24-1.62,4.17,4.17,0,0,1,.26-.87c.46-.8,1.66-.88,2.28-1.52.39-.41.53-1,1-1.4.18-.16,1.37-.65,1.39-.72.21-.64-.45-1.22-1.07-1.5-3.61-1.61-7.74,0-11.66.55s-7.53-.34-11.34-.31C394,330.14,390.49,330.65,391.28,333.57Z"/><ellipse class="cls-154" cx="405.49" cy="329.74" rx="15.71" ry="3.16"/><ellipse class="cls-155" cx="405.07" cy="329.74" rx="12.94" ry="1.91"/></g></g></svg>